<?xml version="1.0" standalone="no"?>
<!DOCTYPE svg PUBLIC "-//W3C//DTD SVG 1.1//EN" "http://www.w3.org/Graphics/SVG/1.1/DTD/svg11.dtd" >
<svg>
<metadata>
Created by FontForge 20120731 at Thu Aug 16 09:36:31 2018
 By www
Copyright (c) 2013 by Lucas Sharp. All rights reserved.
</metadata>
<defs>
<font id="SharpSansNo1-Light" horiz-adv-x="588" >
  <font-face 
    font-family="Sharp Sans No1 Light"
    font-weight="600"
    font-stretch="normal"
    units-per-em="1000"
    panose-1="0 0 0 0 0 0 0 0 0 0"
    ascent="750"
    descent="-250"
    x-height="500"
    cap-height="730"
    bbox="-82 -281 1330 1070"
    underline-thickness="50"
    underline-position="-100"
    unicode-range="U+0020-F60B"
  />
<missing-glyph horiz-adv-x="900" 
d="M85 0v730h730v-730h-730zM450 331l-283 -283h566zM167 682l283 -283l283 283h-566zM484 365l283 -283v566zM416 365l-283 283v-566z" />
    <glyph glyph-name="interrobang" unicode="&#x21;&#x3f;" horiz-adv-x="532" 
d="M246 191q-2 158 -2 422v93q-104 -8 -154 -101l-33 15q27 54 81 87t128 33q88 0 146 -47.5t58 -122.5q0 -38 -10.5 -66t-27.5 -46.5t-37.5 -34.5t-40.5 -34.5t-37 -41.5t-27.5 -61t-10.5 -87v-8h-33zM432 570q0 56 -43 94t-108 42v-93q0 -56 -5 -276q16 35 44.5 64.5
t52 46.5t41.5 48t18 74zM243 0v137h38v-137h-38z" />
    <glyph glyph-name="interrobangdown" unicode="&#xa1;&#xbf;" horiz-adv-x="532" 
d="M262 -240q-88 0 -145.5 47.5t-57.5 122.5q0 38 10.5 66t27.5 46.5t37 34.5t40.5 34.5t37.5 41.5t27.5 61t10.5 87v8h32q3 -237 3 -422v-93q105 8 153 101l33 -15q-27 -54 -80.5 -87t-128.5 -33zM96 -70q0 -56 43 -94t109 -42v93q0 99 4 277q-13 -30 -34.5 -54.5
t-41.5 -40.5t-39 -34t-30 -44t-11 -61zM285 500v-137h-38v137h38z" />
    <glyph glyph-name=".notdef" horiz-adv-x="900" 
d="M85 0v730h730v-730h-730zM450 331l-283 -283h566zM167 682l283 -283l283 283h-566zM484 365l283 -283v566zM416 365l-283 283v-566z" />
    <glyph glyph-name=".null" horiz-adv-x="0" 
 />
    <glyph glyph-name="nonmarkingreturn" horiz-adv-x="333" 
 />
    <glyph glyph-name="space" unicode=" " horiz-adv-x="257" 
 />
    <glyph glyph-name="exclam" unicode="!" horiz-adv-x="245" 
d="M112 205q-7 180 -7 408v117h38v-117q0 -228 -7 -408h-24zM105 0v137h38v-137h-38z" />
    <glyph glyph-name="quotedbl" unicode="&#x22;" horiz-adv-x="270" 
d="M80 500q-10 65 -10 146v84h34v-84q0 -81 -10 -146h-14zM177 500q-10 65 -10 146v84h34v-84q0 -81 -10 -146h-14z" />
    <glyph glyph-name="numbersign" unicode="#" horiz-adv-x="838" 
d="M531 0v221h-229v-221h-37v221h-213v35h213v228h-213v35h213v211h37v-211h229v211h37v-211h218v-35h-218v-228h218v-35h-218v-221h-37zM302 484v-228h229v228h-229z" />
    <glyph glyph-name="dollar" unicode="$" 
d="M533 192q0 -83 -62 -139.5t-157 -61.5v-111h-38v111q-73 4 -133 33t-97 73l28 26q33 -41 86.5 -68t116.5 -31v345q-50 15 -79.5 27t-65 34t-52.5 54t-17 76q0 79 60 128.5t153 51.5v100h38v-101q130 -9 204 -101l-30 -24q-61 83 -175 92v-310q42 -13 65.5 -21.5t57 -26
t52 -36.5t32 -50t13.5 -70zM495 191q0 38 -14 66t-43 47t-55.5 30.5t-69.5 24.5v-335q78 5 130 50.5t52 116.5zM100 560q0 -63 45.5 -95.5t131.5 -58.5v301q-75 -2 -126 -42t-51 -105z" />
    <glyph glyph-name="percent" unicode="%" horiz-adv-x="861" 
d="M120 577q0 -54 38.5 -92.5t91.5 -38.5t91 38.5t38 92.5t-38 92.5t-91 38.5t-91.5 -38.5t-38.5 -92.5zM467 152q0 68 47.5 115.5t115.5 47.5t116 -47.5t48 -115.5q0 -67 -48 -115t-116 -48t-115.5 47.5t-47.5 115.5zM102 0l627 730h49l-627 -730h-49zM501 152
q0 -53 38.5 -92t90.5 -39q53 0 91.5 39t38.5 92q0 54 -38.5 92.5t-91.5 38.5t-91 -38.5t-38 -92.5zM86 577q0 68 48 115.5t116 47.5q67 0 115 -47.5t48 -115.5q0 -67 -48 -115t-115 -48q-68 0 -116 47.5t-48 115.5z" />
    <glyph glyph-name="ampersand" unicode="&#x26;" horiz-adv-x="764" 
d="M656 0l-87 87q-102 -97 -233 -97q-137 0 -209.5 72t-72.5 163q0 76 40 135t110 93q-52 66 -52 130t47.5 110.5t128.5 46.5q52 0 95 -22.5t66 -57.5l-30 -20q-19 30 -54.5 49.5t-76.5 19.5q-63 0 -100.5 -37.5t-37.5 -88.5q0 -45 26 -83t95 -107l259 -259q49 55 78 125
t34 138h-170v34h205v-12q0 -77 -33 -160t-91 -147l113 -112h-50zM336 22q116 0 209 86l-261 261q-49 49 -57 58q-135 -67 -135 -201q0 -78 63 -141t181 -63z" />
    <glyph glyph-name="quotesingle" unicode="'" horiz-adv-x="173" 
d="M94 500h-14q-10 65 -10 146v84h34v-84q0 -81 -10 -146z" />
    <glyph glyph-name="parenleft" unicode="(" horiz-adv-x="407" 
d="M330 -249q-270 185 -270 498q0 314 263 498l28 -29q-252 -170 -252 -468q0 -297 256 -469z" />
    <glyph glyph-name="parenright" unicode=")" horiz-adv-x="407" 
d="M308 250q0 153 -67 271t-185 198l28 28q263 -184 263 -497q0 -312 -270 -499l-25 31q256 172 256 468z" />
    <glyph glyph-name="asterisk" unicode="*" horiz-adv-x="440" 
d="M362 451l-134 89l10 -165h-36l10 165l-138 -91l-18 32l149 73l-149 74l19 31l137 -91l-10 161h36l-10 -162l134 90l19 -31l-145 -72l145 -72z" />
    <glyph glyph-name="plus" unicode="+" horiz-adv-x="478" 
d="M54 349v32h169v168h32v-168h169v-32h-169v-170h-32v170h-169z" />
    <glyph glyph-name="comma" unicode="," horiz-adv-x="179" 
d="M34 -117l47 204h41l-57 -204h-31z" />
    <glyph glyph-name="hyphen" unicode="-" horiz-adv-x="478" 
d="M54 237v33h370v-33h-370z" />
    <glyph glyph-name="period" unicode="." horiz-adv-x="179" 
d="M71 0v137h38v-137h-38z" />
    <glyph glyph-name="slash" unicode="/" horiz-adv-x="444" 
d="M29 0l346 730h40l-346 -730h-40z" />
    <glyph glyph-name="zero" unicode="0" 
d="M294 24q85 0 135.5 51t50.5 143v283q0 95 -50.5 150t-135.5 55q-84 0 -135 -56t-51 -149v-276q0 -94 50.5 -147.5t135.5 -53.5zM294 -10q-103 0 -163 62.5t-60 171.5v277q0 108 61.5 173.5t161.5 65.5t162 -65.5t61 -173.5v-283q0 -109 -60 -168.5t-163 -59.5z" />
    <glyph glyph-name="one" unicode="1" 
d="M54 0v35h219v606q-11 -29 -47 -49t-75 -20h-11v38h5q66 0 97.5 37t31.5 83h36v-695h224v-35h-480z" />
    <glyph glyph-name="two" unicode="2" 
d="M67 0v40q0 33 13 65.5t30 56.5t50 53.5t55.5 46.5t63.5 46q38 27 51 37t44 34.5t43.5 39t30.5 37t24.5 44t6.5 44.5q0 71 -51 117t-132 46q-132 0 -194 -132l-34 18q32 66 90.5 106.5t137.5 40.5q98 0 159.5 -56t61.5 -140q0 -32 -13.5 -64t-29.5 -54t-50.5 -52.5
t-54 -45t-63.5 -46.5q-52 -37 -77 -56.5t-59.5 -52.5t-49 -65t-14.5 -68v-4h421v-36h-460z" />
    <glyph glyph-name="three" unicode="3" 
d="M284 -10q-150 0 -229 94l30 24q31 -37 84 -60.5t116 -23.5q86 0 142.5 47.5t56.5 122.5q0 77 -57.5 122t-143.5 45h-80v35h80q83 0 134.5 43t51.5 114q0 69 -53.5 111.5t-134.5 42.5q-56 0 -105 -24t-76 -56l-30 22q34 38 89.5 64.5t122.5 26.5q98 0 160.5 -51.5
t62.5 -135.5q0 -64 -34.5 -109t-97.5 -65q69 -19 108.5 -66.5t39.5 -118.5q0 -91 -65.5 -147.5t-171.5 -56.5z" />
    <glyph glyph-name="four" unicode="4" 
d="M399 0v188h-343l-4 35l347 507h37v-508h107v-34h-107v-188h-37zM94 222h305v446z" />
    <glyph glyph-name="five" unicode="5" 
d="M285 -10q-71 0 -129.5 28.5t-93.5 79.5l34 22q66 -96 189 -96q89 0 148.5 61t59.5 151q0 100 -63.5 154t-148.5 54q-51 0 -102 -25.5t-72 -61.5l-36 11l57 362h354v-35h-324l-44 -283q29 29 75 47.5t92 18.5q102 0 175.5 -62.5t73.5 -179.5q0 -107 -68 -176.5t-177 -69.5
z" />
    <glyph glyph-name="six" unicode="6" 
d="M295 -10q-102 0 -170 68.5t-68 167.5q0 78 43 140l240 364h45l-197 -297q51 28 109 28q100 0 167 -68t67 -167q0 -100 -67.5 -168t-168.5 -68zM294 24q85 0 142.5 59.5t57.5 142.5t-58.5 142t-142.5 59q-82 0 -140.5 -59t-58.5 -142t57.5 -142.5t142.5 -59.5z" />
    <glyph glyph-name="seven" unicode="7" 
d="M170 0l321 694h-434v36h474v-33l-320 -697h-41z" />
    <glyph glyph-name="eight" unicode="8" 
d="M296 -10q-110 0 -174.5 59t-64.5 149q0 68 39 119.5t109 74.5q-55 21 -85.5 64.5t-30.5 99.5q0 79 57 131.5t147 52.5q91 0 148.5 -53t57.5 -131q0 -55 -31 -98.5t-85 -65.5q70 -23 109 -74t39 -119q0 -90 -64 -149.5t-171 -59.5zM296 24q89 0 143.5 50t54.5 125
q0 73 -54 124t-146 51t-146 -51t-54 -125t55 -124t147 -50zM294 406q77 0 123.5 43t46.5 107q0 65 -47 108t-124 43q-76 0 -122 -43t-46 -108q0 -64 46 -107t123 -43z" />
    <glyph glyph-name="nine" unicode="9" 
d="M248 0h-45l196 296q-51 -27 -109 -27q-97 0 -165 68.5t-68 166.5q0 99 69 167.5t168 68.5q100 0 168.5 -69t68.5 -167q0 -76 -43 -140zM294 303q82 0 141 59t59 142t-59 142.5t-141 59.5t-141 -59.5t-59 -142.5q0 -82 59 -141.5t141 -59.5z" />
    <glyph glyph-name="colon" unicode=":" horiz-adv-x="179" 
d="M71 0v137h37v-137h-37zM71 363v137h37v-137h-37z" />
    <glyph glyph-name="semicolon" unicode=";" horiz-adv-x="179" 
d="M71 363v137h37v-137h-37zM34 -117l47 204h41l-57 -204h-31z" />
    <glyph glyph-name="less" unicode="&#x3c;" horiz-adv-x="478" 
d="M424 203l-370 148v33l370 144v-36l-329 -125l329 -129v-35z" />
    <glyph glyph-name="equal" unicode="=" horiz-adv-x="478" 
d="M54 426v33h370v-33h-370zM54 267v33h370v-33h-370z" />
    <glyph glyph-name="greater" unicode="&#x3e;" horiz-adv-x="478" 
d="M54 203v35l329 129l-329 125v36l370 -144v-33z" />
    <glyph glyph-name="question" unicode="?" horiz-adv-x="532" 
d="M235 191v8q0 71 20.5 120.5t49.5 75.5t57.5 47.5t49 53t20.5 76.5q0 59 -48 97t-119 38q-121 0 -175 -102l-33 15q27 54 80.5 87t127.5 33q88 0 146.5 -46.5t58.5 -121.5q0 -38 -11 -67t-28.5 -48t-39 -35.5t-43 -35t-39 -41.5t-28.5 -60t-11 -86v-8h-35zM234 0v137h38
v-137h-38z" />
    <glyph glyph-name="at" unicode="@" horiz-adv-x="866" 
d="M433 -125q-155 0 -264 109.5t-109 265.5q0 155 113 265t269 110t260.5 -100t104.5 -237q0 -84 -40.5 -147.5t-108.5 -63.5q-91 0 -109 86q-17 -37 -52.5 -62t-86.5 -25q-64 0 -110.5 48t-38.5 132q11 87 61.5 133.5t117.5 46.5q45 0 77 -24t43 -61l9 79h35l-20 -181
q-14 -138 76 -138q49 0 80 51t31 125q0 124 -94 214.5t-235 90.5t-242.5 -100.5t-101.5 -241.5q0 -142 97.5 -242t237.5 -100q146 0 245 106l28 -22q-51 -54 -122.5 -85.5t-150.5 -31.5zM417 109q57 0 91 43t40 106q7 60 -20 102.5t-83 42.5t-97.5 -40t-48.5 -106
q-8 -61 26 -104.5t92 -43.5z" />
    <glyph glyph-name="A" unicode="A" horiz-adv-x="691" 
d="M41 0l285 730h39l285 -730h-39l-88 224h-355l-87 -224h-40zM346 679l-164 -421h328z" />
    <glyph glyph-name="B" unicode="B" horiz-adv-x="647" 
d="M79 0v730h291q86 0 144.5 -53t58.5 -132q0 -58 -31.5 -102.5t-85.5 -63.5q61 -19 97 -68t36 -115q0 -85 -58.5 -140.5t-147.5 -55.5h-304zM382 360h-266v-326h265q73 0 121 47t48 116t-47.5 116t-120.5 47zM368 696h-252v-302h263q67 0 111 43.5t44 107.5t-48 107.5
t-118 43.5z" />
    <glyph glyph-name="C" unicode="C" horiz-adv-x="805" 
d="M430 -10q-155 0 -265 110t-110 265t110 265t265 110q99 0 184 -49t135 -131l-31 -18q-45 75 -120.5 119t-167.5 44q-140 0 -238 -99.5t-98 -240.5t98 -240.5t238 -99.5q96 0 175 47t123 127l33 -17q-50 -88 -137.5 -140t-193.5 -52z" />
    <glyph glyph-name="D" unicode="D" horiz-adv-x="715" 
d="M79 0v730h204q160 0 268.5 -105.5t108.5 -260.5t-109 -259.5t-267 -104.5h-205zM281 695h-165v-660h166q143 0 241 95t98 234q0 141 -97.5 236t-242.5 95z" />
    <glyph glyph-name="E" unicode="E" horiz-adv-x="592" 
d="M79 0v730h449v-35h-412v-312h412v-35h-412v-312h412v-36h-449z" />
    <glyph glyph-name="F" unicode="F" horiz-adv-x="548" 
d="M79 0v730h413v-35h-376v-313h376v-34h-376v-348h-37z" />
    <glyph glyph-name="G" unicode="G" horiz-adv-x="854" 
d="M433 -10q-161 0 -269.5 109t-108.5 266q0 156 110.5 265.5t270.5 109.5q103 0 186.5 -47.5t132.5 -130.5l-31 -19q-43 76 -118.5 119t-170.5 43q-145 0 -243 -99t-98 -241t96.5 -241t242.5 -99q142 0 233 89t99 225h-338v35h376v-10q0 -158 -102.5 -266t-267.5 -108z" />
    <glyph glyph-name="H" unicode="H" horiz-adv-x="691" 
d="M575 0v348h-459v-348h-37v730h37v-347h459v347h37v-730h-37z" />
    <glyph glyph-name="I" unicode="I" horiz-adv-x="214" 
d="M88 0v730h38v-730h-38z" />
    <glyph glyph-name="J" unicode="J" horiz-adv-x="483" 
d="M221 -10q-133 0 -179 104l33 20q38 -90 145 -90q71 0 110.5 44.5t39.5 117.5v544h37v-543q0 -90 -49.5 -143.5t-136.5 -53.5z" />
    <glyph glyph-name="K" unicode="K" horiz-adv-x="653" 
d="M577 0l-282 410l-178 -201v-209h-38v730h38v-471l418 471h47l-260 -294l299 -436h-44z" />
    <glyph glyph-name="L" unicode="L" horiz-adv-x="532" 
d="M79 0v730h37v-694h367v-36h-404z" />
    <glyph glyph-name="M" unicode="M" horiz-adv-x="872" 
d="M79 0v730h37l315 -437l327 437h36v-730h-38v668l-325 -437l-315 434v-665h-37z" />
    <glyph glyph-name="N" unicode="N" horiz-adv-x="745" 
d="M79 0v730h40l510 -672v672h37v-730h-39l-511 672v-672h-37z" />
    <glyph glyph-name="O" unicode="O" horiz-adv-x="861" 
d="M430 -10q-155 0 -265 110t-110 265t110 265t265 110t265 -110t110 -265t-110 -265t-265 -110zM430 25q141 0 239 99.5t98 240.5t-98 240.5t-239 99.5q-140 0 -238 -99.5t-98 -240.5t98 -240.5t238 -99.5z" />
    <glyph glyph-name="P" unicode="P" horiz-adv-x="615" 
d="M79 0v730h213q121 0 194.5 -68.5t73.5 -175.5t-73.5 -176.5t-194.5 -69.5h-176v-240h-37zM290 695h-174v-420h174q106 0 169 59t63 152q0 92 -63 150.5t-169 58.5z" />
    <glyph glyph-name="Q" unicode="Q" horiz-adv-x="861" 
d="M728 0l-251 286h47l143 -162q100 102 100 241q0 141 -98 240.5t-239 99.5q-140 0 -238 -99.5t-98 -240.5t98 -240.5t238 -99.5q88 0 168 49l25 -28q-90 -56 -193 -56q-155 0 -265 110t-110 265t110 265t265 110t265 -110t110 -265q0 -158 -115 -268l86 -97h-48z" />
    <glyph glyph-name="R" unicode="R" horiz-adv-x="587" 
d="M79 0v730h221q97 0 164.5 -65.5t67.5 -158.5q0 -85 -56.5 -148t-143.5 -72l203 -286h-45l-221 315h28q83 0 140 56.5t57 134.5q0 79 -56.5 134t-139.5 55h-182v-695h-37z" />
    <glyph glyph-name="S" unicode="S" horiz-adv-x="552" 
d="M266 -10q-72 0 -132 28.5t-98 76.5l31 24q34 -43 86 -69t113 -26q81 0 137 46.5t56 124.5q0 32 -11.5 57t-27 41t-45 31.5t-50.5 23t-58 19.5q-40 13 -62 21t-54 25t-48.5 35t-29 47t-12.5 65q0 80 60 130t150 50q130 0 204 -91l-30 -22q-58 79 -175 79q-72 0 -122 -40.5
t-50 -105.5q0 -25 6.5 -45.5t22.5 -36.5t29 -26.5t41.5 -22t42.5 -16.5t49 -16q47 -15 77 -28t64 -36.5t50.5 -57.5t16.5 -80q0 -90 -66 -147.5t-165 -57.5z" />
    <glyph glyph-name="T" unicode="T" horiz-adv-x="610" 
d="M286 0v695h-236v35h510v-35h-237v-695h-37z" />
    <glyph glyph-name="U" unicode="U" horiz-adv-x="649" 
d="M324 -10q-105 0 -176.5 72t-71.5 175v493h37v-493q0 -89 61.5 -150.5t149.5 -61.5t150 61.5t62 150.5v493h37v-492q0 -104 -72 -176t-177 -72z" />
    <glyph glyph-name="V" unicode="V" horiz-adv-x="681" 
d="M321 0l-281 730h40l260 -678l261 678h40l-282 -730h-38z" />
    <glyph glyph-name="W" unicode="W" horiz-adv-x="1075" 
d="M265 0l-218 730h41l197 -671l233 671h36l233 -672l201 672h39l-221 -730h-38l-232 670l-233 -670h-38z" />
    <glyph glyph-name="X" unicode="X" horiz-adv-x="650" 
d="M568 0l-244 350l-242 -350h-43l264 378l-242 352h42l223 -321l220 321h44l-243 -350l264 -380h-43z" />
    <glyph glyph-name="Y" unicode="Y" horiz-adv-x="606" 
d="M285 0v348l-248 382h43l223 -346l223 346h43l-247 -382v-348h-37z" />
    <glyph glyph-name="Z" unicode="Z" horiz-adv-x="598" 
d="M55 0v35l440 660h-419v35h464v-34l-441 -660h444v-36h-488z" />
    <glyph glyph-name="bracketleft" unicode="[" horiz-adv-x="381" 
d="M54 -230v960h273v-35h-236v-890h236v-35h-273z" />
    <glyph glyph-name="backslash" unicode="\" horiz-adv-x="444" 
d="M375 0l-346 730h40l346 -730h-40z" />
    <glyph glyph-name="bracketright" unicode="]" horiz-adv-x="381" 
d="M54 -230v34h236v891h-236v35h273v-960h-273z" />
    <glyph glyph-name="asciicircum" unicode="^" horiz-adv-x="507" 
d="M113 500l127 165h24l130 -165h-40l-102 130l-98 -130h-41z" />
    <glyph glyph-name="underscore" unicode="_" horiz-adv-x="511" 
d="M54 -43v33h403v-33h-403z" />
    <glyph glyph-name="grave" unicode="`" horiz-adv-x="507" 
d="M296 573l-135 147h50l123 -147h-38z" />
    <glyph glyph-name="a" unicode="a" horiz-adv-x="641" 
d="M310 -10q-108 0 -183.5 76t-75.5 184t75 184t184 76q71 0 132.5 -38.5t88.5 -104.5v133h36v-500h-36v133q-27 -66 -88.5 -104.5t-132.5 -38.5zM311 24q94 0 158.5 66t64.5 160t-64.5 160t-158.5 66q-93 0 -157.5 -66t-64.5 -160t64.5 -160t157.5 -66z" />
    <glyph glyph-name="b" unicode="b" horiz-adv-x="643" 
d="M333 -10q-71 0 -132 37.5t-89 103.5v-131h-35v730h35v-361q28 66 89 103.5t132 37.5q108 0 183 -76t75 -184t-75 -184t-183 -76zM331 24q93 0 157.5 66t64.5 160t-64.5 160t-157.5 66t-158 -66t-65 -160t65 -160t158 -66z" />
    <glyph glyph-name="c" unicode="c" horiz-adv-x="600" 
d="M312 -10q-110 0 -185.5 76t-75.5 184q0 109 76 184.5t185 75.5q80 0 144 -43t94 -112l-35 -15q-27 62 -80.5 99t-122.5 37q-93 0 -158 -66t-65 -160t65 -160t159 -66q70 0 124 38t80 100l35 -15q-31 -71 -94.5 -114t-145.5 -43z" />
    <glyph glyph-name="d" unicode="d" horiz-adv-x="643" 
d="M310 -10q-108 0 -183.5 76t-75.5 184t75 184t184 76q70 0 131 -37.5t89 -103.5v361h36v-730h-35v133q-27 -66 -88.5 -104.5t-132.5 -38.5zM311 24q94 0 158.5 66t64.5 160t-64.5 160t-158.5 66q-93 0 -157.5 -66t-64.5 -160t64.5 -160t157.5 -66z" />
    <glyph glyph-name="e" unicode="e" horiz-adv-x="619" 
d="M314 -10q-120 0 -191.5 73.5t-71.5 185.5q0 110 74.5 185.5t185.5 75.5t183 -73t72 -183v-17h-479q4 -93 65.5 -153.5t161.5 -60.5q152 0 209 147l32 -15q-67 -165 -241 -165zM311 477q-90 0 -152.5 -59.5t-70.5 -146.5h441q-5 90 -65 148t-153 58z" />
    <glyph glyph-name="f" unicode="f" horiz-adv-x="334" 
d="M34 467v33h85v57q0 103 34.5 138t135.5 35h4v-35q-86 0 -111.5 -25t-25.5 -114v-56h137v-33h-137v-467h-37v467h-85z" />
    <glyph glyph-name="g" unicode="g" horiz-adv-x="642" 
d="M310 -10q-108 0 -183.5 76t-75.5 184t75 184t184 76q71 0 132.5 -38.5t88.5 -104.5v133h36v-490q0 -115 -68.5 -183t-179.5 -68q-176 0 -232 137l35 13q48 -117 197 -117q96 0 154 59t58 159v123q-27 -66 -88.5 -104.5t-132.5 -38.5zM311 24q94 0 158.5 66t64.5 160
t-64.5 160t-158.5 66q-93 0 -157.5 -66t-64.5 -160t64.5 -160t157.5 -66z" />
    <glyph glyph-name="h" unicode="h" horiz-adv-x="610" 
d="M77 0v730h35v-345q24 55 78 90t123 35q102 0 163.5 -61.5t61.5 -167.5v-281h-36v282q0 89 -52 142t-140 53q-83 0 -140 -56t-57 -139v-282h-36z" />
    <glyph glyph-name="i" unicode="i" horiz-adv-x="185" 
d="M74 0v500h37v-500h-37zM74 582v148h37v-148h-37z" />
    <glyph glyph-name="j" unicode="j" horiz-adv-x="186" 
d="M-63 -228v36q85 0 111.5 25t26.5 113v554h37v-555q0 -103 -35.5 -138t-134.5 -35h-5zM75 582v148h37v-148h-37z" />
    <glyph glyph-name="k" unicode="k" horiz-adv-x="513" 
d="M436 0l-201 269l-122 -129v-140h-36v730h36v-545l301 315h47l-200 -208l218 -292h-43z" />
    <glyph glyph-name="l" unicode="l" horiz-adv-x="190" 
d="M77 0v730h36v-730h-36z" />
    <glyph glyph-name="m" unicode="m" horiz-adv-x="1003" 
d="M74 0v500h36v-110q23 54 73.5 87t117.5 33q77 0 129 -36.5t71 -100.5q21 60 77 98.5t130 38.5q101 0 162 -61.5t61 -161.5v-287h-36v289q0 83 -51.5 135t-136.5 52q-81 0 -135.5 -50.5t-54.5 -133.5v-292h-36v298q0 81 -49 129.5t-133 48.5q-82 0 -135 -53.5t-53 -139.5
v-283h-37z" />
    <glyph glyph-name="n" unicode="n" horiz-adv-x="608" 
d="M74 0v500h36v-115q24 55 78 90t123 35q101 0 163 -61.5t62 -167.5v-281h-37v282q0 89 -51.5 141.5t-140.5 52.5q-82 0 -139 -55.5t-57 -138.5v-282h-37z" />
    <glyph glyph-name="o" unicode="o" horiz-adv-x="622" 
d="M311 -10q-108 0 -184 75.5t-76 184.5t76 184.5t184 75.5t184 -75.5t76 -184.5t-76 -184.5t-184 -75.5zM311 24q93 0 157.5 66t64.5 160t-64.5 160t-157.5 66t-157.5 -66t-64.5 -160t64.5 -160t157.5 -66z" />
    <glyph glyph-name="p" unicode="p" horiz-adv-x="640" 
d="M330 -10q-72 0 -132 36t-88 102v-358h-36v730h36v-129q28 65 89 102t131 37q109 0 184 -76t75 -184t-75.5 -184t-183.5 -76zM329 24q93 0 157.5 66t64.5 160t-64.5 160t-157.5 66q-94 0 -159 -66t-65 -160t65 -160t159 -66z" />
    <glyph glyph-name="q" unicode="q" horiz-adv-x="641" 
d="M310 -10q-108 0 -183.5 76t-75.5 184t75 184t184 76q71 0 132.5 -38.5t88.5 -104.5v133h35v-730h-36v359q-27 -66 -87.5 -102.5t-132.5 -36.5zM311 24q94 0 158.5 66t64.5 160t-64.5 160t-158.5 66q-93 0 -157.5 -66t-64.5 -160t64.5 -160t157.5 -66z" />
    <glyph glyph-name="r" unicode="r" horiz-adv-x="376" 
d="M74 0v500h36v-129q21 58 70.5 93.5t117.5 35.5h32v-35h-32q-85 0 -136 -55t-51 -148v-262h-37z" />
    <glyph glyph-name="s" unicode="s" horiz-adv-x="459" 
d="M225 -10q-60 0 -111.5 26t-80.5 66l29 23q26 -37 69.5 -59.5t94.5 -22.5q70 0 108 32.5t38 81.5q0 20 -9.5 36t-20.5 25.5t-36 19.5t-38.5 13.5t-46.5 12.5q-38 10 -61.5 18.5t-49.5 23.5t-39 38t-13 54q0 56 46 94t121 38q108 0 168 -69l-27 -22q-53 59 -141 59
q-60 0 -95.5 -27.5t-35.5 -71.5q0 -19 9 -34.5t19.5 -25t35 -19t37.5 -13t45 -12.5t50 -14.5t44 -17t39.5 -24.5t24 -34t10.5 -48q0 -60 -48 -103.5t-135 -43.5z" />
    <glyph glyph-name="t" unicode="t" horiz-adv-x="335" 
d="M29 467v33h88v115l36 26v-141h137v-33h-137v-293q0 -88 26.5 -114t110.5 -26v-34h-5q-100 0 -134 34.5t-34 138.5v294h-88z" />
    <glyph glyph-name="u" unicode="u" horiz-adv-x="608" 
d="M299 -10q-104 0 -165.5 61t-61.5 168v281h37v-282q0 -89 51.5 -141.5t140.5 -52.5q83 0 140 55.5t57 138.5v282h36v-500h-35v118q-23 -56 -77 -92t-123 -36z" />
    <glyph glyph-name="v" unicode="v" horiz-adv-x="508" 
d="M235 0l-196 500h40l175 -450l175 450h40l-197 -500h-37z" />
    <glyph glyph-name="w" unicode="w" horiz-adv-x="825" 
d="M201 0l-159 500h39l139 -440l178 440h33l170 -443l143 443h39l-165 -500h-33l-172 447l-180 -447h-32z" />
    <glyph glyph-name="x" unicode="x" horiz-adv-x="525" 
d="M34 0l205 256l-194 244h44l173 -217l174 217h44l-196 -244l206 -256h-45l-184 228l-181 -228h-46z" />
    <glyph glyph-name="y" unicode="y" horiz-adv-x="559" 
d="M148 -231l119 259l-228 472h41l206 -430l194 430h40l-332 -731h-40z" />
    <glyph glyph-name="z" unicode="z" horiz-adv-x="538" 
d="M49 0v35l391 431h-377v34h423v-35l-391 -431h394v-34h-440z" />
    <glyph glyph-name="braceleft" unicode="{" horiz-adv-x="408" 
d="M364 -230h-11q-125 0 -172.5 47t-47.5 170v135q0 63 -17 86t-77 23v37q60 0 77 22.5t17 85.5v137q0 123 47.5 170t172.5 47h11v-34q-116 0 -155 -38t-39 -146v-137q0 -55 -14 -84.5t-49 -41.5q36 -11 49.5 -41t13.5 -85v-135q0 -108 39 -146t155 -38v-34z" />
    <glyph glyph-name="bar" unicode="|" horiz-adv-x="178" 
d="M71 -230v960h37v-960h-37z" />
    <glyph glyph-name="braceright" unicode="}" horiz-adv-x="408" 
d="M44 -230v35q116 0 155 37.5t39 145.5v135q0 55 13 85t50 41q-35 12 -49 41.5t-14 84.5v137q0 108 -39 145.5t-155 37.5v35h11q125 0 172.5 -47t47.5 -170v-137q0 -63 17 -85.5t77 -22.5v-37q-60 0 -77 -23t-17 -86v-135q0 -123 -47.5 -170t-172.5 -47h-11z" />
    <glyph glyph-name="asciitilde" unicode="~" horiz-adv-x="437" 
d="M65 556q5 39 28 62.5t57 23.5q32 0 79 -28q49 -30 71 -30q47 0 56 52h30q-4 -40 -26 -63t-59 -23q-13 0 -27.5 4t-20.5 6.5t-23 13.5l-18 10q-36 24 -62 24q-41 0 -50 -52h-35z" />
    <glyph glyph-name="exclamdown" unicode="&#xa1;" horiz-adv-x="245" 
d="M105 -230v117q0 228 7 408h23q8 -205 8 -408v-117h-38zM105 363v137h38v-137h-38z" />
    <glyph glyph-name="cent" unicode="&#xa2;" 
d="M281 -130v121q-98 6 -159 74t-61 184q0 118 61 186t159 74v121h37v-121q74 -4 129.5 -45t77.5 -114l-34 -15q-20 69 -71 105t-120 36q-88 0 -145 -59.5t-57 -167.5q0 -107 57 -166t147 -59q70 0 120.5 37t69.5 106l35 -14q-22 -75 -77 -116.5t-132 -45.5v-121h-37z" />
    <glyph glyph-name="sterling" unicode="&#xa3;" 
d="M91 331v31h96q-25 39 -37 61.5t-24.5 60.5t-12.5 75q0 80 52 130.5t136 50.5q66 0 116 -30.5t75 -82.5l-34 -19q-47 97 -158 97q-68 0 -108.5 -41t-40.5 -106q0 -12 1 -23.5t4.5 -24t6 -21.5t8.5 -23t9 -20.5t11.5 -21.5t11 -20t12.5 -21.5t12 -20.5h199v-31h-181
q52 -95 52 -172q0 -36 -11 -69q29 -22 45 -33t41.5 -22t47.5 -11q64 0 64 72v40h37v-40q0 -106 -103 -106q-25 0 -53 11.5t-46 23.5t-46 34q-39 -69 -120 -69q-47 0 -73 22.5t-26 60.5q0 36 25.5 59t66.5 23q47 0 113 -45q5 23 5 48q0 78 -58 173h-115zM153 20q68 0 95 58
q-62 45 -101 45q-27 0 -42.5 -14.5t-15.5 -37.5t16.5 -37t47.5 -14z" />
    <glyph glyph-name="currency" unicode="&#xa4;" horiz-adv-x="773" 
d="M392 102q-98 0 -170 62l-94 -97l-24 23l94 97q-66 74 -66 175q0 100 66 174l-93 97l23 23l93 -98q72 64 171 64q96 0 168 -61l86 90l24 -22l-87 -91q69 -74 69 -176q0 -103 -69 -177l85 -88l-22 -24l-87 89q-71 -60 -167 -60zM392 136q93 0 157.5 66t64.5 160t-64.5 160
t-157.5 66t-158 -66t-65 -160t65 -160t158 -66z" />
    <glyph glyph-name="yen" unicode="&#xa5;" 
d="M105 367v32h174v4l-212 327h43l187 -292l188 292h43l-211 -326v-5h171v-32h-171v-132h171v-32h-171v-203h-38v203h-174v32h174v132h-174z" />
    <glyph glyph-name="brokenbar" unicode="&#xa6;" horiz-adv-x="192" 
d="M71 310v420h37v-420h-37zM71 -230v420h37v-420h-37z" />
    <glyph glyph-name="section" unicode="&#xa7;" horiz-adv-x="607" 
d="M305 -10q-106 0 -161 46t-58 113l38 6q2 -58 47 -96t134 -38q67 0 118.5 29.5t51.5 87.5q0 22 -10 38.5t-24 27t-41.5 19.5t-49 14t-60.5 12q-54 10 -87 19t-68 24.5t-52 39t-17 55.5q0 37 24 67.5t67 45.5q-58 34 -58 96q0 69 55 106.5t139 37.5q102 0 154.5 -44
t54.5 -109l-36 -6q-2 58 -44.5 93.5t-128.5 35.5q-64 0 -111 -28t-47 -85q0 -50 44 -72.5t136 -39.5q54 -10 86.5 -18.5t66.5 -24t50 -38t16 -54.5q0 -36 -23 -67t-63 -46q63 -32 63 -98q0 -69 -60 -109t-146 -40zM311 277q62 -12 102 -25q42 13 64 38.5t21 57.5
q0 18 -7.5 32t-25 25t-31 17.5t-44 14t-45 10.5t-51.5 10q-68 12 -105 27q-41 -10 -64 -36t-23 -58q0 -18 8 -33t25.5 -26t32.5 -18.5t44.5 -15t46.5 -11t52 -9.5z" />
    <glyph glyph-name="dieresis" unicode="&#xa8;" horiz-adv-x="509" 
d="M278 575v140h36v-140h-36zM178 575v140h36v-140h-36z" />
    <glyph glyph-name="copyright" unicode="&#xa9;" horiz-adv-x="869" 
d="M435 -10q-155 0 -265 110t-110 265t110 265t265 110t265 -110t110 -265t-110 -265t-265 -110zM435 24q141 0 239.5 100t98.5 241t-98.5 241t-239.5 100t-239.5 -100t-98.5 -241t98.5 -241t239.5 -100zM438 167q-82 0 -139.5 58t-57.5 139q0 82 57.5 139.5t139.5 57.5
q53 0 98 -25t71 -67l-32 -21q-21 35 -57.5 56.5t-79.5 21.5q-67 0 -114 -47.5t-47 -114.5t47 -114t114 -47q46 0 83.5 23.5t57.5 61.5l33 -19q-26 -46 -72.5 -74t-101.5 -28z" />
    <glyph glyph-name="ordfeminine" unicode="&#xaa;" horiz-adv-x="425" 
d="M215 435q-59 0 -103 43t-44 107q0 65 44 108t103 43q39 0 71.5 -18.5t50.5 -50.5v63h30v-289h-30v63q-17 -32 -50 -50.5t-72 -18.5zM220 464q51 0 85 35t34 86t-34 86.5t-85 35.5t-86.5 -35t-35.5 -87q0 -50 35.5 -85.5t86.5 -35.5z" />
    <glyph glyph-name="guillemotleft" unicode="&#xab;" horiz-adv-x="437" 
d="M368 119l-148 118v25l148 118v-33l-123 -98l123 -98v-32zM217 119l-147 118v25l147 118v-33l-122 -98l122 -98v-32z" />
    <glyph glyph-name="logicalnot" unicode="&#xac;" horiz-adv-x="603" 
d="M521 200v259h-482v36h519v-295h-37z" />
    <glyph glyph-name="uni00AD" unicode="&#xad;" horiz-adv-x="478" 
d="M54 237v33h370v-33h-370z" />
    <glyph glyph-name="registered" unicode="&#xae;" horiz-adv-x="420" 
d="M210 430q-64 0 -109.5 45.5t-45.5 109.5t45.5 109.5t109.5 45.5t109.5 -45.5t45.5 -109.5t-45.5 -109.5t-109.5 -45.5zM210 454q54 0 92 38.5t38 92.5t-38 92.5t-92 38.5t-92 -38.5t-38 -92.5t38 -92.5t92 -38.5zM156 510v154h64q24 0 39 -13.5t15 -34.5q0 -42 -38 -48
l40 -58h-30l-52 78h15q40 0 40 27q0 26 -39 26h-30v-131h-24z" />
    <glyph glyph-name="macron" unicode="&#xaf;" horiz-adv-x="507" 
d="M122 573v32h264v-32h-264z" />
    <glyph glyph-name="degree" unicode="&#xb0;" horiz-adv-x="436" 
d="M218 550q-39 0 -67 28t-28 67q0 40 28 67.5t67 27.5t67 -27.5t28 -67.5q0 -39 -28 -67t-67 -28zM218 581q26 0 44.5 18.5t18.5 44.5t-18.5 44.5t-44.5 18.5t-44.5 -18.5t-18.5 -44.5t18.5 -44.5t44.5 -18.5z" />
    <glyph glyph-name="plusminus" unicode="&#xb1;" horiz-adv-x="478" 
d="M54 443v33h169v167h32v-167h169v-33h-169v-170h-32v170h-169zM54 134v33h370v-33h-370z" />
    <glyph glyph-name="twosuperior" unicode="&#xb2;" horiz-adv-x="350" 
d="M44 308v35q0 31 21 61.5t42.5 47.5t60.5 44q38 27 55 40t35 37.5t18 48.5q0 37 -27 60.5t-71 23.5q-36 0 -64 -19t-43 -51l-30 15q41 85 137 85q59 0 95.5 -32.5t36.5 -82.5q0 -30 -20 -59.5t-39.5 -45t-59.5 -44.5q-37 -25 -56 -39.5t-37.5 -39.5t-18.5 -50v-3h233v-32
h-268z" />
    <glyph glyph-name="threesuperior" unicode="&#xb3;" horiz-adv-x="338" 
d="M164 302q-85 0 -132 55l29 22q35 -46 103 -46q45 0 74.5 25.5t29.5 65.5t-30 63.5t-76 23.5h-39v32h39q44 0 70.5 23t26.5 59t-26.5 58.5t-70.5 22.5q-31 0 -56.5 -13.5t-38.5 -32.5l-28 18q18 24 50.5 41t72.5 17q59 0 94.5 -30t35.5 -80q0 -72 -67 -99q77 -27 77 -103
q0 -54 -38 -88t-100 -34z" />
    <glyph glyph-name="acute" unicode="&#xb4;" horiz-adv-x="507" 
d="M161 573l123 147h50l-135 -147h-38z" />
    <glyph glyph-name="mu" unicode="&#xb5;" horiz-adv-x="611" 
d="M74 -230v730h37v-280q0 -86 55.5 -141t138.5 -55q82 0 138.5 55.5t56.5 138.5v282h36v-500h-35v116q-24 -56 -77 -91t-122 -35q-64 0 -114 30.5t-77 79.5v-330h-37z" />
    <glyph glyph-name="mu" unicode="&#x3bc;" horiz-adv-x="611" 
d="M74 -230v730h37v-280q0 -86 55.5 -141t138.5 -55q82 0 138.5 55.5t56.5 138.5v282h36v-500h-35v116q-24 -56 -77 -91t-122 -35q-64 0 -114 30.5t-77 79.5v-330h-37z" />
    <glyph glyph-name="paragraph" unicode="&#xb6;" horiz-adv-x="547" 
d="M347 0v302h-91q-93 0 -155 62t-62 152t62 152t154 62h222v-730h-35v697h-60v-697h-35z" />
    <glyph glyph-name="periodcentered" unicode="&#xb7;" horiz-adv-x="179" 
d="M71 181v137h38v-137h-38z" />
    <glyph glyph-name="cedilla" unicode="&#xb8;" horiz-adv-x="507" 
d="M254 -221q-79 0 -131 52l30 19q47 -42 101 -42q41 0 67.5 17t26.5 43q0 24 -26.5 38.5t-70.5 14.5h-23v79h31v-55q56 0 90.5 -21t34.5 -55q0 -39 -36.5 -64.5t-93.5 -25.5z" />
    <glyph glyph-name="onesuperior" unicode="&#xb9;" horiz-adv-x="278" 
d="M41 308v32h85v325q-7 -16 -27.5 -27.5t-42.5 -11.5h-7v35h3q38 0 56.5 21t18.5 48h33v-390h82v-32h-201z" />
    <glyph glyph-name="ordmasculine" unicode="&#xba;" horiz-adv-x="436" 
d="M218 435q-62 0 -106 44t-44 106q0 63 44 107t106 44q63 0 106.5 -44t43.5 -107q0 -62 -43.5 -106t-106.5 -44zM218 465q50 0 84.5 35t34.5 85q0 51 -34.5 86.5t-84.5 35.5t-85 -36t-35 -86t35 -85t85 -35z" />
    <glyph glyph-name="guillemotright" unicode="&#xbb;" horiz-adv-x="437" 
d="M220 119v32l122 98l-122 99v33l148 -118v-26zM70 119v32l121 98l-121 99v33l147 -118v-26z" />
    <glyph glyph-name="onequarter" unicode="&#xbc;" horiz-adv-x="754" 
d="M611 0v97h-206v31l205 294h34v-294h62v-31h-62v-97h-33zM101 0l527 730h44l-527 -730h-44zM41 308v32h85v325q-7 -16 -27.5 -27.5t-42.5 -11.5h-7v35h3q38 0 56.5 21t18.5 48h33v-390h82v-32h-201zM442 128h169v241z" />
    <glyph glyph-name="onehalf" unicode="&#xbd;" horiz-adv-x="816" 
d="M101 0l527 730h44l-527 -730h-44zM508 0v35q0 31 21 61.5t42.5 47.5t60.5 44q38 27 55 40t35 37.5t18 48.5q0 37 -27 60.5t-71 23.5q-36 0 -64 -19t-43 -51l-30 15q41 85 137 85q59 0 95.5 -32.5t36.5 -82.5q0 -30 -20 -59.5t-39.5 -45t-59.5 -44.5q-37 -25 -56 -39.5
t-37.5 -39.5t-18.5 -50v-3h233v-32h-268zM41 308v32h85v325q-7 -16 -27.5 -27.5t-42.5 -11.5h-7v35h3q38 0 56.5 21t18.5 48h33v-390h82v-32h-201z" />
    <glyph glyph-name="threequarters" unicode="&#xbe;" horiz-adv-x="816" 
d="M672 0v97h-206v31l205 294h34v-294h62v-31h-62v-97h-33zM163 0l527 730h44l-527 -730h-44zM164 302q-85 0 -132 55l29 22q35 -46 103 -46q45 0 74.5 25.5t29.5 65.5t-30 63.5t-76 23.5h-39v32h39q44 0 70.5 23t26.5 59t-26.5 58.5t-70.5 22.5q-31 0 -56.5 -13.5
t-38.5 -32.5l-28 18q18 24 50.5 41t72.5 17q59 0 94.5 -30t35.5 -80q0 -72 -67 -99q77 -27 77 -103q0 -54 -38 -88t-100 -34zM503 128h169v241z" />
    <glyph glyph-name="questiondown" unicode="&#xbf;" horiz-adv-x="532" 
d="M262 -240q-88 0 -146.5 46.5t-58.5 121.5q0 38 11 67t28.5 48t39 35.5t43 35t39 41.5t28.5 60t11 86v8h36v-8q0 -60 -14.5 -105t-36.5 -69t-48 -47t-48 -39.5t-36.5 -45.5t-14.5 -67q0 -59 48.5 -97t119.5 -38q121 0 174 102l33 -15q-27 -54 -80.5 -87t-127.5 -33z
M256 363v137h38v-137h-38z" />
    <glyph glyph-name="Agrave" unicode="&#xc0;" horiz-adv-x="691" 
d="M41 0l285 730h39l285 -730h-39l-88 224h-355l-87 -224h-40zM346 679l-164 -421h328zM324 803l-135 147h50l123 -147h-38z" />
    <glyph glyph-name="Aacute" unicode="&#xc1;" horiz-adv-x="691" 
d="M41 0l285 730h39l285 -730h-39l-88 224h-355l-87 -224h-40zM346 679l-164 -421h328zM323 803l123 147h50l-135 -147h-38z" />
    <glyph glyph-name="Acircumflex" unicode="&#xc2;" horiz-adv-x="691" 
d="M41 0l285 730h39l285 -730h-39l-88 224h-355l-87 -224h-40zM346 679l-164 -421h328zM207 803l119 147h32l119 -147h-40l-95 117l-94 -117h-41z" />
    <glyph glyph-name="Atilde" unicode="&#xc3;" horiz-adv-x="691" 
d="M41 0l285 730h39l285 -730h-39l-88 224h-355l-87 -224h-40zM346 679l-164 -421h328zM167 803q0 43 24.5 69.5t63.5 26.5q33 0 89 -34t83 -34q59 0 59 65h32q0 -46 -24.5 -71.5t-67.5 -25.5q-37 0 -95 35q-51 32 -76 32t-41 -16.5t-16 -46.5h-31z" />
    <glyph glyph-name="Adieresis" unicode="&#xc4;" horiz-adv-x="691" 
d="M41 0l285 730h39l285 -730h-39l-88 224h-355l-87 -224h-40zM346 679l-164 -421h328zM376 805v140h36v-140h-36zM276 805v140h36v-140h-36z" />
    <glyph glyph-name="Aring" unicode="&#xc5;" horiz-adv-x="691" 
d="M41 0l275 705q-28 8 -46 32.5t-18 54.5q0 39 27 66t64 27q39 0 66 -26.5t27 -66.5q0 -29 -17.5 -52.5t-44.5 -33.5l276 -706h-39l-88 224h-355l-87 -224h-40zM346 679l-164 -421h328zM343 732q25 0 43.5 18t18.5 42q0 26 -18.5 44.5t-43.5 18.5q-24 0 -42 -19t-18 -44
q0 -24 18 -42t42 -18z" />
    <glyph glyph-name="AE" unicode="&#xc6;" horiz-adv-x="1049" 
d="M35 0l393 730h547v-35h-498l66 -312h432v-35h-424l66 -312h358v-36h-386l-47 217h-348l-117 -217h-42zM443 680l-231 -429h323z" />
    <glyph glyph-name="Ccedilla" unicode="&#xc7;" horiz-adv-x="805" 
d="M435 -221q-79 0 -131 52l30 19q47 -42 101 -42q41 0 67.5 17t26.5 43q0 24 -26.5 38.5t-70.5 14.5h-23v70q-148 8 -251 116t-103 258q0 155 110 265t265 110q99 0 184 -49t135 -131l-31 -18q-45 75 -120.5 119t-167.5 44q-140 0 -238 -99.5t-98 -240.5t98 -240.5
t238 -99.5q96 0 175 47t123 127l33 -17q-49 -86 -133.5 -137.5t-187.5 -54.5v-45q56 0 90.5 -21t34.5 -55q0 -39 -36.5 -64.5t-93.5 -25.5z" />
    <glyph glyph-name="Egrave" unicode="&#xc8;" horiz-adv-x="598" 
d="M79 0v730h449v-35h-412v-312h412v-35h-412v-312h412v-36h-449zM295 803l-135 147h50l123 -147h-38z" />
    <glyph glyph-name="Eacute" unicode="&#xc9;" horiz-adv-x="598" 
d="M79 0v730h449v-35h-412v-312h412v-35h-412v-312h412v-36h-449zM269 803l123 147h50l-135 -147h-38z" />
    <glyph glyph-name="Ecircumflex" unicode="&#xca;" horiz-adv-x="598" 
d="M79 0v730h449v-35h-412v-312h412v-35h-412v-312h412v-36h-449zM166 803l119 147h32l119 -147h-40l-95 117l-94 -117h-41z" />
    <glyph glyph-name="Edieresis" unicode="&#xcb;" horiz-adv-x="598" 
d="M79 0v730h449v-35h-412v-312h412v-35h-412v-312h412v-36h-449zM235 805v140h36v-140h-36zM335 805v140h36v-140h-36z" />
    <glyph glyph-name="Igrave" unicode="&#xcc;" horiz-adv-x="214" 
d="M88 0v730h38v-730h-38zM89 803l-135 147h50l123 -147h-38z" />
    <glyph glyph-name="Iacute" unicode="&#xcd;" horiz-adv-x="214" 
d="M88 0v730h38v-730h-38zM87 803l123 147h50l-135 -147h-38z" />
    <glyph glyph-name="Icircumflex" unicode="&#xce;" horiz-adv-x="214" 
d="M88 0v730h38v-730h-38zM-29 803l119 147h32l119 -147h-40l-95 117l-94 -117h-41z" />
    <glyph glyph-name="Idieresis" unicode="&#xcf;" horiz-adv-x="214" 
d="M190 805v140h35v-140h-35zM-11 805v140h35v-140h-35zM88 0v730h38v-730h-38z" />
    <glyph glyph-name="Eth" unicode="&#xd0;" horiz-adv-x="731" 
d="M22 355v35h73v340h204q160 0 268 -105.5t108 -260.5t-109 -259.5t-266 -104.5h-205v355h-73zM296 695h-164v-305h248v-35h-248v-320h165q143 0 241.5 95t98.5 234q0 140 -98 235.5t-243 95.5z" />
    <glyph glyph-name="Ntilde" unicode="&#xd1;" horiz-adv-x="745" 
d="M79 0v730h40l510 -672v672h37v-730h-39l-511 672v-672h-37zM199 803q0 43 24.5 69.5t63.5 26.5q33 0 89 -34t83 -34q59 0 59 65h32q0 -46 -24.5 -71.5t-67.5 -25.5q-37 0 -95 35q-51 32 -76 32t-41 -16.5t-16 -46.5h-31z" />
    <glyph glyph-name="Ograve" unicode="&#xd2;" horiz-adv-x="861" 
d="M430 -10q-155 0 -265 110t-110 265t110 265t265 110t265 -110t110 -265t-110 -265t-265 -110zM430 25q141 0 239 99.5t98 240.5t-98 240.5t-239 99.5q-140 0 -238 -99.5t-98 -240.5t98 -240.5t238 -99.5zM409 803l-135 147h50l123 -147h-38z" />
    <glyph glyph-name="Oacute" unicode="&#xd3;" horiz-adv-x="861" 
d="M400 803l123 147h50l-135 -147h-38zM430 -10q-155 0 -265 110t-110 265t110 265t265 110t265 -110t110 -265t-110 -265t-265 -110zM430 25q141 0 239 99.5t98 240.5t-98 240.5t-239 99.5q-140 0 -238 -99.5t-98 -240.5t98 -240.5t238 -99.5z" />
    <glyph glyph-name="Ocircumflex" unicode="&#xd4;" horiz-adv-x="861" 
d="M430 -10q-155 0 -265 110t-110 265t110 265t265 110t265 -110t110 -265t-110 -265t-265 -110zM430 25q141 0 239 99.5t98 240.5t-98 240.5t-239 99.5q-140 0 -238 -99.5t-98 -240.5t98 -240.5t238 -99.5zM291 803l119 147h32l119 -147h-40l-95 117l-94 -117h-41z" />
    <glyph glyph-name="Otilde" unicode="&#xd5;" horiz-adv-x="861" 
d="M430 -10q-155 0 -265 110t-110 265t110 265t265 110t265 -110t110 -265t-110 -265t-265 -110zM430 25q141 0 239 99.5t98 240.5t-98 240.5t-239 99.5q-140 0 -238 -99.5t-98 -240.5t98 -240.5t238 -99.5zM250 803q0 43 24.5 69.5t63.5 26.5q33 0 89 -34t83 -34
q59 0 59 65h32q0 -46 -24.5 -71.5t-67.5 -25.5q-37 0 -95 35q-51 32 -76 32t-41 -16.5t-16 -46.5h-31z" />
    <glyph glyph-name="Odieresis" unicode="&#xd6;" horiz-adv-x="861" 
d="M460 805v140h36v-140h-36zM360 805v140h36v-140h-36zM430 -10q-155 0 -265 110t-110 265t110 265t265 110t265 -110t110 -265t-110 -265t-265 -110zM430 25q141 0 239 99.5t98 240.5t-98 240.5t-239 99.5q-140 0 -238 -99.5t-98 -240.5t98 -240.5t238 -99.5z" />
    <glyph glyph-name="multiply" unicode="&#xd7;" horiz-adv-x="478" 
d="M106 208l-23 23l134 134l-134 134l23 23l134 -134l133 133l23 -23l-133 -133l133 -133l-23 -23l-133 133z" />
    <glyph glyph-name="Oslash" unicode="&#xd8;" horiz-adv-x="861" 
d="M140 0l54 73q-65 53 -102 129t-37 163q0 155 110 265t265 110q114 0 208 -63l39 53h45l-55 -75q64 -53 101 -128.5t37 -161.5q0 -155 -110 -265t-265 -110q-112 0 -207 62l-38 -52h-45zM94 365q0 -78 32.5 -146.5t88.5 -115.5l402 545q-85 57 -187 57q-140 0 -238 -99.5
t-98 -240.5zM430 25q141 0 239 99.5t98 240.5q0 77 -32 145.5t-89 115.5l-401 -545q85 -56 185 -56z" />
    <glyph glyph-name="Ugrave" unicode="&#xd9;" horiz-adv-x="649" 
d="M324 -10q-105 0 -176.5 72t-71.5 175v493h37v-493q0 -89 61.5 -150.5t149.5 -61.5t150 61.5t62 150.5v493h37v-492q0 -104 -72 -176t-177 -72zM310 803l-135 147h50l123 -147h-38z" />
    <glyph glyph-name="Uacute" unicode="&#xda;" horiz-adv-x="649" 
d="M293 803l123 147h50l-135 -147h-38zM324 -10q-105 0 -176.5 72t-71.5 175v493h37v-493q0 -89 61.5 -150.5t149.5 -61.5t150 61.5t62 150.5v493h37v-492q0 -104 -72 -176t-177 -72z" />
    <glyph glyph-name="Ucircumflex" unicode="&#xdb;" horiz-adv-x="649" 
d="M324 -10q-105 0 -176.5 72t-71.5 175v493h37v-493q0 -89 61.5 -150.5t149.5 -61.5t150 61.5t62 150.5v493h37v-492q0 -104 -72 -176t-177 -72zM187 803l119 147h32l119 -147h-40l-95 117l-94 -117h-41z" />
    <glyph glyph-name="Udieresis" unicode="&#xdc;" horiz-adv-x="649" 
d="M356 805v140h36v-140h-36zM256 805v140h36v-140h-36zM324 -10q-105 0 -176.5 72t-71.5 175v493h37v-493q0 -89 61.5 -150.5t149.5 -61.5t150 61.5t62 150.5v493h37v-492q0 -104 -72 -176t-177 -72z" />
    <glyph glyph-name="Yacute" unicode="&#xdd;" horiz-adv-x="606" 
d="M285 0v348l-248 382h43l223 -346l223 346h43l-247 -382v-348h-37zM279 803l123 147h50l-135 -147h-38z" />
    <glyph glyph-name="Thorn" unicode="&#xde;" horiz-adv-x="573" 
d="M74 0v730h37v-154h169q103 0 166 -57t63 -148t-62.5 -149t-166.5 -58h-169v-164h-37zM278 541h-167v-342h167q88 0 140 48t52 124q0 75 -52 122.5t-140 47.5z" />
    <glyph glyph-name="germandbls" unicode="&#xdf;" horiz-adv-x="548" 
d="M-53 -230v35q69 0 98.5 35.5t29.5 108.5v601q-1 82 52.5 135.5t135.5 53.5t135.5 -53t53.5 -132q0 -57 -29.5 -100.5t-78.5 -64.5q70 -18 111 -68.5t41 -121.5q0 -89 -57 -147.5t-146 -58.5q-61 0 -107 26l6 34q43 -26 101 -26q69 0 117.5 50t48.5 121q0 72 -51.5 121
t-132.5 49h-16v34h16q55 0 97.5 44t42.5 109q0 62 -44 107t-108 45q-63 0 -108 -43t-45 -110v-603q0 -92 -37.5 -136.5t-118.5 -44.5h-7z" />
    <glyph glyph-name="agrave" unicode="&#xe0;" horiz-adv-x="641" 
d="M310 -10q-108 0 -183.5 76t-75.5 184t75 184t184 76q71 0 132.5 -38.5t88.5 -104.5v133h36v-500h-36v133q-27 -66 -88.5 -104.5t-132.5 -38.5zM311 24q94 0 158.5 66t64.5 160t-64.5 160t-158.5 66q-93 0 -157.5 -66t-64.5 -160t64.5 -160t157.5 -66zM296 573l-135 147
h50l123 -147h-38z" />
    <glyph glyph-name="aacute" unicode="&#xe1;" horiz-adv-x="641" 
d="M310 -10q-108 0 -183.5 76t-75.5 184t75 184t184 76q71 0 132.5 -38.5t88.5 -104.5v133h36v-500h-36v133q-27 -66 -88.5 -104.5t-132.5 -38.5zM311 24q94 0 158.5 66t64.5 160t-64.5 160t-158.5 66q-93 0 -157.5 -66t-64.5 -160t64.5 -160t157.5 -66zM285 573l123 147h50
l-135 -147h-38z" />
    <glyph glyph-name="acircumflex" unicode="&#xe2;" horiz-adv-x="641" 
d="M310 -10q-108 0 -183.5 76t-75.5 184t75 184t184 76q71 0 132.5 -38.5t88.5 -104.5v133h36v-500h-36v133q-27 -66 -88.5 -104.5t-132.5 -38.5zM311 24q94 0 158.5 66t64.5 160t-64.5 160t-158.5 66q-93 0 -157.5 -66t-64.5 -160t64.5 -160t157.5 -66zM183 573l119 147h32
l119 -147h-40l-95 117l-94 -117h-41z" />
    <glyph glyph-name="atilde" unicode="&#xe3;" horiz-adv-x="641" 
d="M310 -10q-108 0 -183.5 76t-75.5 184t75 184t184 76q71 0 132.5 -38.5t88.5 -104.5v133h36v-500h-36v133q-27 -66 -88.5 -104.5t-132.5 -38.5zM311 24q94 0 158.5 66t64.5 160t-64.5 160t-158.5 66q-93 0 -157.5 -66t-64.5 -160t64.5 -160t157.5 -66zM152 573
q0 43 24.5 69.5t63.5 26.5q33 0 89 -34t83 -34q59 0 59 65h32q0 -46 -24.5 -71.5t-67.5 -25.5q-37 0 -95 35q-51 32 -76 32t-41 -16.5t-16 -46.5h-31z" />
    <glyph glyph-name="adieresis" unicode="&#xe4;" horiz-adv-x="641" 
d="M310 -10q-108 0 -183.5 76t-75.5 184t75 184t184 76q71 0 132.5 -38.5t88.5 -104.5v133h36v-500h-36v133q-27 -66 -88.5 -104.5t-132.5 -38.5zM311 24q94 0 158.5 66t64.5 160t-64.5 160t-158.5 66q-93 0 -157.5 -66t-64.5 -160t64.5 -160t157.5 -66zM349 575v140h36
v-140h-36zM249 575v140h36v-140h-36z" />
    <glyph glyph-name="aring" unicode="&#xe5;" horiz-adv-x="641" 
d="M310 -10q-108 0 -183.5 76t-75.5 184t75 184t184 76q71 0 132.5 -38.5t88.5 -104.5v133h36v-500h-36v133q-27 -66 -88.5 -104.5t-132.5 -38.5zM311 24q94 0 158.5 66t64.5 160t-64.5 160t-158.5 66q-93 0 -157.5 -66t-64.5 -160t64.5 -160t157.5 -66zM313 564
q-37 0 -64 27t-27 64q0 39 27 66t64 27q39 0 66 -26.5t27 -66.5q0 -37 -27 -64t-66 -27zM313 595q25 0 43.5 18t18.5 42q0 26 -18.5 44.5t-43.5 18.5q-24 0 -42 -19t-18 -44q0 -24 18 -42t42 -18z" />
    <glyph glyph-name="ae" unicode="&#xe6;" horiz-adv-x="989" 
d="M680 -10q-77 0 -137 35t-93 96q-27 -52 -86 -91.5t-139 -39.5q-88 0 -128.5 37t-41.5 95q-1 68 49.5 101.5t142.5 51.5q106 21 132 32q52 22 52 64q0 50 -40 79t-119 29q-80 0 -126.5 -39t-46.5 -103v-3h-35v2q0 79 56.5 126.5t150.5 47.5q82 0 131 -30t60 -84
q35 53 92 83.5t125 30.5q110 0 183.5 -73.5t73.5 -183.5v-11h-482q2 -93 66.5 -156t159.5 -63q80 0 138 44.5t77 117.5l34 -13q-23 -82 -90 -132t-159 -50zM679 477q-88 0 -151 -58t-73 -144h443q-8 88 -69 145t-150 57zM226 21q75 0 129.5 40.5t79.5 94.5q-16 42 -16 93
q0 32 5 53q-12 -15 -38.5 -25.5t-47.5 -15t-79 -15.5q-84 -16 -125.5 -41.5t-41.5 -81.5q0 -45 32.5 -73.5t101.5 -28.5z" />
    <glyph glyph-name="ccedilla" unicode="&#xe7;" horiz-adv-x="600" 
d="M316 -221q-79 0 -131 52l30 19q47 -42 101 -42q41 0 67.5 17t26.5 43q0 24 -26.5 38.5t-70.5 14.5h-23v70q-103 8 -171 82t-68 177q0 109 76 184.5t185 75.5q80 0 144 -43t94 -112l-35 -15q-27 62 -80.5 99t-122.5 37q-93 0 -158 -66t-65 -160t65 -160t159 -66
q70 0 124 38t80 100l35 -15q-30 -69 -91 -111.5t-140 -45.5v-45q56 0 90.5 -21t34.5 -55q0 -39 -36.5 -64.5t-93.5 -25.5z" />
    <glyph glyph-name="egrave" unicode="&#xe8;" horiz-adv-x="619" 
d="M314 -10q-120 0 -191.5 73.5t-71.5 185.5q0 110 74.5 185.5t185.5 75.5t183 -73t72 -183v-17h-479q4 -93 65.5 -153.5t161.5 -60.5q152 0 209 147l32 -15q-67 -165 -241 -165zM311 477q-90 0 -152.5 -59.5t-70.5 -146.5h441q-5 90 -65 148t-153 58zM293 573l-135 147h50
l123 -147h-38z" />
    <glyph glyph-name="eacute" unicode="&#xe9;" horiz-adv-x="619" 
d="M314 -10q-120 0 -191.5 73.5t-71.5 185.5q0 110 74.5 185.5t185.5 75.5t183 -73t72 -183v-17h-479q4 -93 65.5 -153.5t161.5 -60.5q152 0 209 147l32 -15q-67 -165 -241 -165zM311 477q-90 0 -152.5 -59.5t-70.5 -146.5h441q-5 90 -65 148t-153 58zM283 573l123 147h50
l-135 -147h-38z" />
    <glyph glyph-name="ecircumflex" unicode="&#xea;" horiz-adv-x="619" 
d="M314 -10q-120 0 -191.5 73.5t-71.5 185.5q0 110 74.5 185.5t185.5 75.5t183 -73t72 -183v-17h-479q4 -93 65.5 -153.5t161.5 -60.5q152 0 209 147l32 -15q-67 -165 -241 -165zM311 477q-90 0 -152.5 -59.5t-70.5 -146.5h441q-5 90 -65 148t-153 58zM176 573l119 147h32
l119 -147h-40l-95 117l-94 -117h-41z" />
    <glyph glyph-name="edieresis" unicode="&#xeb;" horiz-adv-x="619" 
d="M314 -10q-120 0 -191.5 73.5t-71.5 185.5q0 110 74.5 185.5t185.5 75.5t183 -73t72 -183v-17h-479q4 -93 65.5 -153.5t161.5 -60.5q152 0 209 147l32 -15q-67 -165 -241 -165zM311 477q-90 0 -152.5 -59.5t-70.5 -146.5h441q-5 90 -65 148t-153 58zM244 575v140h36v-140
h-36zM344 575v140h36v-140h-36z" />
    <glyph glyph-name="igrave" unicode="&#xec;" horiz-adv-x="185" 
d="M74 0v500h37v-500h-37zM77 573l-135 147h50l123 -147h-38z" />
    <glyph glyph-name="iacute" unicode="&#xed;" horiz-adv-x="185" 
d="M74 573l123 147h50l-135 -147h-38zM74 0v500h37v-500h-37z" />
    <glyph glyph-name="icircumflex" unicode="&#xee;" horiz-adv-x="185" 
d="M74 0v500h37v-500h-37zM-43 573l119 147h32l119 -147h-40l-95 117l-94 -117h-41z" />
    <glyph glyph-name="idieresis" unicode="&#xef;" horiz-adv-x="185" 
d="M168 575v140h35v-140h-35zM-18 575v140h36v-140h-36zM74 0v500h37v-500h-37z" />
    <glyph glyph-name="eth" unicode="&#xf0;" horiz-adv-x="619" 
d="M150 564l142 83q-60 50 -104 83h56q50 -39 78 -65l110 65h49l-139 -82q224 -203 224 -402q0 -106 -74.5 -180t-182.5 -74q-107 0 -181.5 74t-74.5 180q0 107 74 181t179 74q123 0 188 -95q-49 108 -182 224l-113 -66h-49zM310 26q91 0 154.5 64.5t63.5 155.5t-63.5 156
t-154.5 65t-155.5 -64.5t-64.5 -156.5q0 -91 64.5 -155.5t155.5 -64.5z" />
    <glyph glyph-name="ntilde" unicode="&#xf1;" horiz-adv-x="608" 
d="M74 0v500h36v-115q24 55 78 90t123 35q101 0 163 -61.5t62 -167.5v-281h-37v282q0 89 -51.5 141.5t-140.5 52.5q-82 0 -139 -55.5t-57 -138.5v-282h-37zM128 573q0 43 24.5 69.5t63.5 26.5q33 0 89 -34t83 -34q59 0 59 65h32q0 -46 -24.5 -71.5t-67.5 -25.5q-37 0 -95 35
q-51 32 -76 32t-41 -16.5t-16 -46.5h-31z" />
    <glyph glyph-name="ograve" unicode="&#xf2;" horiz-adv-x="622" 
d="M311 -10q-108 0 -184 75.5t-76 184.5t76 184.5t184 75.5t184 -75.5t76 -184.5t-76 -184.5t-184 -75.5zM311 24q93 0 157.5 66t64.5 160t-64.5 160t-157.5 66t-157.5 -66t-64.5 -160t64.5 -160t157.5 -66zM293 573l-135 147h50l123 -147h-38z" />
    <glyph glyph-name="oacute" unicode="&#xf3;" horiz-adv-x="622" 
d="M286 573l123 147h50l-135 -147h-38zM311 -10q-108 0 -184 75.5t-76 184.5t76 184.5t184 75.5t184 -75.5t76 -184.5t-76 -184.5t-184 -75.5zM311 24q93 0 157.5 66t64.5 160t-64.5 160t-157.5 66t-157.5 -66t-64.5 -160t64.5 -160t157.5 -66z" />
    <glyph glyph-name="ocircumflex" unicode="&#xf4;" horiz-adv-x="622" 
d="M311 -10q-108 0 -184 75.5t-76 184.5t76 184.5t184 75.5t184 -75.5t76 -184.5t-76 -184.5t-184 -75.5zM311 24q93 0 157.5 66t64.5 160t-64.5 160t-157.5 66t-157.5 -66t-64.5 -160t64.5 -160t157.5 -66zM173 573l119 147h32l119 -147h-40l-95 117l-94 -117h-41z" />
    <glyph glyph-name="otilde" unicode="&#xf5;" horiz-adv-x="622" 
d="M311 -10q-108 0 -184 75.5t-76 184.5t76 184.5t184 75.5t184 -75.5t76 -184.5t-76 -184.5t-184 -75.5zM311 24q93 0 157.5 66t64.5 160t-64.5 160t-157.5 66t-157.5 -66t-64.5 -160t64.5 -160t157.5 -66zM135 573q0 43 24.5 69.5t63.5 26.5q33 0 89 -34t83 -34
q59 0 59 65h32q0 -46 -24.5 -71.5t-67.5 -25.5q-37 0 -95 35q-51 32 -76 32t-41 -16.5t-16 -46.5h-31z" />
    <glyph glyph-name="odieresis" unicode="&#xf6;" horiz-adv-x="622" 
d="M343 575v140h36v-140h-36zM243 575v140h36v-140h-36zM311 -10q-108 0 -184 75.5t-76 184.5t76 184.5t184 75.5t184 -75.5t76 -184.5t-76 -184.5t-184 -75.5zM311 24q93 0 157.5 66t64.5 160t-64.5 160t-157.5 66t-157.5 -66t-64.5 -160t64.5 -160t157.5 -66z" />
    <glyph glyph-name="divide" unicode="&#xf7;" horiz-adv-x="478" 
d="M54 349v32h370v-32h-370zM223 440v122h32v-122h-32zM223 166v123h32v-123h-32z" />
    <glyph glyph-name="oslash" unicode="&#xf8;" horiz-adv-x="622" 
d="M311 -10q-74 0 -140 40l-22 -30h-42l37 50q-93 77 -93 200q0 109 76 184.5t184 75.5q76 0 141 -41l23 31h42l-38 -51q92 -79 92 -199q0 -109 -76 -184.5t-184 -75.5zM89 250q0 -105 76 -171l266 361q-55 36 -120 36q-93 0 -157.5 -66t-64.5 -160zM311 24q93 0 157.5 66
t64.5 160q0 102 -75 170l-266 -361q54 -35 119 -35z" />
    <glyph glyph-name="ugrave" unicode="&#xf9;" horiz-adv-x="608" 
d="M299 -10q-104 0 -165.5 61t-61.5 168v281h37v-282q0 -89 51.5 -141.5t140.5 -52.5q83 0 140 55.5t57 138.5v282h36v-500h-35v118q-23 -56 -77 -92t-123 -36zM294 573l-135 147h50l123 -147h-38z" />
    <glyph glyph-name="uacute" unicode="&#xfa;" horiz-adv-x="608" 
d="M299 -10q-104 0 -165.5 61t-61.5 168v281h37v-282q0 -89 51.5 -141.5t140.5 -52.5q83 0 140 55.5t57 138.5v282h36v-500h-35v118q-23 -56 -77 -92t-123 -36zM273 573l123 147h50l-135 -147h-38z" />
    <glyph glyph-name="ucircumflex" unicode="&#xfb;" horiz-adv-x="608" 
d="M299 -10q-104 0 -165.5 61t-61.5 168v281h37v-282q0 -89 51.5 -141.5t140.5 -52.5q83 0 140 55.5t57 138.5v282h36v-500h-35v118q-23 -56 -77 -92t-123 -36zM166 573l119 147h32l119 -147h-40l-95 117l-94 -117h-41z" />
    <glyph glyph-name="udieresis" unicode="&#xfc;" horiz-adv-x="608" 
d="M299 -10q-104 0 -165.5 61t-61.5 168v281h37v-282q0 -89 51.5 -141.5t140.5 -52.5q83 0 140 55.5t57 138.5v282h36v-500h-35v118q-23 -56 -77 -92t-123 -36zM237 575v140h36v-140h-36zM337 575v140h36v-140h-36z" />
    <glyph glyph-name="yacute" unicode="&#xfd;" horiz-adv-x="559" 
d="M148 -231l119 259l-228 472h41l206 -430l194 430h40l-332 -731h-40zM256 573l123 147h50l-135 -147h-38z" />
    <glyph glyph-name="thorn" unicode="&#xfe;" horiz-adv-x="644" 
d="M333 -10q-72 0 -130.5 36t-89.5 99v-355h-36v960h36v-356q32 63 91 99.5t130 36.5q109 0 183.5 -75.5t74.5 -183.5q0 -109 -75 -185t-184 -76zM332 25q94 0 158.5 66t64.5 160t-64 159t-158 65t-159 -65.5t-65 -159.5q0 -93 65 -159t158 -66z" />
    <glyph glyph-name="ydieresis" unicode="&#xff;" horiz-adv-x="559" 
d="M148 -231l119 259l-228 472h41l206 -430l194 430h40l-332 -731h-40zM213 575v140h36v-140h-36zM313 575v140h36v-140h-36z" />
    <glyph glyph-name="Amacron" unicode="&#x100;" horiz-adv-x="691" 
d="M41 0l285 730h39l285 -730h-39l-88 224h-355l-87 -224h-40zM346 679l-164 -421h328zM213 803v32h264v-32h-264z" />
    <glyph glyph-name="amacron" unicode="&#x101;" horiz-adv-x="641" 
d="M310 -10q-108 0 -183.5 76t-75.5 184t75 184t184 76q71 0 132.5 -38.5t88.5 -104.5v133h36v-500h-36v133q-27 -66 -88.5 -104.5t-132.5 -38.5zM311 24q94 0 158.5 66t64.5 160t-64.5 160t-158.5 66q-93 0 -157.5 -66t-64.5 -160t64.5 -160t157.5 -66zM197 573v32h264v-32
h-264z" />
    <glyph glyph-name="Abreve" unicode="&#x102;" horiz-adv-x="691" 
d="M41 0l285 730h39l285 -730h-39l-88 224h-355l-87 -224h-40zM346 679l-164 -421h328zM344 798q-78 0 -120 44.5t-42 106.5h33q0 -50 33.5 -85.5t95.5 -36.5q58 1 93 37t35 85h33q0 -60 -44.5 -105.5t-116.5 -45.5z" />
    <glyph glyph-name="abreve" unicode="&#x103;" horiz-adv-x="641" 
d="M310 -10q-108 0 -183.5 76t-75.5 184t75 184t184 76q71 0 132.5 -38.5t88.5 -104.5v133h36v-500h-36v133q-27 -66 -88.5 -104.5t-132.5 -38.5zM311 24q94 0 158.5 66t64.5 160t-64.5 160t-158.5 66q-93 0 -157.5 -66t-64.5 -160t64.5 -160t157.5 -66zM317 564
q-78 0 -120 44.5t-42 106.5h33q0 -50 33.5 -85.5t95.5 -36.5q58 1 93 37t35 85h33q0 -60 -44.5 -105.5t-116.5 -45.5z" />
    <glyph glyph-name="Aogonek" unicode="&#x104;" horiz-adv-x="691" 
d="M617 -201q-54 0 -88 26t-34 65q0 68 111 121l-83 213h-355l-87 -224h-40l285 730h39l285 -730h-2l2 -1q-65 -32 -91.5 -57t-26.5 -52t23.5 -43t61.5 -16q52 0 98 44l30 -21q-59 -55 -128 -55zM346 679l-164 -421h328z" />
    <glyph glyph-name="aogonek" unicode="&#x105;" horiz-adv-x="641" 
d="M310 -10q-108 0 -183.5 76t-75.5 184t75 184t184 76q71 0 132.5 -38.5t88.5 -104.5v133h36v-500h1q-86 -68 -86 -124q0 -28 19 -45.5t50 -17.5q42 0 83 39l23 -25q-54 -46 -106 -46q-48 0 -75.5 27t-27.5 66q0 61 83 137v122q-27 -66 -88.5 -104.5t-132.5 -38.5zM311 24
q94 0 158.5 66t64.5 160t-64.5 160t-158.5 66q-93 0 -157.5 -66t-64.5 -160t64.5 -160t157.5 -66z" />
    <glyph glyph-name="Cacute" unicode="&#x106;" horiz-adv-x="805" 
d="M407 803l123 147h50l-135 -147h-38zM430 -10q-155 0 -265 110t-110 265t110 265t265 110q99 0 184 -49t135 -131l-31 -18q-45 75 -120.5 119t-167.5 44q-140 0 -238 -99.5t-98 -240.5t98 -240.5t238 -99.5q96 0 175 47t123 127l33 -17q-50 -88 -137.5 -140t-193.5 -52z
" />
    <glyph glyph-name="cacute" unicode="&#x107;" horiz-adv-x="600" 
d="M284 573l123 147h50l-135 -147h-38zM312 -10q-110 0 -185.5 76t-75.5 184q0 109 76 184.5t185 75.5q80 0 144 -43t94 -112l-35 -15q-27 62 -80.5 99t-122.5 37q-93 0 -158 -66t-65 -160t65 -160t159 -66q70 0 124 38t80 100l35 -15q-31 -71 -94.5 -114t-145.5 -43z" />
    <glyph glyph-name="Ccircumflex" unicode="&#x108;" horiz-adv-x="805" 
d="M430 -10q-155 0 -265 110t-110 265t110 265t265 110q99 0 184 -49t135 -131l-31 -18q-45 75 -120.5 119t-167.5 44q-140 0 -238 -99.5t-98 -240.5t98 -240.5t238 -99.5q96 0 175 47t123 127l33 -17q-50 -88 -137.5 -140t-193.5 -52zM294 803l119 147h32l119 -147h-40
l-95 117l-94 -117h-41z" />
    <glyph glyph-name="ccircumflex" unicode="&#x109;" horiz-adv-x="600" 
d="M312 -10q-110 0 -185.5 76t-75.5 184q0 109 76 184.5t185 75.5q80 0 144 -43t94 -112l-35 -15q-27 62 -80.5 99t-122.5 37q-93 0 -158 -66t-65 -160t65 -160t159 -66q70 0 124 38t80 100l35 -15q-31 -71 -94.5 -114t-145.5 -43zM177 573l119 147h32l119 -147h-40l-95 117
l-94 -117h-41z" />
    <glyph glyph-name="Cdotaccent" unicode="&#x10a;" horiz-adv-x="805" 
d="M430 -10q-155 0 -265 110t-110 265t110 265t265 110q99 0 184 -49t135 -131l-31 -18q-45 75 -120.5 119t-167.5 44q-140 0 -238 -99.5t-98 -240.5t98 -240.5t238 -99.5q96 0 175 47t123 127l33 -17q-50 -88 -137.5 -140t-193.5 -52zM418 805v140h37v-140h-37z" />
    <glyph glyph-name="cdotaccent" unicode="&#x10b;" horiz-adv-x="600" 
d="M312 -10q-110 0 -185.5 76t-75.5 184q0 109 76 184.5t185 75.5q80 0 144 -43t94 -112l-35 -15q-27 62 -80.5 99t-122.5 37q-93 0 -158 -66t-65 -160t65 -160t159 -66q70 0 124 38t80 100l35 -15q-31 -71 -94.5 -114t-145.5 -43zM292 575v140h37v-140h-37z" />
    <glyph glyph-name="Ccaron" unicode="&#x10c;" horiz-adv-x="805" 
d="M430 -10q-155 0 -265 110t-110 265t110 265t265 110q99 0 184 -49t135 -131l-31 -18q-45 75 -120.5 119t-167.5 44q-140 0 -238 -99.5t-98 -240.5t98 -240.5t238 -99.5q96 0 175 47t123 127l33 -17q-50 -88 -137.5 -140t-193.5 -52zM407 803l-119 147h40l94 -118l95 118
h41l-119 -147h-32z" />
    <glyph glyph-name="ccaron" unicode="&#x10d;" horiz-adv-x="600" 
d="M312 -10q-110 0 -185.5 76t-75.5 184q0 109 76 184.5t185 75.5q80 0 144 -43t94 -112l-35 -15q-27 62 -80.5 99t-122.5 37q-93 0 -158 -66t-65 -160t65 -160t159 -66q70 0 124 38t80 100l35 -15q-31 -71 -94.5 -114t-145.5 -43zM291 573l-119 147h40l94 -118l95 118h41
l-119 -147h-32z" />
    <glyph glyph-name="Dcaron" unicode="&#x10e;" horiz-adv-x="715" 
d="M79 0v730h204q160 0 268.5 -105.5t108.5 -260.5t-109 -259.5t-267 -104.5h-205zM281 695h-165v-660h166q143 0 241 95t98 234q0 141 -97.5 236t-242.5 95zM287 803l-119 147h40l94 -118l95 118h41l-119 -147h-32z" />
    <glyph glyph-name="dcaron" unicode="&#x10f;" horiz-adv-x="668" 
d="M310 -10q-108 0 -183.5 76t-75.5 184t75 184t184 76q70 0 131 -37.5t89 -103.5v361h36v-730h-35v133q-27 -66 -88.5 -104.5t-132.5 -38.5zM311 24q94 0 158.5 66t64.5 160t-64.5 160t-158.5 66q-93 0 -157.5 -66t-64.5 -160t64.5 -160t157.5 -66zM629 568l58 162h37
l-66 -162h-29z" />
    <glyph glyph-name="Dcroat" unicode="&#x110;" horiz-adv-x="731" 
d="M22 355v35h73v340h204q160 0 268 -105.5t108 -260.5t-109 -259.5t-266 -104.5h-205v355h-73zM296 695h-164v-305h248v-35h-248v-320h165q143 0 241.5 95t98.5 234q0 140 -98 235.5t-243 95.5z" />
    <glyph glyph-name="dcroat" unicode="&#x111;" horiz-adv-x="649" 
d="M380 578v33h150v119h36v-119h57v-33h-57v-578h-35v133q-27 -66 -88.5 -104.5t-132.5 -38.5q-108 0 -183.5 76t-75.5 184t75 184t184 76q70 0 131 -37.5t89 -103.5v209h-150zM311 24q94 0 158.5 66t64.5 160t-64.5 160t-158.5 66q-93 0 -157.5 -66t-64.5 -160t64.5 -160
t157.5 -66z" />
    <glyph glyph-name="Emacron" unicode="&#x112;" horiz-adv-x="598" 
d="M79 0v730h449v-35h-412v-312h412v-35h-412v-312h412v-36h-449zM170 803v32h264v-32h-264z" />
    <glyph glyph-name="emacron" unicode="&#x113;" horiz-adv-x="619" 
d="M314 -10q-120 0 -191.5 73.5t-71.5 185.5q0 110 74.5 185.5t185.5 75.5t183 -73t72 -183v-17h-479q4 -93 65.5 -153.5t161.5 -60.5q152 0 209 147l32 -15q-67 -165 -241 -165zM311 477q-90 0 -152.5 -59.5t-70.5 -146.5h441q-5 90 -65 148t-153 58zM183 573v32h264v-32
h-264z" />
    <glyph glyph-name="Ebreve" unicode="&#x114;" horiz-adv-x="598" 
d="M79 0v730h449v-35h-412v-312h412v-35h-412v-312h412v-36h-449zM306 798q-78 0 -120 44.5t-42 106.5h33q0 -50 33.5 -85.5t95.5 -36.5q58 1 93 37t35 85h33q0 -60 -44.5 -105.5t-116.5 -45.5z" />
    <glyph glyph-name="ebreve" unicode="&#x115;" horiz-adv-x="619" 
d="M314 -10q-120 0 -191.5 73.5t-71.5 185.5q0 110 74.5 185.5t185.5 75.5t183 -73t72 -183v-17h-479q4 -93 65.5 -153.5t161.5 -60.5q152 0 209 147l32 -15q-67 -165 -241 -165zM311 477q-90 0 -152.5 -59.5t-70.5 -146.5h441q-5 90 -65 148t-153 58zM314 564
q-78 0 -120 44.5t-42 106.5h33q0 -50 33.5 -85.5t95.5 -36.5q58 1 93 37t35 85h33q0 -60 -44.5 -105.5t-116.5 -45.5z" />
    <glyph glyph-name="Edotaccent" unicode="&#x116;" horiz-adv-x="598" 
d="M79 0v730h449v-35h-412v-312h412v-35h-412v-312h412v-36h-449zM292 805v140h37v-140h-37z" />
    <glyph glyph-name="edotaccent" unicode="&#x117;" horiz-adv-x="619" 
d="M314 -10q-120 0 -191.5 73.5t-71.5 185.5q0 110 74.5 185.5t185.5 75.5t183 -73t72 -183v-17h-479q4 -93 65.5 -153.5t161.5 -60.5q152 0 209 147l32 -15q-67 -165 -241 -165zM311 477q-90 0 -152.5 -59.5t-70.5 -146.5h441q-5 90 -65 148t-153 58zM295 575v140h37v-140
h-37z" />
    <glyph glyph-name="Eogonek" unicode="&#x118;" horiz-adv-x="598" 
d="M79 0v730h449v-35h-412v-312h412v-35h-412v-312h412v-36h-2l2 -1q-65 -32 -91.5 -57t-26.5 -52t23.5 -43t61.5 -16q52 0 98 44l30 -21q-59 -55 -128 -55q-54 0 -88 26t-34 65q0 61 90 110h-384z" />
    <glyph glyph-name="eogonek" unicode="&#x119;" horiz-adv-x="619" 
d="M314 -10q-120 0 -191.5 73.5t-71.5 185.5q0 110 74.5 185.5t185.5 75.5t183 -73t72 -183v-17h-479q4 -93 65.5 -153.5t161.5 -60.5q152 0 209 147l32 -15q-44 -110 -137 -147h1q-65 -32 -91.5 -57t-26.5 -52t23.5 -43t61.5 -16q52 0 98 44l30 -21q-59 -55 -128 -55
q-54 0 -88 26t-34 65q0 50 59 91h-9zM311 477q-90 0 -152.5 -59.5t-70.5 -146.5h441q-5 90 -65 148t-153 58z" />
    <glyph glyph-name="Ecaron" unicode="&#x11a;" horiz-adv-x="599" 
d="M79 0v730h449v-35h-412v-312h412v-35h-412v-312h412v-36h-449zM285 803l-119 147h40l94 -118l95 118h41l-119 -147h-32z" />
    <glyph glyph-name="ecaron" unicode="&#x11b;" horiz-adv-x="619" 
d="M314 -10q-120 0 -191.5 73.5t-71.5 185.5q0 110 74.5 185.5t185.5 75.5t183 -73t72 -183v-17h-479q4 -93 65.5 -153.5t161.5 -60.5q152 0 209 147l32 -15q-67 -165 -241 -165zM311 477q-90 0 -152.5 -59.5t-70.5 -146.5h441q-5 90 -65 148t-153 58zM298 573l-119 147h40
l94 -118l95 118h41l-119 -147h-32z" />
    <glyph glyph-name="Gcircumflex" unicode="&#x11c;" horiz-adv-x="854" 
d="M433 -10q-161 0 -269.5 109t-108.5 266q0 156 110.5 265.5t270.5 109.5q103 0 186.5 -47.5t132.5 -130.5l-31 -19q-43 76 -118.5 119t-170.5 43q-145 0 -243 -99t-98 -241t96.5 -241t242.5 -99q142 0 233 89t99 225h-338v35h376v-10q0 -158 -102.5 -266t-267.5 -108z
M293 803l119 147h32l119 -147h-40l-95 117l-94 -117h-41z" />
    <glyph glyph-name="gcircumflex" unicode="&#x11d;" horiz-adv-x="642" 
d="M310 -10q-108 0 -183.5 76t-75.5 184t75 184t184 76q71 0 132.5 -38.5t88.5 -104.5v133h36v-490q0 -115 -68.5 -183t-179.5 -68q-176 0 -232 137l35 13q48 -117 197 -117q96 0 154 59t58 159v123q-27 -66 -88.5 -104.5t-132.5 -38.5zM311 24q94 0 158.5 66t64.5 160
t-64.5 160t-158.5 66q-93 0 -157.5 -66t-64.5 -160t64.5 -160t157.5 -66zM179 573l119 147h32l119 -147h-40l-95 117l-94 -117h-41z" />
    <glyph glyph-name="Gbreve" unicode="&#x11e;" horiz-adv-x="854" 
d="M433 -10q-161 0 -269.5 109t-108.5 266q0 156 110.5 265.5t270.5 109.5q103 0 186.5 -47.5t132.5 -130.5l-31 -19q-43 76 -118.5 119t-170.5 43q-145 0 -243 -99t-98 -241t96.5 -241t242.5 -99q142 0 233 89t99 225h-338v35h376v-10q0 -158 -102.5 -266t-267.5 -108z
M428 798q-78 0 -120 44.5t-42 106.5h33q0 -50 33.5 -85.5t95.5 -36.5q58 1 93 37t35 85h33q0 -60 -44.5 -105.5t-116.5 -45.5z" />
    <glyph glyph-name="gbreve" unicode="&#x11f;" horiz-adv-x="642" 
d="M310 -10q-108 0 -183.5 76t-75.5 184t75 184t184 76q71 0 132.5 -38.5t88.5 -104.5v133h36v-490q0 -115 -68.5 -183t-179.5 -68q-176 0 -232 137l35 13q48 -117 197 -117q96 0 154 59t58 159v123q-27 -66 -88.5 -104.5t-132.5 -38.5zM311 24q94 0 158.5 66t64.5 160
t-64.5 160t-158.5 66q-93 0 -157.5 -66t-64.5 -160t64.5 -160t157.5 -66zM315 564q-78 0 -120 44.5t-42 106.5h33q0 -50 33.5 -85.5t95.5 -36.5q58 1 93 37t35 85h33q0 -60 -44.5 -105.5t-116.5 -45.5z" />
    <glyph glyph-name="Gdotaccent" unicode="&#x120;" horiz-adv-x="854" 
d="M433 -10q-161 0 -269.5 109t-108.5 266q0 156 110.5 265.5t270.5 109.5q103 0 186.5 -47.5t132.5 -130.5l-31 -19q-43 76 -118.5 119t-170.5 43q-145 0 -243 -99t-98 -241t96.5 -241t242.5 -99q142 0 233 89t99 225h-338v35h376v-10q0 -158 -102.5 -266t-267.5 -108z
M408 805v140h37v-140h-37z" />
    <glyph glyph-name="gdotaccent" unicode="&#x121;" horiz-adv-x="642" 
d="M310 -10q-108 0 -183.5 76t-75.5 184t75 184t184 76q71 0 132.5 -38.5t88.5 -104.5v133h36v-490q0 -115 -68.5 -183t-179.5 -68q-176 0 -232 137l35 13q48 -117 197 -117q96 0 154 59t58 159v123q-27 -66 -88.5 -104.5t-132.5 -38.5zM311 24q94 0 158.5 66t64.5 160
t-64.5 160t-158.5 66q-93 0 -157.5 -66t-64.5 -160t64.5 -160t157.5 -66zM283 575v140h37v-140h-37z" />
    <glyph glyph-name="Gcommaaccent" unicode="&#x122;" horiz-adv-x="854" 
d="M433 -10q-161 0 -269.5 109t-108.5 266q0 156 110.5 265.5t270.5 109.5q103 0 186.5 -47.5t132.5 -130.5l-31 -19q-43 76 -118.5 119t-170.5 43q-145 0 -243 -99t-98 -241t96.5 -241t242.5 -99q142 0 233 89t99 225h-338v35h376v-10q0 -158 -102.5 -266t-267.5 -108z
M397 -274h-28l47 204h37z" />
    <glyph glyph-name="gcommaaccent" unicode="&#x123;" horiz-adv-x="642" 
d="M310 -10q-108 0 -183.5 76t-75.5 184t75 184t184 76q71 0 132.5 -38.5t88.5 -104.5v133h36v-490q0 -115 -68.5 -183t-179.5 -68q-176 0 -232 137l35 13q48 -117 197 -117q96 0 154 59t58 159v123q-27 -66 -88.5 -104.5t-132.5 -38.5zM311 24q94 0 158.5 66t64.5 160
t-64.5 160t-158.5 66q-93 0 -157.5 -66t-64.5 -160t64.5 -160t157.5 -66zM317 550h-28l47 204h37z" />
    <glyph glyph-name="Hcircumflex" unicode="&#x124;" horiz-adv-x="691" 
d="M573 0v348h-459v-348h-37v730h37v-347h459v347h37v-730h-37zM209 803l119 147h32l119 -147h-40l-95 117l-94 -117h-41z" />
    <glyph glyph-name="hcircumflex" unicode="&#x125;" horiz-adv-x="610" 
d="M77 0v730h35v-345q24 55 78 90t123 35q102 0 163.5 -61.5t61.5 -167.5v-281h-36v282q0 89 -52 142t-140 53q-83 0 -140 -56t-57 -139v-282h-36zM-41 786l119 147h32l119 -147h-40l-95 117l-94 -117h-41z" />
    <glyph glyph-name="Hbar" unicode="&#x126;" horiz-adv-x="718" 
d="M17 542v30h74v158h37v-158h459v158h37v-158h66v-30h-66v-542h-37v348h-459v-348h-37v542h-74zM128 542v-159h459v159h-459z" />
    <glyph glyph-name="hbar" unicode="&#x127;" horiz-adv-x="616" 
d="M11 598v33h72v99h35v-99h137v-33h-137v-213q24 55 78 90t123 35q102 0 163.5 -61.5t61.5 -167.5v-281h-36v282q0 89 -52 142t-140 53q-83 0 -140 -56t-57 -139v-282h-36v598h-72z" />
    <glyph glyph-name="Itilde" unicode="&#x128;" horiz-adv-x="207" 
d="M85 0v730h38v-730h-38zM-62 803q0 43 24.5 69.5t63.5 26.5q33 0 89 -34t83 -34q59 0 59 65h32q0 -46 -24.5 -71.5t-67.5 -25.5q-37 0 -95 35q-51 32 -76 32t-41 -16.5t-16 -46.5h-31z" />
    <glyph glyph-name="itilde" unicode="&#x129;" horiz-adv-x="185" 
d="M74 0v500h37v-500h-37zM-82 573q0 43 24.5 69.5t63.5 26.5q33 0 89 -34t83 -34q59 0 59 65h32q0 -46 -24.5 -71.5t-67.5 -25.5q-37 0 -95 35q-51 32 -76 32t-41 -16.5t-16 -46.5h-31z" />
    <glyph glyph-name="Imacron" unicode="&#x12a;" horiz-adv-x="214" 
d="M88 0v730h38v-730h-38zM-25 803v32h264v-32h-264z" />
    <glyph glyph-name="imacron" unicode="&#x12b;" horiz-adv-x="185" 
d="M74 0v500h37v-500h-37zM-39 573v32h264v-32h-264z" />
    <glyph glyph-name="Ibreve" unicode="&#x12c;" horiz-adv-x="214" 
d="M88 0v730h38v-730h-38zM106 798q-78 0 -120 44.5t-42 106.5h33q0 -50 33.5 -85.5t95.5 -36.5q58 1 93 37t35 85h33q0 -60 -44.5 -105.5t-116.5 -45.5z" />
    <glyph glyph-name="ibreve" unicode="&#x12d;" horiz-adv-x="185" 
d="M74 0v500h37v-500h-37zM94 564q-78 0 -120 44.5t-42 106.5h33q0 -50 33.5 -85.5t95.5 -36.5q58 1 93 37t35 85h33q0 -60 -44.5 -105.5t-116.5 -45.5z" />
    <glyph glyph-name="Iogonek" unicode="&#x12e;" horiz-adv-x="214" 
d="M109 -220q-48 0 -75.5 27t-27.5 66q0 63 82 136v721h38v-730h-2l2 -1q-86 -68 -86 -124q0 -28 19 -45.5t50 -17.5q42 0 83 39l23 -25q-54 -46 -106 -46z" />
    <glyph glyph-name="iogonek" unicode="&#x12f;" horiz-adv-x="185" 
d="M95 -219q-48 0 -75.5 27t-27.5 66q0 63 82 136v490h37v-500h1q-86 -68 -86 -124q0 -28 19 -45.5t50 -17.5q42 0 83 39l23 -25q-54 -46 -106 -46zM74 582v148h37v-148h-37z" />
    <glyph glyph-name="Idotaccent" unicode="&#x130;" horiz-adv-x="214" 
d="M88 0v730h38v-730h-38zM89 805v140h37v-140h-37z" />
    <glyph glyph-name="dotlessi" unicode="&#x131;" horiz-adv-x="185" 
d="M74 0v500h37v-500h-37z" />
    <glyph glyph-name="IJ" unicode="&#x132;" horiz-adv-x="528" 
d="M213 0v35h63q67 0 105.5 41t38.5 109v545h37v-546q0 -85 -47 -134.5t-132 -49.5h-65zM71 0v730h37v-730h-37z" />
    <glyph glyph-name="ij" unicode="&#x133;" horiz-adv-x="355" 
d="M74 -168v36h44q81 0 103.5 24t22.5 101v507h37v-508q0 -93 -32 -126.5t-126 -33.5h-49zM74 0v500h37v-500h-37zM74 582v148h37v-148h-37zM244 582v148h37v-148h-37z" />
    <glyph glyph-name="Jcircumflex" unicode="&#x134;" horiz-adv-x="483" 
d="M221 -10q-133 0 -179 104l33 20q38 -90 145 -90q71 0 110.5 44.5t39.5 117.5v544h37v-543q0 -90 -49.5 -143.5t-136.5 -53.5zM253 803l119 147h32l119 -147h-40l-95 117l-94 -117h-41z" />
    <glyph glyph-name="jcircumflex" unicode="&#x135;" horiz-adv-x="186" 
d="M-63 -228v36q85 0 111.5 25t26.5 113v554h37v-555q0 -103 -35 -138t-135 -35h-5zM-42 573l119 147h32l119 -147h-40l-95 117l-94 -117h-41z" />
    <glyph glyph-name="Kcommaaccent" unicode="&#x136;" horiz-adv-x="653" 
d="M577 0l-282 410l-178 -201v-209h-38v730h38v-471l418 471h47l-260 -294l299 -436h-44zM295 -274h-28l47 204h37z" />
    <glyph glyph-name="kcommaaccent" unicode="&#x137;" horiz-adv-x="513" 
d="M436 0l-201 269l-122 -129v-140h-36v730h36v-545l301 315h47l-200 -208l218 -292h-43zM226 -258h-28l47 204h37z" />
    <glyph glyph-name="kgreenlandic" unicode="&#x138;" horiz-adv-x="511" 
d="M434 0l-201 269l-122 -129v-140h-36v500h36v-315l301 315h47l-200 -208l218 -292h-43z" />
    <glyph glyph-name="Lacute" unicode="&#x139;" horiz-adv-x="532" 
d="M79 0v730h37v-694h367v-36h-404zM76 803l123 147h50l-135 -147h-38z" />
    <glyph glyph-name="lacute" unicode="&#x13a;" horiz-adv-x="190" 
d="M84 786l123 147h50l-135 -147h-38zM77 0v730h36v-730h-36z" />
    <glyph glyph-name="Lcommaaccent" unicode="&#x13b;" horiz-adv-x="532" 
d="M79 0v730h37v-694h367v-36h-404zM239 -274h-28l47 204h37z" />
    <glyph glyph-name="lcommaaccent" unicode="&#x13c;" horiz-adv-x="190" 
d="M67 -258h-28l47 204h37zM77 0v730h36v-730h-36z" />
    <glyph glyph-name="Lcaron" unicode="&#x13d;" horiz-adv-x="532" 
d="M79 0v730h37v-694h367v-36h-404zM271 568l58 162h37l-66 -162h-29z" />
    <glyph glyph-name="lcaron" unicode="&#x13e;" horiz-adv-x="213" 
d="M175 568l58 162h37l-66 -162h-29zM76 0v730h36v-730h-36z" />
    <glyph glyph-name="Ldot" unicode="&#x13f;" horiz-adv-x="547" 
d="M79 0v730h37v-694h367v-36h-404zM446 288v140h37v-140h-37z" />
    <glyph glyph-name="ldot" unicode="&#x140;" horiz-adv-x="311" 
d="M77 0v730h36v-730h-36zM228 212v140h37v-140h-37z" />
    <glyph glyph-name="Lslash" unicode="&#x141;" horiz-adv-x="562" 
d="M10 336v28l98 29v337h37v-326l193 57v-29l-193 -57v-339h367v-36h-404v364z" />
    <glyph glyph-name="lslash" unicode="&#x142;" horiz-adv-x="265" 
d="M11 308v31l103 51v340h37v-321l103 52v-31l-103 -52v-378h-37v359z" />
    <glyph glyph-name="Nacute" unicode="&#x143;" horiz-adv-x="745" 
d="M79 0v730h40l510 -672v672h37v-730h-39l-511 672v-672h-37zM359 803l123 147h50l-135 -147h-38z" />
    <glyph glyph-name="nacute" unicode="&#x144;" horiz-adv-x="608" 
d="M74 0v500h36v-115q24 55 78 90t123 35q101 0 163 -61.5t62 -167.5v-281h-37v282q0 89 -51.5 141.5t-140.5 52.5q-82 0 -139 -55.5t-57 -138.5v-282h-37zM286 573l123 147h50l-135 -147h-38z" />
    <glyph glyph-name="Ncommaaccent" unicode="&#x145;" horiz-adv-x="745" 
d="M79 0v730h40l510 -672v672h37v-730h-39l-511 672v-672h-37zM330 -274h-28l47 204h37z" />
    <glyph glyph-name="ncommaaccent" unicode="&#x146;" horiz-adv-x="608" 
d="M74 0v500h36v-115q24 55 78 90t123 35q101 0 163 -61.5t62 -167.5v-281h-37v282q0 89 -51.5 141.5t-140.5 52.5q-82 0 -139 -55.5t-57 -138.5v-282h-37zM283 -258h-28l47 204h37z" />
    <glyph glyph-name="Ncaron" unicode="&#x147;" horiz-adv-x="745" 
d="M79 0v730h40l510 -672v672h37v-730h-39l-511 672v-672h-37zM359 803l-119 147h40l94 -118l95 118h41l-119 -147h-32z" />
    <glyph glyph-name="ncaron" unicode="&#x148;" horiz-adv-x="608" 
d="M74 0v500h36v-115q24 55 78 90t123 35q101 0 163 -61.5t62 -167.5v-281h-37v282q0 89 -51.5 141.5t-140.5 52.5q-82 0 -139 -55.5t-57 -138.5v-282h-37zM290 573l-119 147h40l94 -118l95 118h41l-119 -147h-32z" />
    <glyph glyph-name="Eng" unicode="&#x14a;" horiz-adv-x="745" 
d="M447 -206v35h75q53 0 80.5 29t26.5 82v60l-513 673v-673h-37v730h40l510 -668v668h37v-791q0 -69 -35.5 -107t-105.5 -38h-78z" />
    <glyph glyph-name="eng" unicode="&#x14b;" horiz-adv-x="609" 
d="M361 -228v36q85 0 111.5 25t26.5 113v336q0 89 -51.5 141.5t-140.5 52.5q-82 0 -139 -55.5t-57 -138.5v-282h-37v500h36v-115q24 55 78 90t123 35q101 0 163 -61.5t62 -167.5v-336q0 -103 -35 -138t-135 -35h-5z" />
    <glyph glyph-name="Omacron" unicode="&#x14c;" horiz-adv-x="861" 
d="M295 803v32h264v-32h-264zM430 -10q-155 0 -265 110t-110 265t110 265t265 110t265 -110t110 -265t-110 -265t-265 -110zM430 25q141 0 239 99.5t98 240.5t-98 240.5t-239 99.5q-140 0 -238 -99.5t-98 -240.5t98 -240.5t238 -99.5z" />
    <glyph glyph-name="omacron" unicode="&#x14d;" horiz-adv-x="622" 
d="M178 573v32h264v-32h-264zM311 -10q-108 0 -184 75.5t-76 184.5t76 184.5t184 75.5t184 -75.5t76 -184.5t-76 -184.5t-184 -75.5zM311 24q93 0 157.5 66t64.5 160t-64.5 160t-157.5 66t-157.5 -66t-64.5 -160t64.5 -160t157.5 -66z" />
    <glyph glyph-name="Obreve" unicode="&#x14e;" horiz-adv-x="861" 
d="M430 -10q-155 0 -265 110t-110 265t110 265t265 110t265 -110t110 -265t-110 -265t-265 -110zM430 25q141 0 239 99.5t98 240.5t-98 240.5t-239 99.5q-140 0 -238 -99.5t-98 -240.5t98 -240.5t238 -99.5zM427 799q-78 0 -120 44.5t-42 106.5h33q0 -50 33.5 -85.5
t95.5 -36.5q58 1 93 37t35 85h33q0 -60 -44.5 -105.5t-116.5 -45.5z" />
    <glyph glyph-name="obreve" unicode="&#x14f;" horiz-adv-x="622" 
d="M311 -10q-108 0 -184 75.5t-76 184.5t76 184.5t184 75.5t184 -75.5t76 -184.5t-76 -184.5t-184 -75.5zM311 24q93 0 157.5 66t64.5 160t-64.5 160t-157.5 66t-157.5 -66t-64.5 -160t64.5 -160t157.5 -66zM310 564q-78 0 -120 44.5t-42 106.5h33q0 -50 33.5 -85.5
t95.5 -36.5q58 1 93 37t35 85h33q0 -60 -44.5 -105.5t-116.5 -45.5z" />
    <glyph glyph-name="Ohungarumlaut" unicode="&#x150;" horiz-adv-x="861" 
d="M349 803l123 147h48l-135 -147h-36zM450 803l123 147h48l-135 -147h-36zM430 -10q-155 0 -265 110t-110 265t110 265t265 110t265 -110t110 -265t-110 -265t-265 -110zM430 25q141 0 239 99.5t98 240.5t-98 240.5t-239 99.5q-140 0 -238 -99.5t-98 -240.5t98 -240.5
t238 -99.5z" />
    <glyph glyph-name="ohungarumlaut" unicode="&#x151;" horiz-adv-x="622" 
d="M241 573l123 147h48l-135 -147h-36zM342 573l123 147h48l-135 -147h-36zM311 -10q-108 0 -184 75.5t-76 184.5t76 184.5t184 75.5t184 -75.5t76 -184.5t-76 -184.5t-184 -75.5zM311 24q93 0 157.5 66t64.5 160t-64.5 160t-157.5 66t-157.5 -66t-64.5 -160t64.5 -160
t157.5 -66z" />
    <glyph glyph-name="OE" unicode="&#x152;" horiz-adv-x="1287" 
d="M767 0v209q-44 -99 -133.5 -159t-203.5 -60q-155 0 -265 110t-110 265t110 265t265 110q114 0 203.5 -60t133.5 -160v210h450v-35h-413v-312h413v-35h-413v-312h413v-36h-450zM430 26q140 0 238.5 99.5t98.5 239.5t-98.5 239.5t-238.5 99.5t-238.5 -99.5t-98.5 -239.5
t98.5 -239.5t238.5 -99.5z" />
    <glyph glyph-name="oe" unicode="&#x153;" horiz-adv-x="1103" 
d="M311 -10q-108 0 -184 75.5t-76 184.5t76 184.5t184 75.5q85 0 149 -46.5t91 -122.5q26 76 90.5 122.5t151.5 46.5q110 0 183.5 -73.5t73.5 -183.5v-11h-481q2 -94 66.5 -156.5t159.5 -62.5q80 0 137.5 44.5t76.5 117.5l34 -13q-23 -82 -89.5 -132t-158.5 -50
q-89 0 -154 45.5t-90 120.5q-28 -74 -92 -120t-148 -46zM311 24q93 0 157.5 66t64.5 160t-64.5 160t-157.5 66t-157.5 -66t-64.5 -160t64.5 -160t157.5 -66zM793 477q-88 0 -151 -58t-72 -144h442q-8 88 -68.5 145t-150.5 57z" />
    <glyph glyph-name="Racute" unicode="&#x154;" horiz-adv-x="586" 
d="M79 0v730h221q97 0 164.5 -65.5t67.5 -158.5q0 -85 -56.5 -148t-143.5 -72l203 -286h-45l-221 315h28q83 0 140 56.5t57 134.5q0 79 -56.5 134t-139.5 55h-182v-695h-37zM231 803l123 147h50l-135 -147h-38z" />
    <glyph glyph-name="racute" unicode="&#x155;" horiz-adv-x="376" 
d="M74 0v500h36v-129q21 58 70.5 93.5t117.5 35.5h32v-35h-32q-85 0 -136 -55t-51 -148v-262h-37zM194 573l123 147h50l-135 -147h-38z" />
    <glyph glyph-name="Rcommaaccent" unicode="&#x156;" horiz-adv-x="586" 
d="M79 0v730h221q97 0 164.5 -65.5t67.5 -158.5q0 -85 -56.5 -148t-143.5 -72l203 -286h-45l-221 315h28q83 0 140 56.5t57 134.5q0 79 -56.5 134t-139.5 55h-182v-695h-37zM259 -274h-28l47 204h37z" />
    <glyph glyph-name="rcommaaccent" unicode="&#x157;" horiz-adv-x="376" 
d="M74 0v500h36v-129q21 58 70.5 93.5t117.5 35.5h32v-35h-32q-85 0 -136 -55t-51 -148v-262h-37zM57 -258h-28l47 204h37z" />
    <glyph glyph-name="Rcaron" unicode="&#x158;" horiz-adv-x="586" 
d="M79 0v730h221q97 0 164.5 -65.5t67.5 -158.5q0 -85 -56.5 -148t-143.5 -72l203 -286h-45l-221 315h28q83 0 140 56.5t57 134.5q0 79 -56.5 134t-139.5 55h-182v-695h-37zM257 803l-119 147h40l94 -118l95 118h41l-119 -147h-32z" />
    <glyph glyph-name="rcaron" unicode="&#x159;" horiz-adv-x="376" 
d="M74 0v500h36v-129q21 58 70.5 93.5t117.5 35.5h32v-35h-32q-85 0 -136 -55t-51 -148v-262h-37zM185 573l-119 147h40l94 -118l95 118h41l-119 -147h-32z" />
    <glyph glyph-name="Sacute" unicode="&#x15a;" horiz-adv-x="552" 
d="M251 802l123 147h50l-135 -147h-38zM266 -10q-72 0 -132 28.5t-98 76.5l31 24q34 -43 86 -69t113 -26q81 0 137 46.5t56 124.5q0 32 -11.5 57t-27 41t-45 31.5t-50.5 23t-58 19.5q-40 13 -62 21t-54 25t-48.5 35t-29 47t-12.5 65q0 80 60 130t150 50q130 0 204 -91
l-30 -22q-58 79 -175 79q-72 0 -122 -40.5t-50 -105.5q0 -25 6.5 -45.5t22.5 -36.5t29 -26.5t41.5 -22t42.5 -16.5t49 -16q47 -15 77 -28t64 -36.5t50.5 -57.5t16.5 -80q0 -90 -66 -147.5t-165 -57.5z" />
    <glyph glyph-name="sacute" unicode="&#x15b;" horiz-adv-x="459" 
d="M199 573l123 147h50l-135 -147h-38zM225 -10q-60 0 -111.5 26t-80.5 66l29 23q26 -37 69.5 -59.5t94.5 -22.5q70 0 108 32.5t38 81.5q0 20 -9.5 36t-20.5 25.5t-36 19.5t-38.5 13.5t-46.5 12.5q-38 10 -61.5 18.5t-49.5 23.5t-39 38t-13 54q0 56 46 94t121 38
q108 0 168 -69l-27 -22q-53 59 -141 59q-60 0 -95.5 -27.5t-35.5 -71.5q0 -19 9 -34.5t19.5 -25t35 -19t37.5 -13t45 -12.5t50 -14.5t44 -17t39.5 -24.5t24 -34t10.5 -48q0 -60 -48 -103.5t-135 -43.5z" />
    <glyph glyph-name="Scircumflex" unicode="&#x15c;" horiz-adv-x="552" 
d="M266 -10q-72 0 -132 28.5t-98 76.5l31 24q34 -43 86 -69t113 -26q81 0 137 46.5t56 124.5q0 32 -11.5 57t-27 41t-45 31.5t-50.5 23t-58 19.5q-40 13 -62 21t-54 25t-48.5 35t-29 47t-12.5 65q0 80 60 130t150 50q130 0 204 -91l-30 -22q-58 79 -175 79q-72 0 -122 -40.5
t-50 -105.5q0 -25 6.5 -45.5t22.5 -36.5t29 -26.5t41.5 -22t42.5 -16.5t49 -16q47 -15 77 -28t64 -36.5t50.5 -57.5t16.5 -80q0 -90 -66 -147.5t-165 -57.5zM135 803l119 147h32l119 -147h-40l-95 117l-94 -117h-41z" />
    <glyph glyph-name="scircumflex" unicode="&#x15d;" horiz-adv-x="459" 
d="M225 -10q-60 0 -111.5 26t-80.5 66l29 23q26 -37 69.5 -59.5t94.5 -22.5q70 0 108 32.5t38 81.5q0 20 -9.5 36t-20.5 25.5t-36 19.5t-38.5 13.5t-46.5 12.5q-38 10 -61.5 18.5t-49.5 23.5t-39 38t-13 54q0 56 46 94t121 38q108 0 168 -69l-27 -22q-53 59 -141 59
q-60 0 -95.5 -27.5t-35.5 -71.5q0 -19 9 -34.5t19.5 -25t35 -19t37.5 -13t45 -12.5t50 -14.5t44 -17t39.5 -24.5t24 -34t10.5 -48q0 -60 -48 -103.5t-135 -43.5zM87 573l119 147h32l119 -147h-40l-95 117l-94 -117h-41z" />
    <glyph glyph-name="Scedilla" unicode="&#x15e;" horiz-adv-x="552" 
d="M274 -221q-79 0 -131 52l30 19q47 -42 101 -42q41 0 67.5 17t26.5 43q0 24 -26.5 38.5t-70.5 14.5h-23v70q-135 8 -212 104l31 24q34 -43 86 -69t113 -26q81 0 137 46.5t56 124.5q0 32 -11.5 57t-27 41t-45 31.5t-50.5 23t-58 19.5q-40 13 -62 21t-54 25t-48.5 35t-29 47
t-12.5 65q0 80 60 130t150 50q130 0 204 -91l-30 -22q-58 79 -175 79q-72 0 -122 -40.5t-50 -105.5q0 -25 6.5 -45.5t22.5 -36.5t29 -26.5t41.5 -22t42.5 -16.5t49 -16q47 -15 77 -28t64 -36.5t50.5 -57.5t16.5 -80q0 -87 -62 -143.5t-156 -61.5v-45q56 0 90.5 -21t34.5 -55
q0 -39 -36.5 -64.5t-93.5 -25.5z" />
    <glyph glyph-name="scedilla" unicode="&#x15f;" horiz-adv-x="459" 
d="M230 -221q-79 0 -131 52l30 19q47 -42 101 -42q41 0 67.5 17t26.5 43q0 24 -26.5 38.5t-70.5 14.5h-23v70q-54 4 -99 29t-72 62l29 23q26 -37 69.5 -59.5t94.5 -22.5q70 0 108 32.5t38 81.5q0 20 -9.5 36t-20.5 25.5t-36 19.5t-38.5 13.5t-46.5 12.5q-38 10 -61.5 18.5
t-49.5 23.5t-39 38t-13 54q0 56 46 94t121 38q108 0 168 -69l-27 -22q-53 59 -141 59q-60 0 -95.5 -27.5t-35.5 -71.5q0 -19 9 -34.5t19.5 -25t35 -19t37.5 -13t45 -12.5t50 -14.5t44 -17t39.5 -24.5t24 -34t10.5 -48q0 -58 -45 -101t-128 -46v-45q56 0 90.5 -21t34.5 -55
q0 -39 -36.5 -64.5t-93.5 -25.5z" />
    <glyph glyph-name="Scaron" unicode="&#x160;" horiz-adv-x="552" 
d="M266 -10q-72 0 -132 28.5t-98 76.5l31 24q34 -43 86 -69t113 -26q81 0 137 46.5t56 124.5q0 32 -11.5 57t-27 41t-45 31.5t-50.5 23t-58 19.5q-40 13 -62 21t-54 25t-48.5 35t-29 47t-12.5 65q0 80 60 130t150 50q130 0 204 -91l-30 -22q-58 79 -175 79q-72 0 -122 -40.5
t-50 -105.5q0 -25 6.5 -45.5t22.5 -36.5t29 -26.5t41.5 -22t42.5 -16.5t49 -16q47 -15 77 -28t64 -36.5t50.5 -57.5t16.5 -80q0 -90 -66 -147.5t-165 -57.5zM255 803l-119 147h40l94 -118l95 118h41l-119 -147h-32z" />
    <glyph glyph-name="scaron" unicode="&#x161;" horiz-adv-x="459" 
d="M225 -10q-60 0 -111.5 26t-80.5 66l29 23q26 -37 69.5 -59.5t94.5 -22.5q70 0 108 32.5t38 81.5q0 20 -9.5 36t-20.5 25.5t-36 19.5t-38.5 13.5t-46.5 12.5q-38 10 -61.5 18.5t-49.5 23.5t-39 38t-13 54q0 56 46 94t121 38q108 0 168 -69l-27 -22q-53 59 -141 59
q-60 0 -95.5 -27.5t-35.5 -71.5q0 -19 9 -34.5t19.5 -25t35 -19t37.5 -13t45 -12.5t50 -14.5t44 -17t39.5 -24.5t24 -34t10.5 -48q0 -60 -48 -103.5t-135 -43.5zM205 573l-119 147h40l94 -118l95 118h41l-119 -147h-32z" />
    <glyph glyph-name="Tcommaaccent" unicode="&#x162;" horiz-adv-x="610" 
d="M275 -274h-28l47 204h37zM286 0v695h-236v35h510v-35h-237v-695h-37z" />
    <glyph glyph-name="tcommaaccent" unicode="&#x163;" horiz-adv-x="335" 
d="M29 467v33h88v115l36 26v-141h137v-33h-137v-293q0 -88 26.5 -114t110.5 -26v-34h-5q-100 0 -134 34.5t-34 138.5v294h-88zM159 -272h-28l47 204h37z" />
    <glyph glyph-name="Tcaron" unicode="&#x164;" horiz-adv-x="610" 
d="M286 0v695h-236v35h510v-35h-237v-695h-37zM286 803l-119 147h40l94 -118l95 118h41l-119 -147h-32z" />
    <glyph glyph-name="tcaron" unicode="&#x165;" horiz-adv-x="335" 
d="M29 467v33h88v115l36 26v-141h137v-33h-137v-293q0 -88 26.5 -114t110.5 -26v-34h-5q-100 0 -134 34.5t-34 138.5v294h-88zM227 576l58 162h37l-66 -162h-29z" />
    <glyph glyph-name="Tbar" unicode="&#x166;" horiz-adv-x="610" 
d="M159 366v34h127v295h-236v35h510v-35h-237v-295h140v-34h-140v-366h-37v366h-127z" />
    <glyph glyph-name="tbar" unicode="&#x167;" horiz-adv-x="335" 
d="M29 467v33h88v115l36 26v-141h137v-33h-137v-180h121v-32h-121v-81q0 -88 26.5 -114t110.5 -26v-34h-5q-100 0 -134 34.5t-34 138.5v82h-82v32h82v180h-88z" />
    <glyph glyph-name="Utilde" unicode="&#x168;" horiz-adv-x="649" 
d="M324 -10q-105 0 -176.5 72t-71.5 175v493h37v-493q0 -89 61.5 -150.5t149.5 -61.5t150 61.5t62 150.5v493h37v-492q0 -104 -72 -176t-177 -72zM153 803q0 43 24.5 69.5t63.5 26.5q33 0 89 -34t83 -34q59 0 59 65h32q0 -46 -24.5 -71.5t-67.5 -25.5q-37 0 -95 35
q-51 32 -76 32t-41 -16.5t-16 -46.5h-31z" />
    <glyph glyph-name="utilde" unicode="&#x169;" horiz-adv-x="608" 
d="M299 -10q-104 0 -165.5 61t-61.5 168v281h37v-282q0 -89 51.5 -141.5t140.5 -52.5q83 0 140 55.5t57 138.5v282h36v-500h-35v118q-23 -56 -77 -92t-123 -36zM127 573q0 43 24.5 69.5t63.5 26.5q33 0 89 -34t83 -34q59 0 59 65h32q0 -46 -24.5 -71.5t-67.5 -25.5
q-37 0 -95 35q-51 32 -76 32t-41 -16.5t-16 -46.5h-31z" />
    <glyph glyph-name="Umacron" unicode="&#x16a;" horiz-adv-x="649" 
d="M324 -10q-105 0 -176.5 72t-71.5 175v493h37v-493q0 -89 61.5 -150.5t149.5 -61.5t150 61.5t62 150.5v493h37v-492q0 -104 -72 -176t-177 -72zM192 803v32h264v-32h-264z" />
    <glyph glyph-name="umacron" unicode="&#x16b;" horiz-adv-x="608" 
d="M299 -10q-104 0 -165.5 61t-61.5 168v281h37v-282q0 -89 51.5 -141.5t140.5 -52.5q83 0 140 55.5t57 138.5v282h36v-500h-35v118q-23 -56 -77 -92t-123 -36zM170 573v32h264v-32h-264z" />
    <glyph glyph-name="Ubreve" unicode="&#x16c;" horiz-adv-x="649" 
d="M324 -10q-105 0 -176.5 72t-71.5 175v493h37v-493q0 -89 61.5 -150.5t149.5 -61.5t150 61.5t62 150.5v493h37v-492q0 -104 -72 -176t-177 -72zM323 798q-78 0 -120 44.5t-42 106.5h33q0 -50 33.5 -85.5t95.5 -36.5q58 1 93 37t35 85h33q0 -60 -44.5 -105.5t-116.5 -45.5z
" />
    <glyph glyph-name="ubreve" unicode="&#x16d;" horiz-adv-x="608" 
d="M299 -10q-104 0 -165.5 61t-61.5 168v281h37v-282q0 -89 51.5 -141.5t140.5 -52.5q83 0 140 55.5t57 138.5v282h36v-500h-35v118q-23 -56 -77 -92t-123 -36zM301 564q-78 0 -120 44.5t-42 106.5h33q0 -50 33.5 -85.5t95.5 -36.5q58 1 93 37t35 85h33q0 -60 -44.5 -105.5
t-116.5 -45.5z" />
    <glyph glyph-name="Uring" unicode="&#x16e;" horiz-adv-x="649" 
d="M319 797q-37 0 -64 27t-27 64q0 39 27 66t64 27q39 0 66 -26.5t27 -66.5q0 -37 -27 -64t-66 -27zM319 828q25 0 43.5 18t18.5 42q0 26 -18.5 44.5t-43.5 18.5q-24 0 -42 -19t-18 -44q0 -24 18 -42t42 -18zM324 -10q-105 0 -176.5 72t-71.5 175v493h37v-493
q0 -89 61.5 -150.5t149.5 -61.5t150 61.5t62 150.5v493h37v-492q0 -104 -72 -176t-177 -72z" />
    <glyph glyph-name="uring" unicode="&#x16f;" horiz-adv-x="608" 
d="M299 -10q-104 0 -165.5 61t-61.5 168v281h37v-282q0 -89 51.5 -141.5t140.5 -52.5q83 0 140 55.5t57 138.5v282h36v-500h-35v118q-23 -56 -77 -92t-123 -36zM300 567q-37 0 -64 27t-27 64q0 39 27 66t64 27q39 0 66 -26.5t27 -66.5q0 -37 -27 -64t-66 -27zM300 598
q25 0 43.5 18t18.5 42q0 26 -18.5 44.5t-43.5 18.5q-24 0 -42 -19t-18 -44q0 -24 18 -42t42 -18z" />
    <glyph glyph-name="Uhungarumlaut" unicode="&#x170;" horiz-adv-x="649" 
d="M324 -10q-105 0 -176.5 72t-71.5 175v493h37v-493q0 -89 61.5 -150.5t149.5 -61.5t150 61.5t62 150.5v493h37v-492q0 -104 -72 -176t-177 -72zM241 803l123 147h48l-135 -147h-36zM342 803l123 147h48l-135 -147h-36z" />
    <glyph glyph-name="uhungarumlaut" unicode="&#x171;" horiz-adv-x="608" 
d="M299 -10q-104 0 -165.5 61t-61.5 168v281h37v-282q0 -89 51.5 -141.5t140.5 -52.5q83 0 140 55.5t57 138.5v282h36v-500h-35v118q-23 -56 -77 -92t-123 -36zM328 573l123 147h48l-135 -147h-36zM227 573l123 147h48l-135 -147h-36z" />
    <glyph glyph-name="Uogonek" unicode="&#x172;" horiz-adv-x="649" 
d="M325 -206q-54 0 -88 26t-34 65q0 60 85 108q-92 12 -152 81t-60 163v493h37v-493q0 -89 61.5 -150.5t149.5 -61.5t150 61.5t62 150.5v493h37v-492q0 -96 -62.5 -165.5t-157.5 -80.5q-62 -31 -87.5 -55.5t-25.5 -51.5t23.5 -43t61.5 -16q52 0 98 44l30 -21
q-59 -55 -128 -55z" />
    <glyph glyph-name="uogonek" unicode="&#x173;" horiz-adv-x="608" 
d="M517 -220q-48 0 -75.5 27t-27.5 66q0 62 85 138v107q-23 -56 -77 -92t-123 -36q-104 0 -165.5 61t-61.5 168v281h37v-282q0 -89 51.5 -141.5t140.5 -52.5q83 0 140 55.5t57 138.5v282h36v-500h-2l2 -1q-86 -68 -86 -124q0 -28 19 -45.5t50 -17.5q42 0 83 39l23 -25
q-54 -46 -106 -46z" />
    <glyph glyph-name="Wcircumflex" unicode="&#x174;" horiz-adv-x="1075" 
d="M265 0l-218 730h41l197 -671l233 671h36l233 -672l201 672h39l-221 -730h-38l-232 670l-233 -670h-38zM400 803l119 147h32l119 -147h-40l-95 117l-94 -117h-41z" />
    <glyph glyph-name="wcircumflex" unicode="&#x175;" horiz-adv-x="825" 
d="M201 0l-159 500h39l139 -440l178 440h33l170 -443l143 443h39l-165 -500h-33l-172 447l-180 -447h-32zM279 573l119 147h32l119 -147h-40l-95 117l-94 -117h-41z" />
    <glyph glyph-name="Ycircumflex" unicode="&#x176;" horiz-adv-x="606" 
d="M285 0v348l-248 382h43l223 -346l223 346h43l-247 -382v-348h-37zM166 803l119 147h32l119 -147h-40l-95 117l-94 -117h-41z" />
    <glyph glyph-name="ycircumflex" unicode="&#x177;" horiz-adv-x="559" 
d="M148 -231l119 259l-228 472h41l206 -430l194 430h40l-332 -731h-40zM143 573l119 147h32l119 -147h-40l-95 117l-94 -117h-41z" />
    <glyph glyph-name="Ydieresis" unicode="&#x178;" horiz-adv-x="606" 
d="M285 0v348l-248 382h43l223 -346l223 346h43l-247 -382v-348h-37zM234 805v140h36v-140h-36zM334 805v140h36v-140h-36z" />
    <glyph glyph-name="Zacute" unicode="&#x179;" horiz-adv-x="598" 
d="M55 0v35l440 660h-419v35h464v-34l-441 -660h444v-36h-488zM279 803l123 147h50l-135 -147h-38z" />
    <glyph glyph-name="zacute" unicode="&#x17a;" horiz-adv-x="538" 
d="M49 0v35l391 431h-377v34h423v-35l-391 -431h394v-34h-440zM246 573l123 147h50l-135 -147h-38z" />
    <glyph glyph-name="Zdotaccent" unicode="&#x17b;" horiz-adv-x="598" 
d="M55 0v35l440 660h-419v35h464v-34l-441 -660h444v-36h-488zM287 805v140h37v-140h-37z" />
    <glyph glyph-name="zdotaccent" unicode="&#x17c;" horiz-adv-x="538" 
d="M49 0v35l391 431h-377v34h423v-35l-391 -431h394v-34h-440zM253 575v140h37v-140h-37z" />
    <glyph glyph-name="Zcaron" unicode="&#x17d;" horiz-adv-x="598" 
d="M55 0v35l440 660h-419v35h464v-34l-441 -660h444v-36h-488zM288 803l-119 147h40l94 -118l95 118h41l-119 -147h-32z" />
    <glyph glyph-name="zcaron" unicode="&#x17e;" horiz-adv-x="538" 
d="M49 0v35l391 431h-377v34h423v-35l-391 -431h394v-34h-440zM257 573l-119 147h40l94 -118l95 118h41l-119 -147h-32z" />
    <glyph glyph-name="florin" unicode="&#x192;" 
d="M131 364v34h160l44 155q27 100 67.5 138.5t115.5 38.5h4v-34q-64 0 -94.5 -29.5t-55.5 -118.5l-42 -150h155v-34h-164l-52 -187q-29 -103 -68.5 -140t-130.5 -37h-4v34q77 0 108 29t57 120l51 181h-151z" />
    <glyph glyph-name="Aringacute" unicode="&#x1fa;" horiz-adv-x="691" 
d="M41 0l275 705q-28 8 -46 32.5t-18 54.5q0 39 27 66t64 27q39 0 66 -26.5t27 -66.5q0 -29 -17.5 -52.5t-44.5 -33.5l276 -706h-39l-88 224h-355l-87 -224h-40zM346 679l-164 -421h328zM343 732q25 0 43.5 18t18.5 42q0 26 -18.5 44.5t-43.5 18.5q-24 0 -42 -19t-18 -44
q0 -24 18 -42t42 -18zM323 923l123 147h50l-135 -147h-38z" />
    <glyph glyph-name="aringacute" unicode="&#x1fb;" horiz-adv-x="641" 
d="M310 -10q-108 0 -183.5 76t-75.5 184t75 184t184 76q71 0 132.5 -38.5t88.5 -104.5v133h36v-500h-36v133q-27 -66 -88.5 -104.5t-132.5 -38.5zM311 24q94 0 158.5 66t64.5 160t-64.5 160t-158.5 66q-93 0 -157.5 -66t-64.5 -160t64.5 -160t157.5 -66zM316 564
q-37 0 -64 27t-27 64q0 39 27 66t64 27q39 0 66 -26.5t27 -66.5q0 -37 -27 -64t-66 -27zM316 595q25 0 43.5 18t18.5 42q0 26 -18.5 44.5t-43.5 18.5q-24 0 -42 -19t-18 -44q0 -24 18 -42t42 -18zM295 791l123 147h50l-135 -147h-38z" />
    <glyph glyph-name="AEacute" unicode="&#x1fc;" horiz-adv-x="1075" 
d="M49 0l393 730h547v-35h-498l66 -312h432v-35h-424l66 -312h358v-36h-386l-47 217h-348l-117 -217h-42zM457 680l-231 -429h323zM575 803l123 147h50l-135 -147h-38z" />
    <glyph glyph-name="aeacute" unicode="&#x1fd;" horiz-adv-x="989" 
d="M680 -10q-77 0 -137 35t-93 96q-27 -52 -86 -91.5t-139 -39.5q-88 0 -128.5 37t-41.5 95q-1 68 49.5 101.5t142.5 51.5q106 21 132 32q52 22 52 64q0 50 -40 79t-119 29q-80 0 -126.5 -39t-46.5 -103v-3h-35v2q0 79 56.5 126.5t150.5 47.5q82 0 131 -30t60 -84
q35 53 92 83.5t125 30.5q110 0 183.5 -73.5t73.5 -183.5v-11h-482q2 -93 66.5 -156t159.5 -63q80 0 138 44.5t77 117.5l34 -13q-23 -82 -90 -132t-159 -50zM679 477q-88 0 -151 -58t-73 -144h443q-8 88 -69 145t-150 57zM226 21q75 0 129.5 40.5t79.5 94.5q-16 42 -16 93
q0 32 5 53q-12 -15 -38.5 -25.5t-47.5 -15t-79 -15.5q-84 -16 -125.5 -41.5t-41.5 -81.5q0 -45 32.5 -73.5t101.5 -28.5zM460 573l123 147h50l-135 -147h-38z" />
    <glyph glyph-name="Oslashacute" unicode="&#x1fe;" horiz-adv-x="861" 
d="M140 0l54 73q-65 53 -102 129t-37 163q0 155 110 265t265 110q114 0 208 -63l39 53h45l-55 -75q64 -53 101 -128.5t37 -161.5q0 -155 -110 -265t-265 -110q-112 0 -207 62l-38 -52h-45zM94 365q0 -78 32.5 -146.5t88.5 -115.5l402 545q-85 57 -187 57q-140 0 -238 -99.5
t-98 -240.5zM430 25q141 0 239 99.5t98 240.5q0 77 -32 145.5t-89 115.5l-401 -545q85 -56 185 -56zM405 803l123 147h50l-135 -147h-38z" />
    <glyph glyph-name="oslashacute" unicode="&#x1ff;" horiz-adv-x="622" 
d="M311 -10q-74 0 -140 40l-22 -30h-42l37 50q-93 77 -93 200q0 109 76 184.5t184 75.5q76 0 141 -41l23 31h42l-38 -51q92 -79 92 -199q0 -109 -76 -184.5t-184 -75.5zM89 250q0 -105 76 -171l266 361q-55 36 -120 36q-93 0 -157.5 -66t-64.5 -160zM311 24q93 0 157.5 66
t64.5 160q0 102 -75 170l-266 -361q54 -35 119 -35zM283 573l123 147h50l-135 -147h-38z" />
    <glyph glyph-name="Scommaaccent" unicode="&#x218;" horiz-adv-x="552" 
d="M238 -258h-28l47 204h37zM266 -10q-72 0 -132 28.5t-98 76.5l31 24q34 -43 86 -69t113 -26q81 0 137 46.5t56 124.5q0 32 -11.5 57t-27 41t-45 31.5t-50.5 23t-58 19.5q-40 13 -62 21t-54 25t-48.5 35t-29 47t-12.5 65q0 80 60 130t150 50q130 0 204 -91l-30 -22
q-58 79 -175 79q-72 0 -122 -40.5t-50 -105.5q0 -25 6.5 -45.5t22.5 -36.5t29 -26.5t41.5 -22t42.5 -16.5t49 -16q47 -15 77 -28t64 -36.5t50.5 -57.5t16.5 -80q0 -90 -66 -147.5t-165 -57.5z" />
    <glyph glyph-name="scommaaccent" unicode="&#x219;" horiz-adv-x="459" 
d="M189 -259h-28l47 204h37zM225 -10q-60 0 -111.5 26t-80.5 66l29 23q26 -37 69.5 -59.5t94.5 -22.5q70 0 108 32.5t38 81.5q0 20 -9.5 36t-20.5 25.5t-36 19.5t-38.5 13.5t-46.5 12.5q-38 10 -61.5 18.5t-49.5 23.5t-39 38t-13 54q0 56 46 94t121 38q108 0 168 -69
l-27 -22q-53 59 -141 59q-60 0 -95.5 -27.5t-35.5 -71.5q0 -19 9 -34.5t19.5 -25t35 -19t37.5 -13t45 -12.5t50 -14.5t44 -17t39.5 -24.5t24 -34t10.5 -48q0 -60 -48 -103.5t-135 -43.5z" />
    <glyph glyph-name="dotlessj" unicode="&#x237;" horiz-adv-x="186" 
d="M-63 -228v36q85 0 111.5 25t26.5 113v554h37v-555q0 -103 -35 -138t-135 -35h-5z" />
    <glyph glyph-name="circumflex" unicode="&#x2c6;" horiz-adv-x="507" 
d="M118 573l119 147h32l119 -147h-40l-95 117l-94 -117h-41z" />
    <glyph glyph-name="caron" unicode="&#x2c7;" horiz-adv-x="507" 
d="M237 573l-119 147h40l94 -118l95 118h41l-119 -147h-32z" />
    <glyph glyph-name="breve" unicode="&#x2d8;" horiz-adv-x="507" 
d="M253 564q-78 0 -120 44.5t-42 106.5h33q0 -50 33.5 -85.5t95.5 -36.5q58 1 93 37t35 85h33q0 -60 -44.5 -105.5t-116.5 -45.5z" />
    <glyph glyph-name="dotaccent" unicode="&#x2d9;" horiz-adv-x="509" 
d="M226 575v140h37v-140h-37z" />
    <glyph glyph-name="ring" unicode="&#x2da;" horiz-adv-x="507" 
d="M248 567q-37 0 -64 27t-27 64q0 39 27 66t64 27q39 0 66 -26.5t27 -66.5q0 -37 -27 -64t-66 -27zM248 598q25 0 43.5 18t18.5 42q0 26 -18.5 44.5t-43.5 18.5q-24 0 -42 -19t-18 -44q0 -24 18 -42t42 -18z" />
    <glyph glyph-name="ogonek" unicode="&#x2db;" horiz-adv-x="507" 
d="M245 -202q-54 0 -88 26t-34 65q0 71 126 128l29 -19q-65 -32 -91.5 -57t-26.5 -52t23.5 -43t61.5 -16q52 0 98 44l30 -21q-59 -55 -128 -55z" />
    <glyph glyph-name="tilde" unicode="&#x2dc;" horiz-adv-x="507" 
d="M77 573q0 43 24.5 69.5t63.5 26.5q33 0 89 -34t83 -34q59 0 59 65h32q0 -46 -24.5 -71.5t-67.5 -25.5q-37 0 -95 35q-51 32 -76 32t-41 -16.5t-16 -46.5h-31z" />
    <glyph glyph-name="hungarumlaut" unicode="&#x2dd;" horiz-adv-x="507" 
d="M114 573l123 147h48l-135 -147h-36zM215 573l123 147h48l-135 -147h-36z" />
    <glyph glyph-name="uni0328" unicode="&#x328;" horiz-adv-x="507" 
d="M263 -220q-48 0 -75.5 27t-27.5 66q0 63 91 144l29 -18q-86 -68 -86 -124q0 -28 19 -45.5t50 -17.5q42 0 83 39l23 -25q-54 -46 -106 -46z" />
    <glyph glyph-name="pi" unicode="&#x3c0;" horiz-adv-x="731" 
d="M43 694v36h646v-36h-142v-543q0 -116 96 -116h39v-35h-42q-130 0 -130 150v544h-299v-694h-37v694h-131z" />
    <glyph glyph-name="pi" unicode="&#x3d6;" horiz-adv-x="731" 
d="M43 694v36h646v-36h-142v-543q0 -116 96 -116h39v-35h-42q-130 0 -130 150v544h-299v-694h-37v694h-131z" />
    <glyph glyph-name="uni0E3F" unicode="&#xe3f;" horiz-adv-x="543" 
d="M71 69v596h183v65h34v-65h22q73 0 121 -43.5t48 -109.5q0 -48 -25.5 -84t-70.5 -52q48 -16 76 -54.5t28 -90.5q0 -71 -48 -116.5t-123 -45.5h-28v-69h-34v69h-183zM107 359v-257h147v257h-147zM107 631v-238h147v238h-147zM315 359h-27v-257h28q58 0 96.5 37t38.5 92
t-38 91.5t-98 36.5zM310 631h-22v-238h30q55 0 89.5 34t34.5 85t-38 85t-94 34z" />
    <glyph glyph-name="Wgrave" unicode="&#x1e80;" horiz-adv-x="1075" 
d="M265 0l-218 730h41l197 -671l233 671h36l233 -672l201 672h39l-221 -730h-38l-232 670l-233 -670h-38zM516 803l-135 147h50l123 -147h-38z" />
    <glyph glyph-name="wgrave" unicode="&#x1e81;" horiz-adv-x="825" 
d="M201 0l-159 500h39l139 -440l178 440h33l170 -443l143 443h39l-165 -500h-33l-172 447l-180 -447h-32zM392 573l-135 147h50l123 -147h-38z" />
    <glyph glyph-name="Wacute" unicode="&#x1e82;" horiz-adv-x="1075" 
d="M265 0l-218 730h41l197 -671l233 671h36l233 -672l201 672h39l-221 -730h-38l-232 670l-233 -670h-38zM515 803l123 147h50l-135 -147h-38z" />
    <glyph glyph-name="wacute" unicode="&#x1e83;" horiz-adv-x="825" 
d="M201 0l-159 500h39l139 -440l178 440h33l170 -443l143 443h39l-165 -500h-33l-172 447l-180 -447h-32zM395 573l123 147h50l-135 -147h-38z" />
    <glyph glyph-name="Wdieresis" unicode="&#x1e84;" horiz-adv-x="1075" 
d="M265 0l-218 730h41l197 -671l233 671h36l233 -672l201 672h39l-221 -730h-38l-232 670l-233 -670h-38zM468 805v140h36v-140h-36zM568 805v140h36v-140h-36z" />
    <glyph glyph-name="wdieresis" unicode="&#x1e85;" horiz-adv-x="825" 
d="M201 0l-159 500h39l139 -440l178 440h33l170 -443l143 443h39l-165 -500h-33l-172 447l-180 -447h-32zM348 575v140h36v-140h-36zM448 575v140h36v-140h-36z" />
    <glyph glyph-name="Ygrave" unicode="&#x1ef2;" horiz-adv-x="606" 
d="M285 0v348l-248 382h43l223 -346l223 346h43l-247 -382v-348h-37zM285 803l-135 147h50l123 -147h-38z" />
    <glyph glyph-name="ygrave" unicode="&#x1ef3;" horiz-adv-x="559" 
d="M148 -231l119 259l-228 472h41l206 -430l194 430h40l-332 -731h-40zM267 573l-135 147h50l123 -147h-38z" />
    <glyph glyph-name="figuredash" unicode="&#x2012;" horiz-adv-x="678" 
d="M54 237v33h570v-33h-570z" />
    <glyph glyph-name="endash" unicode="&#x2013;" horiz-adv-x="528" 
d="M54 237v33h420v-33h-420z" />
    <glyph glyph-name="emdash" unicode="&#x2014;" horiz-adv-x="728" 
d="M54 237v33h620v-33h-620z" />
    <glyph glyph-name="uni2015" unicode="&#x2015;" horiz-adv-x="1028" 
d="M54 237v33h920v-33h-920z" />
    <glyph glyph-name="doublebar" unicode="&#x2016;" horiz-adv-x="327" 
d="M71 -230v960h37v-960h-37zM219 -230v960h37v-960h-37z" />
    <glyph glyph-name="quoteleft" unicode="&#x2018;" horiz-adv-x="177" 
d="M83 730l47 -204h-27l-59 204h39z" />
    <glyph glyph-name="quoteright" unicode="&#x2019;" horiz-adv-x="177" 
d="M73 526h-28l47 204h39z" />
    <glyph glyph-name="quotesinglbase" unicode="&#x201a;" horiz-adv-x="179" 
d="M62 -117h-27l47 204h39z" />
    <glyph glyph-name="reversequoteleft" unicode="&#x201b;" horiz-adv-x="177" 
d="M73 526h-28l47 204h39z" />
    <glyph glyph-name="quotedblleft" unicode="&#x201c;" horiz-adv-x="268" 
d="M83 730l47 -204h-27l-57 204h37zM174 730l46 -204h-26l-58 204h38z" />
    <glyph glyph-name="quotedblright" unicode="&#x201d;" horiz-adv-x="268" 
d="M73 526h-28l47 204h39zM163 526h-27l47 204h39z" />
    <glyph glyph-name="quotedblbase" unicode="&#x201e;" horiz-adv-x="269" 
d="M63 -117h-27l47 204h39zM154 -117h-27l46 204h39z" />
    <glyph glyph-name="reversequotedblleft" unicode="&#x201f;" horiz-adv-x="268" 
d="M73 526h-28l47 204h39zM163 526h-27l47 204h39z" />
    <glyph glyph-name="dagger" unicode="&#x2020;" horiz-adv-x="594" 
d="M71 467v33h206v230h37v-230h210v-33h-210v-467h-37v467h-206z" />
    <glyph glyph-name="daggerdbl" unicode="&#x2021;" horiz-adv-x="594" 
d="M71 477v32h206v221h37v-221h210v-32h-210v-217h210v-33h-210v-227h-37v227h-206v33h206v217h-206z" />
    <glyph glyph-name="bullet" unicode="&#x2022;" horiz-adv-x="276" 
d="M138 206q-19 0 -32.5 13.5t-13.5 32.5t13.5 32.5t32.5 13.5t32.5 -13.5t13.5 -32.5t-13.5 -32.5t-32.5 -13.5z" />
    <glyph glyph-name="ellipsis" unicode="&#x2026;" horiz-adv-x="422" 
d="M71 0v137h38v-137h-38zM192 0v137h38v-137h-38zM313 0v137h38v-137h-38z" />
    <glyph glyph-name="perthousand" unicode="&#x2030;" horiz-adv-x="1284" 
d="M102 0l627 730h49l-627 -730h-49zM630 -11q-68 0 -115.5 47.5t-47.5 115.5t47.5 115.5t115.5 47.5t116 -47.5t48 -115.5q0 -67 -48 -115t-116 -48zM630 21q53 0 91.5 39t38.5 92q0 54 -38.5 92.5t-91.5 38.5t-91 -38.5t-38 -92.5q0 -53 38.5 -92t90.5 -39zM250 414
q-68 0 -116 47.5t-48 115.5t48 115.5t116 47.5q67 0 115 -47.5t48 -115.5q0 -67 -48 -115t-115 -48zM250 446q53 0 91 38.5t38 92.5t-38 92.5t-91 38.5t-91.5 -38.5t-38.5 -92.5t38.5 -92.5t91.5 -38.5zM1034 -11q-68 0 -115.5 47.5t-47.5 115.5t47.5 115.5t115.5 47.5
t115.5 -47.5t47.5 -115.5t-47.5 -115.5t-115.5 -47.5zM1034 21q53 0 91.5 39t38.5 92q0 54 -38.5 92.5t-91.5 38.5t-91.5 -38.5t-38.5 -92.5q0 -53 38.5 -92t91.5 -39z" />
    <glyph glyph-name="minute" unicode="&#x2032;" horiz-adv-x="177" 
d="M73 526h-28l47 204h39z" />
    <glyph glyph-name="second" unicode="&#x2033;" horiz-adv-x="268" 
d="M73 526h-28l47 204h39zM163 526h-27l47 204h39z" />
    <glyph glyph-name="tripleprime" unicode="&#x2034;" horiz-adv-x="367" 
d="M80 500q-10 65 -10 146v84h34v-84q0 -81 -10 -146h-14zM177 500q-10 65 -10 146v84h34v-84q0 -81 -10 -146h-14zM274 500q-10 65 -10 146v84h34v-84q0 -81 -10 -146h-14z" />
    <glyph glyph-name="guilsinglleft" unicode="&#x2039;" horiz-adv-x="287" 
d="M216 117l-145 119v27l145 119v-35l-119 -98l119 -98v-34z" />
    <glyph glyph-name="guilsinglright" unicode="&#x203a;" horiz-adv-x="287" 
d="M71 118v33l119 98l-119 99v34l145 -119v-26z" />
    <glyph glyph-name="fraction" unicode="&#x2044;" horiz-adv-x="629" 
d="M29 0l527 730h44l-527 -730h-44z" />
    <glyph glyph-name="uni2070" unicode="&#x2070;" horiz-adv-x="507" 
d="M254 302q-90 0 -153.5 63.5t-63.5 153.5t63.5 153.5t153.5 63.5t153 -63.5t63 -153.5t-63 -153.5t-153 -63.5zM254 335q76 0 129 54t53 130t-53 130t-129 54t-129 -54t-53 -130t53 -130t129 -54z" />
    <glyph glyph-name="uni2074" unicode="&#x2074;" horiz-adv-x="372" 
d="M242 308v97h-206v31l205 294h34v-294h62v-31h-62v-97h-33zM73 436h169v241z" />
    <glyph glyph-name="uni2075" unicode="&#x2075;" horiz-adv-x="364" 
d="M184 302q-103 0 -141 80l31 19q31 -67 110 -67q45 0 77.5 30.5t32.5 78.5q0 52 -33 81t-78 29q-74 0 -107 -70l-32 14l32 233h224v-31h-197l-22 -164q39 49 104 49q59 0 101 -37t42 -104q0 -61 -40.5 -101t-103.5 -40z" />
    <glyph glyph-name="uni2076" unicode="&#x2076;" horiz-adv-x="371" 
d="M180 302q-62 0 -104.5 42t-42.5 104q0 54 33 99l127 183h40l-105 -150q29 13 58 13q59 0 100.5 -42t41.5 -103t-43 -103.5t-105 -42.5zM180 333q47 0 80.5 34t33.5 81q0 48 -33 81.5t-81 33.5t-81 -33.5t-33 -81.5t33 -81.5t81 -33.5z" />
    <glyph glyph-name="uni2077" unicode="&#x2077;" horiz-adv-x="327" 
d="M75 308l185 390h-222v32h258v-30l-184 -392h-37z" />
    <glyph glyph-name="uni2078" unicode="&#x2078;" horiz-adv-x="348" 
d="M174 302q-61 0 -97.5 35.5t-36.5 86.5q0 39 21.5 68t59.5 43q-62 27 -62 92q0 46 32 77.5t83 31.5t83.5 -31.5t32.5 -77.5q0 -65 -63 -92q37 -14 58.5 -43t21.5 -68q0 -51 -36 -86.5t-97 -35.5zM173 333q46 0 73.5 26t27.5 65t-27.5 66t-73.5 27q-44 0 -71 -27t-27 -66
t26.5 -65t71.5 -26zM173 551q37 0 59.5 22t22.5 54q0 34 -22.5 55.5t-59.5 21.5q-36 0 -58 -22t-22 -55q0 -32 22.5 -54t57.5 -22z" />
    <glyph glyph-name="uni2079" unicode="&#x2079;" horiz-adv-x="358" 
d="M125 308l106 158q-28 -13 -57 -13q-58 0 -98.5 40.5t-40.5 100.5t42 101t102 41t101.5 -41.5t41.5 -100.5q0 -49 -27 -89l-130 -197h-40zM179 483q46 0 78 32.5t32 78.5t-32 78.5t-78 32.5t-78.5 -32.5t-32.5 -78.5t32.5 -78.5t78.5 -32.5z" />
    <glyph glyph-name="uni207A" unicode="&#x207a;" horiz-adv-x="287" 
d="M37 505v29h92v91h29v-91h92v-29h-92v-93h-29v93h-92z" />
    <glyph glyph-name="uni207B" unicode="&#x207b;" horiz-adv-x="287" 
d="M37 505v29h213v-29h-213z" />
    <glyph glyph-name="uni207C" unicode="&#x207c;" horiz-adv-x="287" 
d="M37 550v29h213v-29h-213zM37 457v29h213v-29h-213z" />
    <glyph glyph-name="uni207D" unicode="&#x207d;" horiz-adv-x="275" 
d="M208 218q-162 111 -162 302t158 300l22 -27q-145 -97 -145 -273q0 -174 148 -274z" />
    <glyph glyph-name="uni207E" unicode="&#x207e;" horiz-adv-x="275" 
d="M66 218l-20 28q148 100 148 274q0 176 -145 273l21 27q159 -109 159 -300t-163 -302z" />
    <glyph glyph-name="uni2080" unicode="&#x2080;" horiz-adv-x="507" 
d="M254 -6q-90 0 -153.5 63.5t-63.5 153.5t63.5 153.5t153.5 63.5t153 -63.5t63 -153.5t-63 -153.5t-153 -63.5zM254 27q76 0 129 54t53 130t-53 130t-129 54t-129 -54t-53 -130t53 -130t129 -54z" />
    <glyph glyph-name="uni2081" unicode="&#x2081;" horiz-adv-x="278" 
d="M41 0v32h85v325q-7 -16 -27.5 -27.5t-42.5 -11.5h-7v35h3q38 0 56.5 21t18.5 48h33v-390h82v-32h-201z" />
    <glyph glyph-name="uni2082" unicode="&#x2082;" horiz-adv-x="350" 
d="M44 0v35q0 31 21 61.5t42.5 47.5t60.5 44q38 27 55 40t35 37.5t18 48.5q0 37 -27 60.5t-71 23.5q-36 0 -64 -19t-43 -51l-30 15q41 85 137 85q59 0 95.5 -32.5t36.5 -82.5q0 -30 -20 -59.5t-39.5 -45t-59.5 -44.5q-37 -25 -56 -39.5t-37.5 -39.5t-18.5 -50v-3h233v-32
h-268z" />
    <glyph glyph-name="uni2083" unicode="&#x2083;" horiz-adv-x="338" 
d="M164 -6q-85 0 -132 55l29 22q35 -46 103 -46q45 0 74.5 25.5t29.5 65.5t-30 63.5t-76 23.5h-39v32h39q44 0 70.5 23t26.5 59t-26.5 58.5t-70.5 22.5q-31 0 -56.5 -13.5t-38.5 -32.5l-28 18q18 24 50.5 41t72.5 17q59 0 94.5 -30t35.5 -80q0 -72 -67 -99q77 -27 77 -103
q0 -54 -38 -88t-100 -34z" />
    <glyph glyph-name="uni2084" unicode="&#x2084;" horiz-adv-x="372" 
d="M242 0v97h-206v31l205 294h34v-294h62v-31h-62v-97h-33zM73 128h169v241z" />
    <glyph glyph-name="uni2085" unicode="&#x2085;" horiz-adv-x="364" 
d="M184 -6q-103 0 -141 80l31 19q31 -67 110 -67q45 0 77.5 30.5t32.5 78.5q0 52 -33 81t-78 29q-74 0 -107 -70l-32 14l32 233h224v-31h-197l-22 -164q39 49 104 49q59 0 101 -37t42 -104q0 -61 -40.5 -101t-103.5 -40z" />
    <glyph glyph-name="uni2086" unicode="&#x2086;" horiz-adv-x="376" 
d="M188 -6q-62 0 -104.5 42t-42.5 104q0 54 33 99l127 183h40l-105 -150q29 13 58 13q59 0 100.5 -42t41.5 -103t-43 -103.5t-105 -42.5zM188 25q47 0 80.5 34t33.5 81q0 48 -33 81.5t-81 33.5t-81 -33.5t-33 -81.5t33 -81.5t81 -33.5z" />
    <glyph glyph-name="uni2087" unicode="&#x2087;" horiz-adv-x="327" 
d="M75 0l185 390h-222v32h258v-30l-184 -392h-37z" />
    <glyph glyph-name="uni2088" unicode="&#x2088;" horiz-adv-x="348" 
d="M174 -6q-61 0 -97.5 35.5t-36.5 86.5q0 39 21.5 68t59.5 43q-62 27 -62 92q0 46 32 77.5t83 31.5t83.5 -31.5t32.5 -77.5q0 -65 -63 -92q37 -14 58.5 -43t21.5 -68q0 -51 -36 -86.5t-97 -35.5zM173 25q46 0 73.5 26t27.5 65t-27.5 66t-73.5 27q-44 0 -71 -27t-27 -66
t26.5 -65t71.5 -26zM173 243q37 0 59.5 22t22.5 54q0 34 -22.5 55.5t-59.5 21.5q-36 0 -58 -22t-22 -55q0 -32 22.5 -54t57.5 -22z" />
    <glyph glyph-name="uni2089" unicode="&#x2089;" horiz-adv-x="358" 
d="M125 0l106 158q-28 -13 -57 -13q-58 0 -98.5 40.5t-40.5 100.5t42 101t102 41t101.5 -41.5t41.5 -100.5q0 -49 -27 -89l-130 -197h-40zM179 175q46 0 78 32.5t32 78.5t-32 78.5t-78 32.5t-78.5 -32.5t-32.5 -78.5t32.5 -78.5t78.5 -32.5z" />
    <glyph glyph-name="uni208A" unicode="&#x208a;" horiz-adv-x="287" 
d="M37 197v29h92v91h29v-91h92v-29h-92v-93h-29v93h-92z" />
    <glyph glyph-name="uni208B" unicode="&#x208b;" horiz-adv-x="287" 
d="M37 197v29h213v-29h-213z" />
    <glyph glyph-name="uni208C" unicode="&#x208c;" horiz-adv-x="287" 
d="M37 242v29h213v-29h-213zM37 149v29h213v-29h-213z" />
    <glyph glyph-name="uni208D" unicode="&#x208d;" horiz-adv-x="275" 
d="M208 -90q-162 111 -162 302t158 300l22 -27q-145 -97 -145 -273q0 -174 148 -274z" />
    <glyph glyph-name="uni208E" unicode="&#x208e;" horiz-adv-x="275" 
d="M66 -90l-20 28q148 100 148 274q0 176 -145 273l21 27q159 -109 159 -300t-163 -302z" />
    <glyph glyph-name="uni20A1" unicode="&#x20a1;" horiz-adv-x="811" 
d="M185 -120h-34l72 175q-76 52 -119.5 133.5t-43.5 176.5q0 155 110 265t265 110q35 0 66 -6l44 106h35l-47 -113q39 -11 79 -32l60 145h35l-67 -162q71 -48 114 -118l-32 -18q-39 63 -96 102l-252 -614q33 -5 61 -5q96 0 174.5 47t122.5 127l33 -17q-50 -88 -137.5 -140
t-192.5 -52q-37 0 -75 8l-48 -118h-34l51 125q-37 11 -79 34zM98 365q0 -84 37 -156.5t102 -119.5l251 612q-34 4 -53 4q-141 0 -239 -99.5t-98 -240.5zM264 72q34 -21 79 -34l256 624q-40 22 -79 32z" />
    <glyph glyph-name="uni20A2" unicode="&#x20a2;" horiz-adv-x="811" 
d="M435 -10q-155 0 -265 110t-110 265t110 265t265 110q99 0 183.5 -49t135.5 -131l-32 -18q-45 75 -120.5 119t-166.5 44q-141 0 -239 -99.5t-98 -240.5q0 -133 87.5 -230t217.5 -109v360h36v-126q22 57 71 91.5t116 34.5h53v-35h-53q-84 0 -135 -55t-51 -148v-123
q94 1 171 48t121 126l33 -17q-50 -88 -137.5 -140t-192.5 -52z" />
    <glyph glyph-name="franc" unicode="&#x20a3;" horiz-adv-x="552" 
d="M71 0v730h413v-35h-376v-243h376v-34h-376v-116h376v-34h-376v-268h-37z" />
    <glyph glyph-name="lira" unicode="&#x20a4;" horiz-adv-x="714" 
d="M80 388v31h110q-29 61 -29 126q0 88 57.5 141.5t153.5 53.5q73 0 127 -29.5t82 -84.5l-30 -22q-49 103 -180 103q-78 0 -125.5 -45t-47.5 -117q0 -64 32 -126h251v-31h-234q4 -7 12 -19h222v-31h-203q63 -99 63 -177q0 -35 -12 -66q45 -36 82.5 -55t81.5 -19
q66 0 96.5 33.5t30.5 119.5v16h37v-21q0 -97 -39.5 -138t-120.5 -41q-53 0 -94 20.5t-88 57.5q-48 -79 -145 -79q-58 0 -89 26.5t-31 70.5q0 42 29.5 68.5t80.5 26.5q37 1 70 -16t73 -49q7 24 7 44q0 34 -12 68t-23.5 54t-35.5 56h-159v31h139q-8 12 -12 19h-127zM169 19
q82 0 122 69q-26 21 -42.5 32t-41 21t-47.5 10q-36 0 -56 -18t-20 -48q0 -29 22.5 -47.5t62.5 -18.5z" />
    <glyph glyph-name="uni20A6" unicode="&#x20a6;" horiz-adv-x="804" 
d="M28 424v30h80v276h39l209 -276h303v276h37v-276h80v-30h-80v-110h80v-31h-80v-283h-39l-215 283h-296v-283h-38v283h-80v31h80v110h-80zM379 424l84 -110h196v110h-280zM146 424v-110h273l-84 110h-189zM486 283l173 -227v227h-173zM313 454l-167 220v-220h167z" />
    <glyph glyph-name="peseta" unicode="&#x20a7;" horiz-adv-x="1254" 
d="M991 0h-145q-108 0 -151.5 44t-43.5 149v274h-100q-7 -100 -79.5 -163.5t-187.5 -63.5h-176v-240h-37v730h213q117 0 189.5 -64.5t77.5 -165.5h100v119l36 21v-140h126v-33h-126v-273q0 -90 35.5 -125t127.5 -35h142q88 0 130.5 28.5t42.5 76.5q0 20 -9.5 35.5t-20.5 25
t-35 19t-38.5 13.5t-45.5 12q-40 10 -62 17.5t-50 23t-41 38.5t-13 55q0 56 46 94t121 38q109 0 169 -69l-28 -22q-53 59 -141 59q-60 0 -95.5 -27.5t-35.5 -71.5q0 -19 9 -34.5t19.5 -25t34.5 -19t38.5 -13.5t46.5 -12q33 -8 50 -13t43.5 -17t40 -24.5t24 -33.5t10.5 -48
q0 -63 -51.5 -101t-159.5 -38zM282 695h-174v-420h174q106 0 169 59t63 152q0 92 -63 150.5t-169 58.5z" />
    <glyph glyph-name="uni20A8" unicode="&#x20a8;" horiz-adv-x="990" 
d="M732 -11q-337 0 -473 326h30q83 0 140 56.5t57 134.5q0 79 -56.5 134t-139.5 55h-182v-695h-37v730h221q97 0 164.5 -65.5t67.5 -158.5q0 -88 -59.5 -151.5t-150.5 -69.5q127 -262 418 -262q81 0 125.5 32.5t44.5 81.5q0 20 -9.5 36t-20.5 25.5t-35.5 19.5t-39 14
t-46.5 12q-31 8 -49 13.5t-43 17t-39 24t-24 33t-10 46.5q0 56 46 94t121 38q109 0 169 -69l-28 -22q-53 59 -141 59q-60 0 -95.5 -27.5t-35.5 -71.5q0 -16 5 -29t18 -23.5t22 -17t32.5 -14t33 -10t38.5 -10.5q31 -8 49.5 -14t44 -18t39 -25t24 -34t10.5 -47
q0 -63 -52.5 -105.5t-153.5 -42.5z" />
    <glyph glyph-name="uni20A9" unicode="&#x20a9;" horiz-adv-x="1082" 
d="M28 424v30h106l-82 276h40l81 -276h254l96 276h35l95 -276h257l82 276h40l-84 -276h106v-30h-115l-33 -110h148v-31h-158l-85 -283h-39l-98 283h-269l-98 -283h-38l-85 283h-156v31h147l-32 110h-115zM454 424l-38 -110h247l-38 110h-171zM664 424l38 -110h166l33 110
h-237zM182 424l32 -110h164l38 110h-234zM713 283l78 -225l67 225h-145zM540 670l-76 -216h151zM223 283l67 -225l78 225h-145z" />
    <glyph glyph-name="uni20AA" unicode="&#x20aa;" horiz-adv-x="626" 
d="M71 0v730h155q181 0 181 -191v-353q0 -37 -38 -37v390q0 77 -32.5 116.5t-109.5 39.5h-119v-695h-37zM219 0v577q37 0 37 -37v-505h121q70 0 105.5 41t35.5 115v539h37v-539q0 -92 -45.5 -141.5t-133.5 -49.5h-157z" />
    <glyph glyph-name="Euro" unicode="&#x20ac;" 
d="M34 472v31h71q1 108 62.5 172.5t160.5 64.5q105 0 169 -73l-27 -24q-52 63 -142 63q-84 0 -134.5 -55t-51.5 -148h306l-6 -31h-300v-214h266l-5 -31h-261v-2q0 -94 50.5 -147.5t135.5 -53.5q99 0 151 69l28 -25q-60 -78 -179 -78q-103 0 -163 62.5t-60 171.5v3h-71v31h71
v214h-71z" />
    <glyph glyph-name="uni20AE" unicode="&#x20ae;" horiz-adv-x="636" 
d="M165 366v33l134 54v242h-236v35h510v-35h-236v-226l139 57v-32l-139 -58v-100l139 58v-32l-139 -58v-304h-38v289l-134 -55v32l134 55v100z" />
    <glyph glyph-name="uni20B1" unicode="&#x20b1;" horiz-adv-x="688" 
d="M28 541v31h80v158h214q93 0 160 -43t93 -115h85v-31h-76q6 -27 6 -55q0 -21 -6 -55h76v-30h-84q-26 -74 -93 -117.5t-161 -43.5h-176v-240h-38v401h-80v30h80v110h-80zM551 486q0 24 -7 55h-398v-110h398q7 24 7 55zM320 275q79 0 134.5 34t79.5 92h-388v-126h174z
M320 695h-174v-123h388q-25 57 -80.5 90t-133.5 33z" />
    <glyph glyph-name="published" unicode="&#x2117;" horiz-adv-x="869" 
d="M435 -125q-155 0 -265 110t-110 265t110 265t265 110t265 -110t110 -265t-110 -265t-265 -110zM435 -91q141 0 239.5 100t98.5 241t-98.5 241t-239.5 100t-239.5 -100t-98.5 -241t98.5 -241t239.5 -100zM320 63v378h145q55 0 91 -34.5t36 -85.5q0 -53 -33.5 -90
t-93.5 -37h-110v-131h-35zM462 410h-107v-184h107q42 0 68 27t26 68q0 39 -27 64t-67 25z" />
    <glyph glyph-name="servicemark" unicode="&#x2120;" horiz-adv-x="654" 
d="M277 440v290h27l133 -176l134 176h25v-290h-29v239l-131 -170l-130 170v-239h-29zM125 437q-60 0 -91 41l25 20q26 -35 65 -35q29 0 45.5 16t16.5 41q0 21 -15 34t-36 20t-42 15.5t-36 26t-15 44.5q0 31 23.5 51.5t59.5 20.5q50 0 82 -36l-25 -18q-19 27 -58 27
q-24 0 -39 -13t-15 -32q0 -23 23 -37.5t50 -21t50 -27t23 -54.5q0 -36 -25 -59.5t-66 -23.5z" />
    <glyph glyph-name="trademark" unicode="&#x2122;" horiz-adv-x="679" 
d="M302 440v290h26l133 -177l135 177h25v-290h-30v238l-130 -169l-130 169v-238h-29zM132 440v263h-99v27h226v-27h-99v-263h-28z" />
    <glyph glyph-name="uni2153" unicode="&#x2153;" horiz-adv-x="816" 
d="M101 0l527 730h44l-527 -730h-44zM642 -6q-85 0 -132 55l29 22q35 -46 103 -46q45 0 74.5 25.5t29.5 65.5t-30 63.5t-76 23.5h-39v32h39q44 0 70.5 23t26.5 59t-26.5 58.5t-70.5 22.5q-31 0 -56.5 -13.5t-38.5 -32.5l-28 18q18 24 50.5 41t72.5 17q59 0 94.5 -30
t35.5 -80q0 -72 -67 -99q77 -27 77 -103q0 -54 -38 -88t-100 -34zM41 308v32h85v325q-7 -16 -27.5 -27.5t-42.5 -11.5h-7v35h3q38 0 56.5 21t18.5 48h33v-390h82v-32h-201z" />
    <glyph glyph-name="uni2154" unicode="&#x2154;" horiz-adv-x="847" 
d="M149 0l527 730h44l-527 -730h-44zM44 308v35q0 31 21 61.5t42.5 47.5t60.5 44q38 27 55 40t35 37.5t18 48.5q0 37 -27 60.5t-71 23.5q-36 0 -64 -19t-43 -51l-30 15q41 85 137 85q59 0 95.5 -32.5t36.5 -82.5q0 -30 -20 -59.5t-39.5 -45t-59.5 -44.5q-37 -25 -56 -39.5
t-37.5 -39.5t-18.5 -50v-3h233v-32h-268zM673 -6q-85 0 -132 55l29 22q35 -46 103 -46q45 0 74.5 25.5t29.5 65.5t-30 63.5t-76 23.5h-39v32h39q44 0 70.5 23t26.5 59t-26.5 58.5t-70.5 22.5q-31 0 -56.5 -13.5t-38.5 -32.5l-28 18q18 24 50.5 41t72.5 17q59 0 94.5 -30
t35.5 -80q0 -72 -67 -99q77 -27 77 -103q0 -54 -38 -88t-100 -34z" />
    <glyph glyph-name="uni2155" unicode="&#x2155;" horiz-adv-x="822" 
d="M641 -6q-103 0 -141 80l31 19q31 -67 110 -67q45 0 77.5 30.5t32.5 78.5q0 52 -33 81t-78 29q-74 0 -107 -70l-32 14l32 233h224v-31h-197l-22 -164q39 49 104 49q59 0 101 -37t42 -104q0 -61 -40.5 -101t-103.5 -40zM101 0l527 730h44l-527 -730h-44zM41 308v32h85v325
q-7 -16 -27.5 -27.5t-42.5 -11.5h-7v35h3q38 0 56.5 21t18.5 48h33v-390h82v-32h-201z" />
    <glyph glyph-name="uni2156" unicode="&#x2156;" horiz-adv-x="851" 
d="M671 -6q-103 0 -141 80l31 19q31 -67 110 -67q45 0 77.5 30.5t32.5 78.5q0 52 -33 81t-78 29q-74 0 -107 -70l-32 14l32 233h224v-31h-197l-22 -164q39 49 104 49q59 0 101 -37t42 -104q0 -61 -40.5 -101t-103.5 -40zM142 0l527 730h44l-527 -730h-44zM44 308v35
q0 31 21 61.5t42.5 47.5t60.5 44q38 27 55 40t35 37.5t18 48.5q0 37 -27 60.5t-71 23.5q-36 0 -64 -19t-43 -51l-30 15q41 85 137 85q59 0 95.5 -32.5t36.5 -82.5q0 -30 -20 -59.5t-39.5 -45t-59.5 -44.5q-37 -25 -56 -39.5t-37.5 -39.5t-18.5 -50v-3h233v-32h-268z" />
    <glyph glyph-name="uni2157" unicode="&#x2157;" horiz-adv-x="883" 
d="M703 -6q-103 0 -141 80l31 19q31 -67 110 -67q45 0 77.5 30.5t32.5 78.5q0 52 -33 81t-78 29q-74 0 -107 -70l-32 14l32 233h224v-31h-197l-22 -164q39 49 104 49q59 0 101 -37t42 -104q0 -61 -40.5 -101t-103.5 -40zM163 0l527 730h44l-527 -730h-44zM164 302
q-85 0 -132 55l29 22q35 -46 103 -46q45 0 74.5 25.5t29.5 65.5t-30 63.5t-76 23.5h-39v32h39q44 0 70.5 23t26.5 59t-26.5 58.5t-70.5 22.5q-31 0 -56.5 -13.5t-38.5 -32.5l-28 18q18 24 50.5 41t72.5 17q59 0 94.5 -30t35.5 -80q0 -72 -67 -99q77 -27 77 -103
q0 -54 -38 -88t-100 -34z" />
    <glyph glyph-name="uni2158" unicode="&#x2158;" horiz-adv-x="849" 
d="M242 308v97h-206v31l205 294h34v-294h62v-31h-62v-97h-33zM669 -6q-103 0 -141 80l31 19q31 -67 110 -67q45 0 77.5 30.5t32.5 78.5q0 52 -33 81t-78 29q-74 0 -107 -70l-32 14l32 233h224v-31h-197l-22 -164q39 49 104 49q59 0 101 -37t42 -104q0 -61 -40.5 -101
t-103.5 -40zM129 0l527 730h44l-527 -730h-44zM73 436h169v241z" />
    <glyph glyph-name="uni2159" unicode="&#x2159;" horiz-adv-x="782" 
d="M590 -6q-62 0 -104.5 42t-42.5 104q0 54 33 99l127 183h40l-105 -150q29 13 58 13q59 0 100.5 -42t41.5 -103t-43 -103.5t-105 -42.5zM590 25q47 0 80.5 34t33.5 81q0 48 -33 81.5t-81 33.5t-81 -33.5t-33 -81.5t33 -81.5t81 -33.5zM102 0l527 730h44l-527 -730h-44z
M41 308v32h85v325q-7 -16 -27.5 -27.5t-42.5 -11.5h-7v35h3q38 0 56.5 21t18.5 48h33v-390h82v-32h-201z" />
    <glyph glyph-name="uni215A" unicode="&#x215a;" horiz-adv-x="856" 
d="M664 -6q-62 0 -104.5 42t-42.5 104q0 54 33 99l127 183h40l-105 -150q29 13 58 13q59 0 100.5 -42t41.5 -103t-43 -103.5t-105 -42.5zM664 25q47 0 80.5 34t33.5 81q0 48 -33 81.5t-81 33.5t-81 -33.5t-33 -81.5t33 -81.5t81 -33.5zM184 302q-103 0 -141 80l31 19
q31 -67 110 -67q45 0 77.5 30.5t32.5 78.5q0 52 -33 81t-78 29q-74 0 -107 -70l-32 14l32 233h224v-31h-197l-22 -164q39 49 104 49q59 0 101 -37t42 -104q0 -61 -40.5 -101t-103.5 -40zM175 0l527 730h44l-527 -730h-44z" />
    <glyph glyph-name="uni215B" unicode="&#x215b;" horiz-adv-x="832" 
d="M657 -6q-61 0 -97.5 35.5t-36.5 86.5q0 39 21.5 68t59.5 43q-62 27 -62 92q0 46 32 77.5t83 31.5t83.5 -31.5t32.5 -77.5q0 -65 -63 -92q37 -14 58.5 -43t21.5 -68q0 -51 -36 -86.5t-97 -35.5zM100 0l527 730h44l-527 -730h-44zM656 25q46 0 73.5 26t27.5 65t-27.5 66
t-73.5 27q-44 0 -71 -27t-27 -66t26.5 -65t71.5 -26zM41 308v32h85v325q-7 -16 -27.5 -27.5t-42.5 -11.5h-7v35h3q38 0 56.5 21t18.5 48h33v-390h82v-32h-201zM656 243q37 0 59.5 22t22.5 54q0 34 -22.5 55.5t-59.5 21.5q-36 0 -58 -22t-22 -55q0 -32 22.5 -54t57.5 -22z
" />
    <glyph glyph-name="uni215C" unicode="&#x215c;" horiz-adv-x="895" 
d="M720 -6q-61 0 -97.5 35.5t-36.5 86.5q0 39 21.5 68t59.5 43q-62 27 -62 92q0 46 32 77.5t83 31.5t83.5 -31.5t32.5 -77.5q0 -65 -63 -92q37 -14 58.5 -43t21.5 -68q0 -51 -36 -86.5t-97 -35.5zM163 0l527 730h44l-527 -730h-44zM164 302q-85 0 -132 55l29 22
q35 -46 103 -46q45 0 74.5 25.5t29.5 65.5t-30 63.5t-76 23.5h-39v32h39q44 0 70.5 23t26.5 59t-26.5 58.5t-70.5 22.5q-31 0 -56.5 -13.5t-38.5 -32.5l-28 18q18 24 50.5 41t72.5 17q59 0 94.5 -30t35.5 -80q0 -72 -67 -99q77 -27 77 -103q0 -54 -38 -88t-100 -34zM719 25
q46 0 73.5 26t27.5 65t-27.5 66t-73.5 27q-44 0 -71 -27t-27 -66t26.5 -65t71.5 -26zM719 243q37 0 59.5 22t22.5 54q0 34 -22.5 55.5t-59.5 21.5q-36 0 -58 -22t-22 -55q0 -32 22.5 -54t57.5 -22z" />
    <glyph glyph-name="uni215D" unicode="&#x215d;" horiz-adv-x="907" 
d="M732 -6q-61 0 -97.5 35.5t-36.5 86.5q0 39 21.5 68t59.5 43q-62 27 -62 92q0 46 32 77.5t83 31.5t83.5 -31.5t32.5 -77.5q0 -65 -63 -92q37 -14 58.5 -43t21.5 -68q0 -51 -36 -86.5t-97 -35.5zM184 302q-103 0 -141 80l31 19q31 -67 110 -67q45 0 77.5 30.5t32.5 78.5
q0 52 -33 81t-78 29q-74 0 -107 -70l-32 14l32 233h224v-31h-197l-22 -164q39 49 104 49q59 0 101 -37t42 -104q0 -61 -40.5 -101t-103.5 -40zM175 0l527 730h44l-527 -730h-44zM731 25q46 0 73.5 26t27.5 65t-27.5 66t-73.5 27q-44 0 -71 -27t-27 -66t26.5 -65t71.5 -26z
M731 243q37 0 59.5 22t22.5 54q0 34 -22.5 55.5t-59.5 21.5q-36 0 -58 -22t-22 -55q0 -32 22.5 -54t57.5 -22z" />
    <glyph glyph-name="uni215E" unicode="&#x215e;" horiz-adv-x="818" 
d="M644 -6q-61 0 -97.5 35.5t-36.5 86.5q0 39 21.5 68t59.5 43q-62 27 -62 92q0 46 32 77.5t83 31.5t83.5 -31.5t32.5 -77.5q0 -65 -63 -92q37 -14 58.5 -43t21.5 -68q0 -51 -36 -86.5t-97 -35.5zM87 0l527 730h44l-527 -730h-44zM643 25q46 0 73.5 26t27.5 65t-27.5 66
t-73.5 27q-44 0 -71 -27t-27 -66t26.5 -65t71.5 -26zM118 308l185 390h-222v32h258v-30l-184 -392h-37zM643 243q37 0 59.5 22t22.5 54q0 34 -22.5 55.5t-59.5 21.5q-36 0 -58 -22t-22 -55q0 -32 22.5 -54t57.5 -22z" />
    <glyph glyph-name="uni215F" unicode="&#x215f;" horiz-adv-x="701" 
d="M101 0l527 730h44l-527 -730h-44zM41 308v32h85v325q-7 -16 -27.5 -27.5t-42.5 -11.5h-7v35h3q38 0 56.5 21t18.5 48h33v-390h82v-32h-201z" />
    <glyph glyph-name="arrowleft" unicode="&#x2190;" horiz-adv-x="896" 
d="M257 138q-25 65 -87.5 126t-121.5 90v23q59 30 121.5 91t87.5 126l31 -18q-23 -57 -76.5 -110.5t-105.5 -82.5h721v-35h-721q52 -29 105.5 -82.5t76.5 -110.5z" />
    <glyph glyph-name="arrowup" unicode="&#x2191;" horiz-adv-x="896" 
d="M425 0v711q-30 -52 -82.5 -104.5t-108.5 -74.5l-18 31q65 26 126.5 88.5t90.5 121.5h23q29 -59 90.5 -121.5t126.5 -88.5l-18 -31q-56 22 -109.5 74t-82.5 103v-709h-38z" />
    <glyph glyph-name="arrowright" unicode="&#x2192;" horiz-adv-x="896" 
d="M626 137l-31 18q23 57 76 110t106 83h-721v35h721q-53 29 -106 81.5t-76 110.5l31 18q26 -65 88 -126t121 -90v-23q-59 -30 -121 -91t-88 -126z" />
    <glyph glyph-name="arrowdown" unicode="&#x2193;" horiz-adv-x="896" 
d="M433 -43q-30 59 -91 121.5t-126 88.5l18 31q56 -22 108.5 -74t82.5 -104v710h38v-712q29 52 82 104.5t110 75.5l17 -31q-65 -26 -126 -88.5t-90 -121.5h-23z" />
    <glyph glyph-name="uni2196" unicode="&#x2196;" horiz-adv-x="896" 
d="M701 78l-510 508q16 -59 16 -133t-24 -131l-34 10q27 73 26.5 156.5t-21.5 144.5l16 16q63 -21 145 -21.5t156 26.5l10 -34q-57 -24 -133 -24t-134 16l511 -510z" />
    <glyph glyph-name="uni2197" unicode="&#x2197;" horiz-adv-x="896" 
d="M175 77l-25 25l510 510q-58 -17 -127.5 -17t-137.5 24l10 34q74 -27 156.5 -26t143.5 22l17 -16q-21 -63 -21.5 -145.5t26.5 -156.5l-34 -9q-25 69 -24.5 138t16.5 127z" />
    <glyph glyph-name="uni2198" unicode="&#x2198;" horiz-adv-x="896" 
d="M705 81q-63 21 -145 21.5t-156 -26.5l-10 34q68 24 138.5 23.5t127.5 -16.5l-510 511l25 24l509 -508q-16 59 -16.5 127t24.5 137l34 -10q-27 -74 -26 -156.5t22 -144.5z" />
    <glyph glyph-name="uni2199" unicode="&#x2199;" horiz-adv-x="896" 
d="M470 77q-74 27 -156 26t-144 -22l-17 16q21 63 21.5 145.5t-26.5 156.5l34 9q24 -57 24 -132.5t-16 -132.5l511 510l24 -25l-510 -510q56 17 132 17t133 -24z" />
    <glyph glyph-name="partialdiff" unicode="&#x2202;" horiz-adv-x="619" 
d="M309 -8q-107 0 -181.5 74t-74.5 180q0 107 74 181t179 74q121 0 187 -93q-70 147 -306 322h57q163 -125 242.5 -243.5t79.5 -240.5q0 -106 -74.5 -180t-182.5 -74zM310 26q91 0 154.5 64.5t63.5 155.5t-63.5 156t-154.5 65t-155.5 -64.5t-64.5 -156.5q0 -91 64.5 -155.5
t155.5 -64.5z" />
    <glyph glyph-name="increment" unicode="&#x2206;" horiz-adv-x="897" 
d="M877 0h-857l429 742zM448 670l-365 -634h731z" />
    <glyph glyph-name="product" unicode="&#x220f;" horiz-adv-x="731" 
d="M43 694v36h646v-36h-132v-694h-37v694h-309v-694h-37v694h-131z" />
    <glyph glyph-name="summation" unicode="&#x2211;" 
d="M52 0v37l272 342l-268 314v37h477v-35h-433l271 -316l-275 -343h437v-36h-481z" />
    <glyph glyph-name="minus" unicode="&#x2212;" horiz-adv-x="478" 
d="M54 349v33h370v-33h-370z" />
    <glyph glyph-name="radical" unicode="&#x221a;" horiz-adv-x="763" 
d="M319 0l-179 465h-95v35h122l173 -457l338 687h40l-359 -730h-40z" />
    <glyph glyph-name="infinity" unicode="&#x221e;" horiz-adv-x="940" 
d="M269 249q-56 0 -96 39.5t-40 95.5t40 95.5t96 39.5q34 0 73.5 -19t65 -38.5t70.5 -56.5q44 37 69.5 56.5t65 38.5t73.5 19q56 0 95 -39.5t39 -95.5t-39 -95.5t-95 -39.5q-51 0 -99 28.5t-109 80.5q-62 -52 -110.5 -80.5t-98.5 -28.5zM269 283q70 0 183 98
q-39 33 -63 51.5t-58 35t-62 16.5q-40 0 -70 -30.5t-30 -70.5t30 -70t70 -30zM685 285q40 0 70 30t29 70q0 40 -29.5 70t-69.5 30q-28 0 -61.5 -16.5t-56 -34t-63.5 -52.5q54 -47 96.5 -72t84.5 -25z" />
    <glyph glyph-name="integral" unicode="&#x222b;" horiz-adv-x="334" 
d="M-12 -216v35q87 0 112.5 25t25.5 114v599q0 103 35 138t135 35h4v-35q-86 0 -111.5 -25t-25.5 -114v-599q0 -103 -35 -138t-136 -35h-4z" />
    <glyph glyph-name="approxequal" unicode="&#x2248;" horiz-adv-x="473" 
d="M52 418v34q52 25 97 25q31 0 91.5 -19t85.5 -19q44 0 96 26v-34q-44 -25 -96 -25q-29 0 -90.5 19t-86.5 19q-41 0 -97 -26zM52 257v34q54 26 96 26q31 0 92 -19t86 -19q46 0 96 25v-34q-44 -25 -96 -25q-29 0 -91 19t-87 19q-40 0 -96 -26z" />
    <glyph glyph-name="notequal" unicode="&#x2260;" horiz-adv-x="478" 
d="M331 527l-33 -68h126v-33h-141l-60 -126h201v-33h-217l-32 -68h-37l32 68h-116v33h132l60 126h-192v33h208l33 68h36z" />
    <glyph glyph-name="equivalence" unicode="&#x2261;" horiz-adv-x="478" 
d="M54 346v33h370v-33h-370zM54 187v32h370v-32h-370zM54 505v33h370v-33h-370z" />
    <glyph glyph-name="lessequal" unicode="&#x2264;" horiz-adv-x="478" 
d="M424 276l-370 148v33l370 144v-35l-329 -126l329 -129v-35zM54 190v33h370v-33h-370z" />
    <glyph glyph-name="greaterequal" unicode="&#x2265;" horiz-adv-x="478" 
d="M54 276v35l328 129l-328 126v35l370 -144v-33zM54 190v33h370v-33h-370z" />
    <glyph glyph-name="squaremultiply" unicode="&#x22a0;" horiz-adv-x="926" 
d="M100 0v730h726v-730h-726zM137 695v-660h652v660h-652zM268 139l-22 22l198 205l-193 198l22 23l193 -198l191 197l22 -22l-191 -198l195 -200l-22 -23l-195 200z" />
    <glyph glyph-name="house" unicode="&#x2302;" horiz-adv-x="874" 
d="M774 0h-674v427l337 323l337 -323v-427z" />
    <glyph glyph-name="blacksquare" unicode="&#x25a0;" horiz-adv-x="926" 
d="M100 0v730h726v-730h-726z" />
    <glyph glyph-name="blacksquare" unicode="&#xe740;" horiz-adv-x="926" 
d="M100 0v730h726v-730h-726z" />
    <glyph glyph-name="whitesquare" unicode="&#x25a1;" horiz-adv-x="926" 
d="M100 0v730h726v-730h-726zM137 695v-660h652v660h-652z" />
    <glyph glyph-name="blacksmallsquare" unicode="&#x25aa;" horiz-adv-x="700" 
d="M100 0v500h500v-500h-500z" />
    <glyph glyph-name="whitesmallsquare" unicode="&#x25ab;" horiz-adv-x="700" 
d="M100 0v500h500v-500h-500zM137 465v-430h426v430h-426z" />
    <glyph glyph-name="triagup" unicode="&#x25b2;" horiz-adv-x="897" 
d="M877 0h-857l429 742z" />
    <glyph glyph-name="triagrt" unicode="&#x25ba;" horiz-adv-x="897" 
d="M100 -57v857l742 -428z" />
    <glyph glyph-name="triagdn" unicode="&#x25bc;" horiz-adv-x="897" 
d="M20 730h857l-428 -742z" />
    <glyph glyph-name="triaglf" unicode="&#x25c4;" horiz-adv-x="897" 
d="M797 800v-857l-742 429z" />
    <glyph glyph-name="lozenge" unicode="&#x25ca;" horiz-adv-x="843" 
d="M415 -16l-382 382l380 380l382 -382zM81 366l334 -332l332 331l-334 332z" />
    <glyph glyph-name="whitecircle" unicode="&#x25cb;" horiz-adv-x="927" 
d="M464 -10q-155 0 -265 110t-110 265t110 265t265 110t265 -110t110 -265t-110 -265t-265 -110zM464 25q140 0 238 99.5t98 240.5t-98 240.5t-238 99.5t-238 -99.5t-98 -240.5t98 -240.5t238 -99.5z" />
    <glyph glyph-name="whitecircle" unicode="&#x25ef;" horiz-adv-x="927" 
d="M464 -10q-155 0 -265 110t-110 265t110 265t265 110t265 -110t110 -265t-110 -265t-265 -110zM464 25q140 0 238 99.5t98 240.5t-98 240.5t-238 99.5t-238 -99.5t-98 -240.5t98 -240.5t238 -99.5z" />
    <glyph glyph-name="bullseye" unicode="&#x25ce;" horiz-adv-x="927" 
d="M464 -10q-155 0 -265 110t-110 265t110 265t265 110t265 -110t110 -265t-110 -265t-265 -110zM464 25q140 0 238 99.5t98 240.5t-98 240.5t-238 99.5t-238 -99.5t-98 -240.5t98 -240.5t238 -99.5zM465 160q-85 0 -144.5 59.5t-59.5 144.5t59.5 144.5t144.5 59.5
q84 0 144 -59.5t60 -144.5t-60 -144.5t-144 -59.5zM465 195q70 0 118 49t48 120t-48 120t-118 49t-118.5 -49t-48.5 -120t48.5 -120t118.5 -49zM464 332q-14 0 -23 9t-9 23t9 23t23 9t23 -9t9 -23t-9 -23t-23 -9z" />
    <glyph glyph-name="blackcircle" unicode="&#x25cf;" horiz-adv-x="927" 
d="M464 -10q-155 0 -265 110t-110 265t110 265t265 110t265 -110t110 -265t-110 -265t-265 -110z" />
    <glyph glyph-name="uni25E2" unicode="&#x25e2;" horiz-adv-x="897" 
d="M873 533l-606 -606l-222 828z" />
    <glyph glyph-name="uni25E3" unicode="&#x25e3;" horiz-adv-x="897" 
d="M632 -73l-606 606l828 222z" />
    <glyph glyph-name="uni25E4" unicode="&#x25e4;" horiz-adv-x="897" 
d="M857 -54l-828 222l606 606z" />
    <glyph glyph-name="uni25E5" unicode="&#x25e5;" horiz-adv-x="897" 
d="M872 163l-828 -221l223 828z" />
    <glyph glyph-name="uni2605" unicode="&#x2605;" horiz-adv-x="900" 
d="M562 303l72 -218l-187 135l-186 -135l72 219l-186 135l229 -1l72 218l71 -218l230 -1z" />
    <glyph glyph-name="ballotboxwithx" unicode="&#x2612;" horiz-adv-x="700" 
d="M100 0v500h500v-500h-500zM137 465v-430h426v430h-426zM227 393l122 -123l121 124l22 -23l-121 -123l121 -121l-22 -22l-121 120l-120 -122l-22 23l120 122l-122 122z" />
    <glyph glyph-name="uni263C" unicode="&#x263c;" horiz-adv-x="928" 
d="M287 365q0 71 51.5 122.5t122.5 51.5t122.5 -51.5t51.5 -122.5t-51.5 -122.5t-122.5 -51.5t-122.5 51.5t-51.5 122.5zM451 577l-17 142h54l-17 -142h-20zM471 155l17 -142h-54l17 142h20zM250 356l-142 -17v54l142 -17v-20zM672 376l142 17v-54l-142 17v20zM273 464
l-133 55l28 47l115 -87zM649 268l133 -55l-28 -47l-115 87zM348 544l-87 115l47 28l55 -133zM574 188l87 -115l-47 -28l-55 133zM559 554l55 133l47 -28l-87 -115zM363 178l-55 -133l-47 28l87 115zM639 480l113 86l30 -46l-133 -56zM283 252l-113 -86l-30 46l133 56z" />
    <glyph glyph-name="uni263E" unicode="&#x263e;" horiz-adv-x="787" 
d="M534 616q-99 0 -169 -73.5t-70 -177.5t70 -177.5t169 -73.5q32 0 71 12q-81 -57 -178 -57q-122 0 -209 87t-87 209t87 209t209 87q97 0 178 -57q-46 12 -71 12z" />
    <glyph glyph-name="spade" unicode="&#x2660;" horiz-adv-x="920" 
d="M594 0h-259q27 50 39.5 75.5t33.5 92.5t21 122q-21 -59 -64 -97.5t-106 -38.5q-70 0 -120.5 47t-50.5 111q0 82 52 150t183 173l140 112h1l140 -112q128 -103 178 -171t50 -152q0 -64 -46 -110.5t-111 -46.5q-69 0 -114.5 38.5t-66.5 96.5q0 -29 6 -61t13 -55.5t21.5 -56
t21 -45.5t22.5 -42t16 -30z" />
    <glyph glyph-name="club" unicode="&#x2663;" horiz-adv-x="920" 
d="M595 0h-259q80 150 91 248q-22 -53 -66.5 -85.5t-100.5 -32.5q-74 0 -125.5 52t-51.5 125t51.5 125t125.5 52q19 0 42 -7q-19 41 -19 87q0 73 51 124.5t124 51.5t124.5 -51.5t51.5 -124.5q0 -45 -19 -88q22 8 46 8q73 0 124.5 -51.5t51.5 -125.5q0 -73 -51.5 -125
t-125.5 -52q-56 0 -99 32t-64 85q3 -25 10.5 -52t15.5 -48t20 -46.5t19 -39t19 -35.5t14 -26z" />
    <glyph glyph-name="heart" unicode="&#x2665;" horiz-adv-x="920" 
d="M89 550q0 78 53 134t130 56q75 0 126 -45.5t59 -115.5q9 70 59.5 115.5t125.5 45.5q77 0 133 -56.5t56 -133.5q0 -85 -52.5 -177t-179.5 -233l-142 -157l-141 157q-125 139 -176 231.5t-51 178.5z" />
    <glyph glyph-name="diamond" unicode="&#x2666;" horiz-adv-x="920" 
d="M133 390l327 401l327 -401l-327 -400z" />
    <glyph glyph-name="uni267B" unicode="&#x267b;" horiz-adv-x="921" 
d="M821 246l1 -2l-91 -157q-13 -19 -19.5 -27.5t-23 -16.5t-39.5 -8h-54v-47l-106 128l106 127v-46h136q25 0 47.5 12.5t32.5 24.5zM184 111h-2l-90 158q-10 19 -14 29.5t-3 28.5t13 38l27 46l-40 23l164 29l55 -156l-38 23q-66 -113 -68 -118q-12 -21 -13 -46.5t4 -39.5z
M389 728v1h182q22 -1 33.5 -2.5t26.5 -11.5t26 -30l26 -46l41 23l-58 -157l-162 30l38 22l-67 118q-13 22 -34.5 35t-36.5 16zM197 558l63 112q11 18 32 29q43 22 91 9t64 -42l-109 -189zM429 35h-127q-23 0 -42 12q-40 23 -53.5 74t4.5 76h218v-162zM767 491l65 -110
q9 -14 9 -41q1 -45 -35.5 -81.5t-69.5 -36.5l-109 189z" />
    <glyph glyph-name="uni267C" unicode="&#x267c;" horiz-adv-x="921" 
d="M837 366q0 -156 -110 -265.5t-265 -109.5q-157 0 -267 109.5t-110 265.5t110 266.5t267 110.5q155 0 265 -110.5t110 -266.5zM304 606l-49 -86l109 -63l84 146q-12 23 -49.5 33t-70.5 -7q-19 -12 -24 -23zM399 652v-1q46 -4 67 -41l53 -91l-30 -18l126 -23l44 122
l-31 -18l-21 36q-13 22 -27.5 28t-39.5 6h-141zM332 114h99v126h-170q-14 -20 -3 -59.5t42 -57.5q16 -9 32 -9zM243 173h1q-18 41 3 79l53 91l30 -18l-43 121l-127 -22l31 -18l-21 -36q-9 -15 -10 -29.5t2 -21.5t11 -24zM746 383l-49 85l-110 -63l85 -147q26 0 54.5 28.5
t27.5 64.5q0 18 -8 32zM739 276l-1 1q-26 -37 -70 -37h-105v35l-83 -98l83 -99v36h41q26 0 39 9.5t25 30.5z" />
    <glyph glyph-name="uni267D" unicode="&#x267d;" horiz-adv-x="921" 
d="M837 366q0 -156 -110 -265.5t-265 -109.5q-157 0 -267 109.5t-110 265.5t110 266.5t267 110.5q155 0 265 -110.5t110 -266.5zM818 366q0 149 -104 253.5t-252 104.5q-149 0 -254 -104.5t-105 -253.5q0 -148 105 -252.5t254 -104.5q148 0 252 104.5t104 252.5zM255 520
l49 86q5 11 24 23q33 17 70.5 7t49.5 -33l-84 -146zM399 651v1h141q25 0 39.5 -6t27.5 -28l21 -36l31 18l-44 -122l-126 23l30 18l-53 91q-9 16 -26 26.5t-29 12.5zM431 114h-99q-16 0 -32 9q-31 18 -42 57.5t3 59.5h170v-126zM244 173h-1l-70 122q-8 17 -11 24t-2 21.5
t10 29.5l21 36l-31 18l127 22l43 -121l-30 18l-53 -91q-9 -17 -10 -36.5t3 -31.5zM697 468l49 -85q8 -14 8 -32q1 -36 -27.5 -64.5t-54.5 -28.5l-85 147zM738 277l1 -1l-71 -122q-8 -14 -14 -21t-19 -13t-31 -6h-41v-36l-83 99l83 98v-35h105q20 0 37.5 9t24.5 19z" />
    <glyph glyph-name="mediumwhitecircle" unicode="&#x26aa;" horiz-adv-x="698" 
d="M349 -10q-108 0 -184 75.5t-76 184.5t76 184.5t184 75.5t184 -75.5t76 -184.5t-76 -184.5t-184 -75.5zM349 24q93 0 157.5 66t64.5 160t-64.5 160t-157.5 66t-157.5 -66t-64.5 -160t64.5 -160t157.5 -66z" />
    <glyph glyph-name="mediumblackcircle" unicode="&#x26ab;" horiz-adv-x="698" 
d="M349 -10q-108 0 -183.5 76t-75.5 184t75.5 184t183.5 76t183.5 -76t75.5 -184t-75.5 -184t-183.5 -76z" />
    <glyph glyph-name="anglebracketleft" unicode="&#x3008;" horiz-adv-x="351" 
d="M272 -230l-228 480l228 480h40l-228 -480l228 -480h-40z" />
    <glyph glyph-name="anglebracketright" unicode="&#x3009;" horiz-adv-x="351" 
d="M77 -230h-40l228 480l-228 480h40l228 -480z" />
    <glyph glyph-name="cordinal" unicode="&#xe181;" horiz-adv-x="419" 
d="M218 435q-62 0 -106 44t-44 107q0 62 44 106t106 44q44 0 81 -23.5t55 -62.5l-28 -14q-14 32 -43 51.5t-65 19.5q-50 0 -85 -35.5t-35 -85.5t35 -86t85 -36q37 0 66 20t43 53l28 -14q-18 -40 -54.5 -64t-82.5 -24z" />
    <glyph glyph-name="p.smcp" unicode="&#xe200;" horiz-adv-x="519" 
d="M73 0v596h177q98 0 158.5 -56.5t60.5 -143.5q0 -88 -60.5 -145t-158.5 -57h-140v-194h-37zM248 562h-138v-333h138q84 0 133.5 47t49.5 120t-49.5 119.5t-133.5 46.5z" />
    <glyph glyph-name="p.smcp" unicode="&#xf770;" horiz-adv-x="519" 
d="M73 0v596h177q98 0 158.5 -56.5t60.5 -143.5q0 -88 -60.5 -145t-158.5 -57h-140v-194h-37zM248 562h-138v-333h138q84 0 133.5 47t49.5 120t-49.5 119.5t-133.5 46.5z" />
    <glyph glyph-name="a.smcp" unicode="&#xe201;" horiz-adv-x="571" 
d="M35 0l231 596h38l232 -596h-38l-67 170h-292l-65 -170h-39zM285 547l-133 -343h266z" />
    <glyph glyph-name="a.smcp" unicode="&#xf761;" horiz-adv-x="571" 
d="M35 0l231 596h38l232 -596h-38l-67 170h-292l-65 -170h-39zM285 547l-133 -343h266z" />
    <glyph glyph-name="b.smcp" unicode="&#xe202;" horiz-adv-x="540" 
d="M75 0v596h234q73 0 121 -43t48 -110q0 -47 -25 -83t-68 -52q49 -15 77.5 -54t28.5 -92q0 -71 -48 -116.5t-123 -45.5h-245zM319 290h-208v-256h209q58 0 96.5 36.5t38.5 91.5t-38 91.5t-98 36.5zM309 562h-198v-238h206q55 0 89.5 34.5t34.5 84.5q0 51 -38 85t-94 34z
" />
    <glyph glyph-name="b.smcp" unicode="&#xf762;" horiz-adv-x="540" 
d="M75 0v596h234q73 0 121 -43t48 -110q0 -47 -25 -83t-68 -52q49 -15 77.5 -54t28.5 -92q0 -71 -48 -116.5t-123 -45.5h-245zM319 290h-208v-256h209q58 0 96.5 36.5t38.5 91.5t-38 91.5t-98 36.5zM309 562h-198v-238h206q55 0 89.5 34.5t34.5 84.5q0 51 -38 85t-94 34z
" />
    <glyph glyph-name="c.smcp" unicode="&#xe203;" horiz-adv-x="662" 
d="M358 -9q-128 0 -217 89.5t-89 217.5q0 129 89.5 218t216.5 89q83 0 153 -41t111 -109l-32 -18q-36 61 -97 97t-135 36q-112 0 -190 -80t-78 -192q0 -113 78 -193t190 -80q77 0 139.5 39t97.5 104l33 -15q-40 -74 -112 -118t-158 -44z" />
    <glyph glyph-name="c.smcp" unicode="&#xf763;" horiz-adv-x="662" 
d="M358 -9q-128 0 -217 89.5t-89 217.5q0 129 89.5 218t216.5 89q83 0 153 -41t111 -109l-32 -18q-36 61 -97 97t-135 36q-112 0 -190 -80t-78 -192q0 -113 78 -193t190 -80q77 0 139.5 39t97.5 104l33 -15q-40 -74 -112 -118t-158 -44z" />
    <glyph glyph-name="d.smcp" unicode="&#xe204;" horiz-adv-x="601" 
d="M75 0v596h167q132 0 219.5 -85.5t87.5 -212.5q0 -126 -88.5 -212t-217.5 -86h-168zM240 562h-129v-528h130q115 0 193 76t78 188q0 113 -77.5 188.5t-194.5 75.5z" />
    <glyph glyph-name="d.smcp" unicode="&#xf764;" horiz-adv-x="601" 
d="M75 0v596h167q132 0 219.5 -85.5t87.5 -212.5q0 -126 -88.5 -212t-217.5 -86h-168zM240 562h-129v-528h130q115 0 193 76t78 188q0 113 -77.5 188.5t-194.5 75.5z" />
    <glyph glyph-name="e.smcp" unicode="&#xe205;" horiz-adv-x="499" 
d="M75 0v596h367v-34h-330v-246h330v-34h-330v-248h330v-34h-367z" />
    <glyph glyph-name="e.smcp" unicode="&#xf765;" horiz-adv-x="499" 
d="M75 0v596h367v-34h-330v-246h330v-34h-330v-248h330v-34h-367z" />
    <glyph glyph-name="f.smcp" unicode="&#xe206;" horiz-adv-x="463" 
d="M75 0v596h337v-34h-301v-247h301v-34h-301v-281h-36z" />
    <glyph glyph-name="f.smcp" unicode="&#xf766;" horiz-adv-x="463" 
d="M75 0v596h337v-34h-301v-247h301v-34h-301v-281h-36z" />
    <glyph glyph-name="g.smcp" unicode="&#xe207;" horiz-adv-x="710" 
d="M360 -9q-131 0 -219.5 90t-88.5 217t89.5 217t217.5 90q85 0 154.5 -39.5t110.5 -106.5l-32 -19q-35 61 -95.5 95.5t-137.5 34.5q-113 0 -191 -80t-78 -192t77 -192.5t193 -80.5q113 0 184 71t80 177h-270v35h307v-11q0 -127 -83.5 -216.5t-217.5 -89.5z" />
    <glyph glyph-name="g.smcp" unicode="&#xf767;" horiz-adv-x="710" 
d="M360 -9q-131 0 -219.5 90t-88.5 217t89.5 217t217.5 90q85 0 154.5 -39.5t110.5 -106.5l-32 -19q-35 61 -95.5 95.5t-137.5 34.5q-113 0 -191 -80t-78 -192t77 -192.5t193 -80.5q113 0 184 71t80 177h-270v35h307v-11q0 -127 -83.5 -216.5t-217.5 -89.5z" />
    <glyph glyph-name="h.smcp" unicode="&#xe208;" horiz-adv-x="587" 
d="M476 0v281h-365v-281h-36v596h36v-281h365v281h36v-596h-36z" />
    <glyph glyph-name="h.smcp" unicode="&#xf768;" horiz-adv-x="587" 
d="M476 0v281h-365v-281h-36v596h36v-281h365v281h36v-596h-36z" />
    <glyph glyph-name="i.smcp" unicode="&#xe209;" horiz-adv-x="196" 
d="M80 0v596h37v-596h-37z" />
    <glyph glyph-name="i.smcp" unicode="&#xf769;" horiz-adv-x="196" 
d="M80 0v596h37v-596h-37z" />
    <glyph glyph-name="j.smcp" unicode="&#xe20a;" horiz-adv-x="414" 
d="M188 -9q-114 0 -152 91l34 16q35 -73 118 -73q53 0 85 35.5t32 89.5v446h36v-445q0 -71 -41.5 -115.5t-111.5 -44.5z" />
    <glyph glyph-name="j.smcp" unicode="&#xf76a;" horiz-adv-x="414" 
d="M188 -9q-114 0 -152 91l34 16q35 -73 118 -73q53 0 85 35.5t32 89.5v446h36v-445q0 -71 -41.5 -115.5t-111.5 -44.5z" />
    <glyph glyph-name="k.smcp" unicode="&#xe20b;" horiz-adv-x="558" 
d="M477 0l-225 331l-140 -156v-175h-37v596h37v-373l336 373h45l-215 -240l242 -356h-43z" />
    <glyph glyph-name="k.smcp" unicode="&#xf76b;" horiz-adv-x="558" 
d="M477 0l-225 331l-140 -156v-175h-37v596h37v-373l336 373h45l-215 -240l242 -356h-43z" />
    <glyph glyph-name="l.smcp" unicode="&#xe20c;" horiz-adv-x="455" 
d="M75 0v596h36v-561h295v-35h-331z" />
    <glyph glyph-name="l.smcp" unicode="&#xf76c;" horiz-adv-x="455" 
d="M75 0v596h36v-561h295v-35h-331z" />
    <glyph glyph-name="m.smcp" unicode="&#xe20d;" horiz-adv-x="733" 
d="M75 0v596h35l254 -352l261 352h34v-596h-37v533l-258 -349l-253 349v-533h-36z" />
    <glyph glyph-name="m.smcp" unicode="&#xf76d;" horiz-adv-x="733" 
d="M75 0v596h35l254 -352l261 352h34v-596h-37v533l-258 -349l-253 349v-533h-36z" />
    <glyph glyph-name="n.smcp" unicode="&#xe20e;" horiz-adv-x="631" 
d="M75 0v596h39l406 -540v540h36v-596h-38l-407 541v-541h-36z" />
    <glyph glyph-name="n.smcp" unicode="&#xf76e;" horiz-adv-x="631" 
d="M75 0v596h39l406 -540v540h36v-596h-38l-407 541v-541h-36z" />
    <glyph glyph-name="o.smcp" unicode="&#xe20f;" horiz-adv-x="715" 
d="M357 -9q-128 0 -216.5 90t-88.5 217t88.5 217t216.5 90t217 -90t89 -217t-89 -217t-217 -90zM357 25q113 0 190.5 80.5t77.5 192.5t-77.5 192t-190.5 80q-112 0 -189.5 -80t-77.5 -192t77.5 -192.5t189.5 -80.5z" />
    <glyph glyph-name="o.smcp" unicode="&#xf76f;" horiz-adv-x="715" 
d="M357 -9q-128 0 -216.5 90t-88.5 217t88.5 217t216.5 90t217 -90t89 -217t-89 -217t-217 -90zM357 25q113 0 190.5 80.5t77.5 192.5t-77.5 192t-190.5 80q-112 0 -189.5 -80t-77.5 -192t77.5 -192.5t189.5 -80.5z" />
    <glyph glyph-name="q.smcp" unicode="&#xe211;" horiz-adv-x="716" 
d="M357 -9q-128 0 -216.5 90t-88.5 217t88.5 217t216.5 90t217 -90t89 -217t-89 -218l70 -80h-48l-205 238h45l114 -130q75 80 75 190q0 112 -77.5 192t-190.5 80q-112 0 -189.5 -80t-77.5 -192t77.5 -192.5t189.5 -80.5q74 0 136 38l24 -28q-72 -44 -160 -44z" />
    <glyph glyph-name="q.smcp" unicode="&#xf771;" horiz-adv-x="716" 
d="M357 -9q-128 0 -216.5 90t-88.5 217t88.5 217t216.5 90t217 -90t89 -217t-89 -218l70 -80h-48l-205 238h45l114 -130q75 80 75 190q0 112 -77.5 192t-190.5 80q-112 0 -189.5 -80t-77.5 -192t77.5 -192.5t189.5 -80.5q74 0 136 38l24 -28q-72 -44 -160 -44z" />
    <glyph glyph-name="r.smcp" unicode="&#xe212;" horiz-adv-x="498" 
d="M75 0v596h182q81 0 135.5 -53.5t54.5 -130.5q0 -68 -44 -119.5t-113 -61.5l161 -231h-44l-180 260h25q67 0 112.5 45.5t45.5 106.5q0 64 -43.5 107t-111.5 43h-143v-562h-37z" />
    <glyph glyph-name="r.smcp" unicode="&#xf772;" horiz-adv-x="498" 
d="M75 0v596h182q81 0 135.5 -53.5t54.5 -130.5q0 -68 -44 -119.5t-113 -61.5l161 -231h-44l-180 260h25q67 0 112.5 45.5t45.5 106.5q0 64 -43.5 107t-111.5 43h-143v-562h-37z" />
    <glyph glyph-name="s.smcp" unicode="&#xe213;" horiz-adv-x="464" 
d="M224 -9q-114 0 -186 86l31 25q60 -77 155 -77q65 0 108.5 38t43.5 96q0 25 -10 46t-21.5 33.5t-38 25.5t-40.5 18.5t-48 17.5q-40 13 -62 22.5t-50 27.5t-41 44t-13 61q0 66 50 108t123 42q107 0 170 -75l-29 -23q-48 65 -140 65q-58 0 -97.5 -32.5t-39.5 -84.5
q0 -22 9.5 -40t20 -29t36 -23.5t38.5 -17t47 -16.5q41 -14 64.5 -24.5t52.5 -30t42.5 -48.5t13.5 -68q0 -70 -53 -118.5t-136 -48.5z" />
    <glyph glyph-name="s.smcp" unicode="&#xf773;" horiz-adv-x="464" 
d="M224 -9q-114 0 -186 86l31 25q60 -77 155 -77q65 0 108.5 38t43.5 96q0 25 -10 46t-21.5 33.5t-38 25.5t-40.5 18.5t-48 17.5q-40 13 -62 22.5t-50 27.5t-41 44t-13 61q0 66 50 108t123 42q107 0 170 -75l-29 -23q-48 65 -140 65q-58 0 -97.5 -32.5t-39.5 -84.5
q0 -22 9.5 -40t20 -29t36 -23.5t38.5 -17t47 -16.5q41 -14 64.5 -24.5t52.5 -30t42.5 -48.5t13.5 -68q0 -70 -53 -118.5t-136 -48.5z" />
    <glyph glyph-name="t.smcp" unicode="&#xe214;" horiz-adv-x="513" 
d="M239 0v561h-191v35h417v-35h-189v-561h-37z" />
    <glyph glyph-name="t.smcp" unicode="&#xf774;" horiz-adv-x="513" 
d="M239 0v561h-191v35h417v-35h-189v-561h-37z" />
    <glyph glyph-name="u.smcp" unicode="&#xe215;" horiz-adv-x="552" 
d="M276 -9q-87 0 -145 56.5t-58 143.5v405h36v-405q0 -72 48 -119t119 -47t119 47t48 119v405h36v-405q0 -87 -58 -143.5t-145 -56.5z" />
    <glyph glyph-name="u.smcp" unicode="&#xf775;" horiz-adv-x="552" 
d="M276 -9q-87 0 -145 56.5t-58 143.5v405h36v-405q0 -72 48 -119t119 -47t119 47t48 119v405h36v-405q0 -87 -58 -143.5t-145 -56.5z" />
    <glyph glyph-name="v.smcp" unicode="&#xe216;" horiz-adv-x="564" 
d="M264 0l-228 596h39l206 -545l209 545h38l-228 -596h-36z" />
    <glyph glyph-name="v.smcp" unicode="&#xf776;" horiz-adv-x="564" 
d="M264 0l-228 596h39l206 -545l209 545h38l-228 -596h-36z" />
    <glyph glyph-name="w.smcp" unicode="&#xe217;" horiz-adv-x="877" 
d="M214 0l-175 596h39l157 -541l185 541h34l185 -541l162 541h38l-181 -596h-37l-184 539l-185 -539h-38z" />
    <glyph glyph-name="w.smcp" unicode="&#xf777;" horiz-adv-x="877" 
d="M214 0l-175 596h39l157 -541l185 541h34l185 -541l162 541h38l-181 -596h-37l-184 539l-185 -539h-38z" />
    <glyph glyph-name="x.smcp" unicode="&#xe218;" horiz-adv-x="532" 
d="M459 0l-192 278l-192 -278h-44l215 308l-198 288h42l178 -258l175 258h43l-197 -287l212 -309h-42z" />
    <glyph glyph-name="x.smcp" unicode="&#xf778;" horiz-adv-x="532" 
d="M459 0l-192 278l-192 -278h-44l215 308l-198 288h42l178 -258l175 258h43l-197 -287l212 -309h-42z" />
    <glyph glyph-name="y.smcp" unicode="&#xe219;" horiz-adv-x="521" 
d="M243 0v282l-202 314h41l178 -279l179 279h41l-201 -312v-284h-36z" />
    <glyph glyph-name="y.smcp" unicode="&#xf779;" horiz-adv-x="521" 
d="M243 0v282l-202 314h41l178 -279l179 279h41l-201 -312v-284h-36z" />
    <glyph glyph-name="z.smcp" unicode="&#xe21a;" horiz-adv-x="501" 
d="M53 0v34l351 527h-341v35h385v-34l-353 -527h352v-35h-394z" />
    <glyph glyph-name="z.smcp" unicode="&#xf77a;" horiz-adv-x="501" 
d="M53 0v34l351 527h-341v35h385v-34l-353 -527h352v-35h-394z" />
    <glyph glyph-name="anocross.smcp" unicode="&#xe220;" horiz-adv-x="571" 
d="M35 0l231 596h38l232 -596h-38l-213 547l-211 -547h-39z" />
    <glyph glyph-name="aacute.smcp" unicode="&#xe221;" horiz-adv-x="571" 
d="M35 0l231 596h38l232 -596h-38l-67 170h-292l-65 -170h-39zM285 547l-133 -343h266zM266 669l123 147h50l-135 -147h-38z" />
    <glyph glyph-name="aacute.smcp" unicode="&#xf7e1;" horiz-adv-x="571" 
d="M35 0l231 596h38l232 -596h-38l-67 170h-292l-65 -170h-39zM285 547l-133 -343h266zM266 669l123 147h50l-135 -147h-38z" />
    <glyph glyph-name="agrave.smcp" unicode="&#xe222;" horiz-adv-x="571" 
d="M35 0l231 596h38l232 -596h-38l-67 170h-292l-65 -170h-39zM285 547l-133 -343h266zM266 669l-135 147h50l123 -147h-38z" />
    <glyph glyph-name="agrave.smcp" unicode="&#xf7e0;" horiz-adv-x="571" 
d="M35 0l231 596h38l232 -596h-38l-67 170h-292l-65 -170h-39zM285 547l-133 -343h266zM266 669l-135 147h50l123 -147h-38z" />
    <glyph glyph-name="acircumflex.smcp" unicode="&#xe223;" horiz-adv-x="571" 
d="M35 0l231 596h38l232 -596h-38l-67 170h-292l-65 -170h-39zM285 547l-133 -343h266zM149 661l119 147h32l119 -147h-40l-95 117l-94 -117h-41z" />
    <glyph glyph-name="acircumflex.smcp" unicode="&#xf7e2;" horiz-adv-x="571" 
d="M35 0l231 596h38l232 -596h-38l-67 170h-292l-65 -170h-39zM285 547l-133 -343h266zM149 661l119 147h32l119 -147h-40l-95 117l-94 -117h-41z" />
    <glyph glyph-name="adieresis.smcp" unicode="&#xe224;" horiz-adv-x="571" 
d="M35 0l231 596h38l232 -596h-38l-67 170h-292l-65 -170h-39zM285 547l-133 -343h266zM217 671v140h36v-140h-36zM317 671v140h36v-140h-36z" />
    <glyph glyph-name="adieresis.smcp" unicode="&#xf7e4;" horiz-adv-x="571" 
d="M35 0l231 596h38l232 -596h-38l-67 170h-292l-65 -170h-39zM285 547l-133 -343h266zM217 671v140h36v-140h-36zM317 671v140h36v-140h-36z" />
    <glyph glyph-name="atilde.smcp" unicode="&#xe225;" horiz-adv-x="571" 
d="M35 0l231 596h38l232 -596h-38l-67 170h-292l-65 -170h-39zM285 547l-133 -343h266zM113 669q0 43 24.5 69.5t63.5 26.5q33 0 89 -34t83 -34q59 0 59 65h32q0 -46 -24.5 -71.5t-67.5 -25.5q-37 0 -95 35q-51 32 -76 32t-41 -16.5t-16 -46.5h-31z" />
    <glyph glyph-name="atilde.smcp" unicode="&#xf7e3;" horiz-adv-x="571" 
d="M35 0l231 596h38l232 -596h-38l-67 170h-292l-65 -170h-39zM285 547l-133 -343h266zM113 669q0 43 24.5 69.5t63.5 26.5q33 0 89 -34t83 -34q59 0 59 65h32q0 -46 -24.5 -71.5t-67.5 -25.5q-37 0 -95 35q-51 32 -76 32t-41 -16.5t-16 -46.5h-31z" />
    <glyph glyph-name="aring.smcp" unicode="&#xe226;" horiz-adv-x="571" 
d="M35 0l221 571q-28 8 -46 32.5t-18 54.5q0 39 27 66t64 27q39 0 66 -26.5t27 -66.5q0 -29 -17.5 -53t-45.5 -33l223 -572h-38l-67 170h-292l-65 -170h-39zM285 546l-133 -342h266zM283 598q25 0 43.5 18t18.5 42q0 26 -18.5 44.5t-43.5 18.5q-24 0 -42 -19t-18 -44
q0 -24 18 -42t42 -18z" />
    <glyph glyph-name="aring.smcp" unicode="&#xf7e5;" horiz-adv-x="571" 
d="M35 0l221 571q-28 8 -46 32.5t-18 54.5q0 39 27 66t64 27q39 0 66 -26.5t27 -66.5q0 -29 -17.5 -53t-45.5 -33l223 -572h-38l-67 170h-292l-65 -170h-39zM285 546l-133 -342h266zM283 598q25 0 43.5 18t18.5 42q0 26 -18.5 44.5t-43.5 18.5q-24 0 -42 -19t-18 -44
q0 -24 18 -42t42 -18z" />
    <glyph glyph-name="amacron.smcp" unicode="&#xe228;" horiz-adv-x="571" 
d="M35 0l231 596h38l232 -596h-38l-67 170h-292l-65 -170h-39zM285 547l-133 -343h266zM152 669v32h264v-32h-264z" />
    <glyph glyph-name="amacron.smcp" unicode="&#xf641;" horiz-adv-x="571" 
d="M35 0l231 596h38l232 -596h-38l-67 170h-292l-65 -170h-39zM285 547l-133 -343h266zM152 669v32h264v-32h-264z" />
    <glyph glyph-name="abreve.smcp" unicode="&#xe229;" horiz-adv-x="571" 
d="M35 0l231 596h38l232 -596h-38l-67 170h-292l-65 -170h-39zM285 547l-133 -343h266zM285 661q-78 0 -120 44.5t-42 106.5h33q0 -50 33.5 -85.5t95.5 -36.5q58 1 93 37t35 85h33q0 -60 -44.5 -105.5t-116.5 -45.5z" />
    <glyph glyph-name="abreve.smcp" unicode="&#xf640;" horiz-adv-x="571" 
d="M35 0l231 596h38l232 -596h-38l-67 170h-292l-65 -170h-39zM285 547l-133 -343h266zM285 661q-78 0 -120 44.5t-42 106.5h33q0 -50 33.5 -85.5t95.5 -36.5q58 1 93 37t35 85h33q0 -60 -44.5 -105.5t-116.5 -45.5z" />
    <glyph glyph-name="aringacute.smcp" unicode="&#xe22d;" horiz-adv-x="571" 
d="M35 0l221 571q-28 8 -46 32.5t-18 54.5q0 39 27 66t64 27q39 0 66 -26.5t27 -66.5q0 -29 -17.5 -53t-45.5 -33l223 -572h-38l-67 170h-292l-65 -170h-39zM285 546l-133 -342h266zM283 598q25 0 43.5 18t18.5 42q0 26 -18.5 44.5t-43.5 18.5q-24 0 -42 -19t-18 -44
q0 -24 18 -42t42 -18zM265 799l123 147h50l-135 -147h-38z" />
    <glyph glyph-name="aringacute.smcp" unicode="&#xf625;" horiz-adv-x="571" 
d="M35 0l221 571q-28 8 -46 32.5t-18 54.5q0 39 27 66t64 27q39 0 66 -26.5t27 -66.5q0 -29 -17.5 -53t-45.5 -33l223 -572h-38l-67 170h-292l-65 -170h-39zM285 546l-133 -342h266zM283 598q25 0 43.5 18t18.5 42q0 26 -18.5 44.5t-43.5 18.5q-24 0 -42 -19t-18 -44
q0 -24 18 -42t42 -18zM265 799l123 147h50l-135 -147h-38z" />
    <glyph glyph-name="aogonek.smcp" unicode="&#xe22f;" horiz-adv-x="571" 
d="M35 0l231 596h38l232 -596h-3l2 -1q-65 -32 -91.5 -57t-26.5 -52t23.5 -43t61.5 -16q52 0 98 44l30 -21q-59 -55 -128 -55q-54 0 -88 26t-34 65q0 68 113 122l-62 158h-292l-65 -170h-39zM285 547l-133 -343h266z" />
    <glyph glyph-name="aogonek.smcp" unicode="&#xf642;" horiz-adv-x="571" 
d="M35 0l231 596h38l232 -596h-3l2 -1q-65 -32 -91.5 -57t-26.5 -52t23.5 -43t61.5 -16q52 0 98 44l30 -21q-59 -55 -128 -55q-54 0 -88 26t-34 65q0 68 113 122l-62 158h-292l-65 -170h-39zM285 547l-133 -343h266z" />
    <glyph glyph-name="edieresis.smcp" unicode="&#xe230;" horiz-adv-x="498" 
d="M75 0v596h367v-34h-330v-246h330v-34h-330v-248h330v-34h-367zM199 671v140h36v-140h-36zM299 671v140h36v-140h-36z" />
    <glyph glyph-name="edieresis.smcp" unicode="&#xf7eb;" horiz-adv-x="498" 
d="M75 0v596h367v-34h-330v-246h330v-34h-330v-248h330v-34h-367zM199 671v140h36v-140h-36zM299 671v140h36v-140h-36z" />
    <glyph glyph-name="ae.smcp" unicode="&#xe231;" horiz-adv-x="889" 
d="M38 0l323 596h471v-35h-423l50 -245h373v-35h-366l51 -246h315v-35h-346l-35 172h-279l-93 -172h-41zM374 546l-184 -341h254z" />
    <glyph glyph-name="ae.smcp" unicode="&#xf7e6;" horiz-adv-x="889" 
d="M38 0l323 596h471v-35h-423l50 -245h373v-35h-366l51 -246h315v-35h-346l-35 172h-279l-93 -172h-41zM374 546l-184 -341h254z" />
    <glyph glyph-name="aeacute.smcp" unicode="&#xe232;" horiz-adv-x="892" 
d="M38 0l323 596h471v-35h-423l50 -245h373v-35h-366l51 -246h315v-35h-346l-35 172h-279l-93 -172h-41zM374 546l-184 -341h254zM518 669l123 147h50l-135 -147h-38z" />
    <glyph glyph-name="aeacute.smcp" unicode="&#xf624;" horiz-adv-x="892" 
d="M38 0l323 596h471v-35h-423l50 -245h373v-35h-366l51 -246h315v-35h-346l-35 172h-279l-93 -172h-41zM374 546l-184 -341h254zM518 669l123 147h50l-135 -147h-38z" />
    <glyph glyph-name="cacute.smcp" unicode="&#xe234;" horiz-adv-x="662" 
d="M340 669l123 147h50l-135 -147h-38zM358 -9q-128 0 -217 89.5t-89 217.5q0 129 89.5 218t216.5 89q83 0 153 -41t111 -109l-32 -18q-36 61 -97 97t-135 36q-112 0 -190 -80t-78 -192q0 -113 78 -193t190 -80q77 0 139.5 39t97.5 104l33 -15q-40 -74 -112 -118t-158 -44z
" />
    <glyph glyph-name="cacute.smcp" unicode="&#xf643;" horiz-adv-x="662" 
d="M340 669l123 147h50l-135 -147h-38zM358 -9q-128 0 -217 89.5t-89 217.5q0 129 89.5 218t216.5 89q83 0 153 -41t111 -109l-32 -18q-36 61 -97 97t-135 36q-112 0 -190 -80t-78 -192q0 -113 78 -193t190 -80q77 0 139.5 39t97.5 104l33 -15q-40 -74 -112 -118t-158 -44z
" />
    <glyph glyph-name="ccircumflex.smcp" unicode="&#xe235;" horiz-adv-x="662" 
d="M358 -9q-128 0 -217 89.5t-89 217.5q0 129 89.5 218t216.5 89q83 0 153 -41t111 -109l-32 -18q-36 61 -97 97t-135 36q-112 0 -190 -80t-78 -192q0 -113 78 -193t190 -80q77 0 139.5 39t97.5 104l33 -15q-40 -74 -112 -118t-158 -44zM226 667l119 147h32l119 -147h-40
l-95 117l-94 -117h-41z" />
    <glyph glyph-name="ccircumflex.smcp" unicode="&#xf628;" horiz-adv-x="662" 
d="M358 -9q-128 0 -217 89.5t-89 217.5q0 129 89.5 218t216.5 89q83 0 153 -41t111 -109l-32 -18q-36 61 -97 97t-135 36q-112 0 -190 -80t-78 -192q0 -113 78 -193t190 -80q77 0 139.5 39t97.5 104l33 -15q-40 -74 -112 -118t-158 -44zM226 667l119 147h32l119 -147h-40
l-95 117l-94 -117h-41z" />
    <glyph glyph-name="ccaron.smcp" unicode="&#xe236;" horiz-adv-x="662" 
d="M358 -9q-128 0 -217 89.5t-89 217.5q0 129 89.5 218t216.5 89q83 0 153 -41t111 -109l-32 -18q-36 61 -97 97t-135 36q-112 0 -190 -80t-78 -192q0 -113 78 -193t190 -80q77 0 139.5 39t97.5 104l33 -15q-40 -74 -112 -118t-158 -44zM346 669l-119 147h40l94 -118l95 118
h41l-119 -147h-32z" />
    <glyph glyph-name="ccaron.smcp" unicode="&#xf644;" horiz-adv-x="662" 
d="M358 -9q-128 0 -217 89.5t-89 217.5q0 129 89.5 218t216.5 89q83 0 153 -41t111 -109l-32 -18q-36 61 -97 97t-135 36q-112 0 -190 -80t-78 -192q0 -113 78 -193t190 -80q77 0 139.5 39t97.5 104l33 -15q-40 -74 -112 -118t-158 -44zM346 669l-119 147h40l94 -118l95 118
h41l-119 -147h-32z" />
    <glyph glyph-name="cdotaccent.smcp" unicode="&#xe237;" horiz-adv-x="662" 
d="M358 -9q-128 0 -217 89.5t-89 217.5q0 129 89.5 218t216.5 89q83 0 153 -41t111 -109l-32 -18q-36 61 -97 97t-135 36q-112 0 -190 -80t-78 -192q0 -113 78 -193t190 -80q77 0 139.5 39t97.5 104l33 -15q-40 -74 -112 -118t-158 -44zM344 671v140h37v-140h-37z" />
    <glyph glyph-name="cdotaccent.smcp" unicode="&#xf629;" horiz-adv-x="662" 
d="M358 -9q-128 0 -217 89.5t-89 217.5q0 129 89.5 218t216.5 89q83 0 153 -41t111 -109l-32 -18q-36 61 -97 97t-135 36q-112 0 -190 -80t-78 -192q0 -113 78 -193t190 -80q77 0 139.5 39t97.5 104l33 -15q-40 -74 -112 -118t-158 -44zM344 671v140h37v-140h-37z" />
    <glyph glyph-name="ccedilla.smcp" unicode="&#xe238;" horiz-adv-x="662" 
d="M357 -225q-79 0 -131 52l30 19q47 -42 101 -42q41 0 67.5 17t26.5 43q0 24 -26.5 38.5t-70.5 14.5h-23v75q-119 10 -199 97.5t-80 208.5q0 129 89.5 218t216.5 89q83 0 153 -41t111 -109l-32 -18q-36 61 -97 97t-135 36q-112 0 -190 -80t-78 -192q0 -113 78 -193t190 -80
q77 0 139.5 39t97.5 104l33 -15q-40 -73 -110.5 -117t-155.5 -45v-50q56 0 90.5 -21t34.5 -55q0 -39 -36.5 -64.5t-93.5 -25.5z" />
    <glyph glyph-name="ccedilla.smcp" unicode="&#xf7e7;" horiz-adv-x="662" 
d="M357 -225q-79 0 -131 52l30 19q47 -42 101 -42q41 0 67.5 17t26.5 43q0 24 -26.5 38.5t-70.5 14.5h-23v75q-119 10 -199 97.5t-80 208.5q0 129 89.5 218t216.5 89q83 0 153 -41t111 -109l-32 -18q-36 61 -97 97t-135 36q-112 0 -190 -80t-78 -192q0 -113 78 -193t190 -80
q77 0 139.5 39t97.5 104l33 -15q-40 -73 -110.5 -117t-155.5 -45v-50q56 0 90.5 -21t34.5 -55q0 -39 -36.5 -64.5t-93.5 -25.5z" />
    <glyph glyph-name="dcaron.smcp" unicode="&#xe239;" horiz-adv-x="601" 
d="M75 0v596h167q132 0 219.5 -85.5t87.5 -212.5q0 -126 -88.5 -212t-217.5 -86h-168zM240 562h-129v-528h130q115 0 193 76t78 188q0 113 -77.5 188.5t-194.5 75.5zM251 669l-119 147h40l94 -118l95 118h41l-119 -147h-32z" />
    <glyph glyph-name="dcaron.smcp" unicode="&#xf645;" horiz-adv-x="601" 
d="M75 0v596h167q132 0 219.5 -85.5t87.5 -212.5q0 -126 -88.5 -212t-217.5 -86h-168zM240 562h-129v-528h130q115 0 193 76t78 188q0 113 -77.5 188.5t-194.5 75.5zM251 669l-119 147h40l94 -118l95 118h41l-119 -147h-32z" />
    <glyph glyph-name="dcroat.smcp" unicode="&#xe23c;" horiz-adv-x="616" 
d="M26 281v33h63v282h168q131 0 219 -85.5t88 -212.5q0 -126 -88.5 -212t-217.5 -86h-169v281h-63zM288 281h-162v-247h129q115 0 193 76t78 188q0 113 -77.5 188.5t-194.5 75.5h-128v-248h162v-33z" />
    <glyph glyph-name="dcroat.smcp" unicode="&#xf646;" horiz-adv-x="616" 
d="M26 281v33h63v282h168q131 0 219 -85.5t88 -212.5q0 -126 -88.5 -212t-217.5 -86h-169v281h-63zM288 281h-162v-247h129q115 0 193 76t78 188q0 113 -77.5 188.5t-194.5 75.5h-128v-248h162v-33z" />
    <glyph glyph-name="eacute.smcp" unicode="&#xe23d;" horiz-adv-x="498" 
d="M75 0v596h367v-34h-330v-246h330v-34h-330v-248h330v-34h-367zM228 669l123 147h50l-135 -147h-38z" />
    <glyph glyph-name="eacute.smcp" unicode="&#xf7e9;" horiz-adv-x="498" 
d="M75 0v596h367v-34h-330v-246h330v-34h-330v-248h330v-34h-367zM228 669l123 147h50l-135 -147h-38z" />
    <glyph glyph-name="egrave.smcp" unicode="&#xe23e;" horiz-adv-x="498" 
d="M75 0v596h367v-34h-330v-246h330v-34h-330v-248h330v-34h-367zM269 669l-135 147h50l123 -147h-38z" />
    <glyph glyph-name="egrave.smcp" unicode="&#xf7e8;" horiz-adv-x="498" 
d="M75 0v596h367v-34h-330v-246h330v-34h-330v-248h330v-34h-367zM269 669l-135 147h50l123 -147h-38z" />
    <glyph glyph-name="ecircumflex.smcp" unicode="&#xe23f;" horiz-adv-x="498" 
d="M75 0v596h367v-34h-330v-246h330v-34h-330v-248h330v-34h-367zM129 669l119 147h32l119 -147h-40l-95 117l-94 -117h-41z" />
    <glyph glyph-name="ecircumflex.smcp" unicode="&#xf7ea;" horiz-adv-x="498" 
d="M75 0v596h367v-34h-330v-246h330v-34h-330v-248h330v-34h-367zM129 669l119 147h32l119 -147h-40l-95 117l-94 -117h-41z" />
    <glyph glyph-name="gcommaaccent.smcp" unicode="&#xe240;" horiz-adv-x="710" 
d="M360 -9q-131 0 -219.5 90t-88.5 217t89.5 217t217.5 90q85 0 154.5 -39.5t110.5 -106.5l-32 -19q-35 61 -95.5 95.5t-137.5 34.5q-113 0 -191 -80t-78 -192t77 -192.5t193 -80.5q113 0 184 71t80 177h-270v35h307v-11q0 -127 -83.5 -216.5t-217.5 -89.5zM322 -281h-28
l47 204h37z" />
    <glyph glyph-name="gcommaaccent.smcp" unicode="&#xf64c;" horiz-adv-x="710" 
d="M360 -9q-131 0 -219.5 90t-88.5 217t89.5 217t217.5 90q85 0 154.5 -39.5t110.5 -106.5l-32 -19q-35 61 -95.5 95.5t-137.5 34.5q-113 0 -191 -80t-78 -192t77 -192.5t193 -80.5q113 0 184 71t80 177h-270v35h307v-11q0 -127 -83.5 -216.5t-217.5 -89.5zM322 -281h-28
l47 204h37z" />
    <glyph glyph-name="ecaron.smcp" unicode="&#xe241;" horiz-adv-x="498" 
d="M75 0v596h367v-34h-330v-246h330v-34h-330v-248h330v-34h-367zM247 669l-119 147h40l94 -118l95 118h41l-119 -147h-32z" />
    <glyph glyph-name="ecaron.smcp" unicode="&#xf647;" horiz-adv-x="498" 
d="M75 0v596h367v-34h-330v-246h330v-34h-330v-248h330v-34h-367zM247 669l-119 147h40l94 -118l95 118h41l-119 -147h-32z" />
    <glyph glyph-name="emacron.smcp" unicode="&#xe242;" horiz-adv-x="498" 
d="M75 0v596h367v-34h-330v-246h330v-34h-330v-248h330v-34h-367zM128 674v32h264v-32h-264z" />
    <glyph glyph-name="emacron.smcp" unicode="&#xf649;" horiz-adv-x="498" 
d="M75 0v596h367v-34h-330v-246h330v-34h-330v-248h330v-34h-367zM128 674v32h264v-32h-264z" />
    <glyph glyph-name="ebreve.smcp" unicode="&#xe243;" horiz-adv-x="498" 
d="M75 0v596h367v-34h-330v-246h330v-34h-330v-248h330v-34h-367zM261 665q-78 0 -120 44.5t-42 106.5h33q0 -50 33.5 -85.5t95.5 -36.5q58 1 93 37t35 85h33q0 -60 -44.5 -105.5t-116.5 -45.5z" />
    <glyph glyph-name="ebreve.smcp" unicode="&#xf62a;" horiz-adv-x="498" 
d="M75 0v596h367v-34h-330v-246h330v-34h-330v-248h330v-34h-367zM261 665q-78 0 -120 44.5t-42 106.5h33q0 -50 33.5 -85.5t95.5 -36.5q58 1 93 37t35 85h33q0 -60 -44.5 -105.5t-116.5 -45.5z" />
    <glyph glyph-name="edotaccent.smcp" unicode="&#xe246;" horiz-adv-x="498" 
d="M75 0v596h367v-34h-330v-246h330v-34h-330v-248h330v-34h-367zM248 671v140h37v-140h-37z" />
    <glyph glyph-name="edotaccent.smcp" unicode="&#xf648;" horiz-adv-x="498" 
d="M75 0v596h367v-34h-330v-246h330v-34h-330v-248h330v-34h-367zM248 671v140h37v-140h-37z" />
    <glyph glyph-name="eogonek.smcp" unicode="&#xe249;" horiz-adv-x="498" 
d="M75 0v596h367v-34h-330v-246h330v-34h-330v-248h330v-34h-4l2 -1q-65 -32 -91.5 -57t-26.5 -52t23.5 -43t61.5 -16q52 0 98 44l30 -21q-59 -55 -128 -55q-54 0 -88 26t-34 65q0 61 90 110h-300z" />
    <glyph glyph-name="eogonek.smcp" unicode="&#xf64a;" horiz-adv-x="498" 
d="M75 0v596h367v-34h-330v-246h330v-34h-330v-248h330v-34h-4l2 -1q-65 -32 -91.5 -57t-26.5 -52t23.5 -43t61.5 -16q52 0 98 44l30 -21q-59 -55 -128 -55q-54 0 -88 26t-34 65q0 61 90 110h-300z" />
    <glyph glyph-name="gcircumflex.smcp" unicode="&#xe24b;" horiz-adv-x="710" 
d="M360 -9q-131 0 -219.5 90t-88.5 217t89.5 217t217.5 90q85 0 154.5 -39.5t110.5 -106.5l-32 -19q-35 61 -95.5 95.5t-137.5 34.5q-113 0 -191 -80t-78 -192t77 -192.5t193 -80.5q113 0 184 71t80 177h-270v35h307v-11q0 -127 -83.5 -216.5t-217.5 -89.5zM225 668l119 147
h32l119 -147h-40l-95 117l-94 -117h-41z" />
    <glyph glyph-name="gcircumflex.smcp" unicode="&#xf62c;" horiz-adv-x="710" 
d="M360 -9q-131 0 -219.5 90t-88.5 217t89.5 217t217.5 90q85 0 154.5 -39.5t110.5 -106.5l-32 -19q-35 61 -95.5 95.5t-137.5 34.5q-113 0 -191 -80t-78 -192t77 -192.5t193 -80.5q113 0 184 71t80 177h-270v35h307v-11q0 -127 -83.5 -216.5t-217.5 -89.5zM225 668l119 147
h32l119 -147h-40l-95 117l-94 -117h-41z" />
    <glyph glyph-name="gbreve.smcp" unicode="&#xe24e;" horiz-adv-x="710" 
d="M360 -9q-131 0 -219.5 90t-88.5 217t89.5 217t217.5 90q85 0 154.5 -39.5t110.5 -106.5l-32 -19q-35 61 -95.5 95.5t-137.5 34.5q-113 0 -191 -80t-78 -192t77 -192.5t193 -80.5q113 0 184 71t80 177h-270v35h307v-11q0 -127 -83.5 -216.5t-217.5 -89.5zM361 668
q-78 0 -120 44.5t-42 106.5h33q0 -50 33.5 -85.5t95.5 -36.5q58 1 93 37t35 85h33q0 -60 -44.5 -105.5t-116.5 -45.5z" />
    <glyph glyph-name="gbreve.smcp" unicode="&#xf64b;" horiz-adv-x="710" 
d="M360 -9q-131 0 -219.5 90t-88.5 217t89.5 217t217.5 90q85 0 154.5 -39.5t110.5 -106.5l-32 -19q-35 61 -95.5 95.5t-137.5 34.5q-113 0 -191 -80t-78 -192t77 -192.5t193 -80.5q113 0 184 71t80 177h-270v35h307v-11q0 -127 -83.5 -216.5t-217.5 -89.5zM361 668
q-78 0 -120 44.5t-42 106.5h33q0 -50 33.5 -85.5t95.5 -36.5q58 1 93 37t35 85h33q0 -60 -44.5 -105.5t-116.5 -45.5z" />
    <glyph glyph-name="gdotaccent.smcp" unicode="&#xe24f;" horiz-adv-x="710" 
d="M360 -9q-131 0 -219.5 90t-88.5 217t89.5 217t217.5 90q85 0 154.5 -39.5t110.5 -106.5l-32 -19q-35 61 -95.5 95.5t-137.5 34.5q-113 0 -191 -80t-78 -192t77 -192.5t193 -80.5q113 0 184 71t80 177h-270v35h307v-11q0 -127 -83.5 -216.5t-217.5 -89.5zM344 671v140h37
v-140h-37z" />
    <glyph glyph-name="gdotaccent.smcp" unicode="&#xf62d;" horiz-adv-x="710" 
d="M360 -9q-131 0 -219.5 90t-88.5 217t89.5 217t217.5 90q85 0 154.5 -39.5t110.5 -106.5l-32 -19q-35 61 -95.5 95.5t-137.5 34.5q-113 0 -191 -80t-78 -192t77 -192.5t193 -80.5q113 0 184 71t80 177h-270v35h307v-11q0 -127 -83.5 -216.5t-217.5 -89.5zM344 671v140h37
v-140h-37z" />
    <glyph glyph-name="hcircumflex.smcp" unicode="&#xe253;" horiz-adv-x="587" 
d="M476 0v281h-365v-281h-36v596h36v-281h365v281h36v-596h-36zM158 668l119 147h32l119 -147h-40l-95 117l-94 -117h-41z" />
    <glyph glyph-name="hcircumflex.smcp" unicode="&#xf62f;" horiz-adv-x="587" 
d="M476 0v281h-365v-281h-36v596h36v-281h365v281h36v-596h-36zM158 668l119 147h32l119 -147h-40l-95 117l-94 -117h-41z" />
    <glyph glyph-name="hbar.smcp" unicode="&#xe257;" horiz-adv-x="615" 
d="M490 0v281h-365v-281h-36v457h-64v33h64v106h36v-106h365v106h36v-106h64v-33h-64v-457h-36zM125 457v-142h365v142h-365z" />
    <glyph glyph-name="hbar.smcp" unicode="&#xf62e;" horiz-adv-x="615" 
d="M490 0v281h-365v-281h-36v457h-64v33h64v106h36v-106h365v106h36v-106h64v-33h-64v-457h-36zM125 457v-142h365v142h-365z" />
    <glyph glyph-name="iacute.smcp" unicode="&#xe258;" horiz-adv-x="196" 
d="M77 669l123 147h50l-135 -147h-38zM80 0v596h37v-596h-37z" />
    <glyph glyph-name="iacute.smcp" unicode="&#xf7ed;" horiz-adv-x="196" 
d="M77 669l123 147h50l-135 -147h-38zM80 0v596h37v-596h-37z" />
    <glyph glyph-name="igrave.smcp" unicode="&#xe259;" horiz-adv-x="196" 
d="M79 669l-135 147h50l123 -147h-38zM80 0v596h37v-596h-37z" />
    <glyph glyph-name="igrave.smcp" unicode="&#xf7ec;" horiz-adv-x="196" 
d="M79 669l-135 147h50l123 -147h-38zM80 0v596h37v-596h-37z" />
    <glyph glyph-name="icircumflex.smcp" unicode="&#xe25a;" horiz-adv-x="196" 
d="M80 0v596h37v-596h-37zM-37 659l119 147h32l119 -147h-40l-95 117l-94 -117h-41z" />
    <glyph glyph-name="icircumflex.smcp" unicode="&#xf7ee;" horiz-adv-x="196" 
d="M80 0v596h37v-596h-37zM-37 659l119 147h32l119 -147h-40l-95 117l-94 -117h-41z" />
    <glyph glyph-name="idieresis.smcp" unicode="&#xe25b;" horiz-adv-x="196" 
d="M175 670v140h35v-140h-35zM-13 670v140h36v-140h-36zM80 0v596h37v-596h-37z" />
    <glyph glyph-name="idieresis.smcp" unicode="&#xf7ef;" horiz-adv-x="196" 
d="M175 670v140h35v-140h-35zM-13 670v140h36v-140h-36zM80 0v596h37v-596h-37z" />
    <glyph glyph-name="itilde.smcp" unicode="&#xe25c;" horiz-adv-x="196" 
d="M80 0v596h37v-596h-37zM-76 668q0 43 24.5 69.5t63.5 26.5q33 0 89 -34t83 -34q59 0 59 65h32q0 -46 -24.5 -71.5t-67.5 -25.5q-37 0 -95 35q-51 32 -76 32t-41 -16.5t-16 -46.5h-31z" />
    <glyph glyph-name="itilde.smcp" unicode="&#xf632;" horiz-adv-x="196" 
d="M80 0v596h37v-596h-37zM-76 668q0 43 24.5 69.5t63.5 26.5q33 0 89 -34t83 -34q59 0 59 65h32q0 -46 -24.5 -71.5t-67.5 -25.5q-37 0 -95 35q-51 32 -76 32t-41 -16.5t-16 -46.5h-31z" />
    <glyph glyph-name="imacron.smcp" unicode="&#xe25e;" horiz-adv-x="196" 
d="M-34 669v32h264v-32h-264zM80 0v596h37v-596h-37z" />
    <glyph glyph-name="imacron.smcp" unicode="&#xf64d;" horiz-adv-x="196" 
d="M-34 669v32h264v-32h-264zM80 0v596h37v-596h-37z" />
    <glyph glyph-name="ibreve.smcp" unicode="&#xe25f;" horiz-adv-x="196" 
d="M80 0v596h37v-596h-37zM99 665q-78 0 -120 44.5t-42 106.5h33q0 -50 33.5 -85.5t95.5 -36.5q58 1 93 37t35 85h33q0 -60 -44.5 -105.5t-116.5 -45.5z" />
    <glyph glyph-name="ibreve.smcp" unicode="&#xf630;" horiz-adv-x="196" 
d="M80 0v596h37v-596h-37zM99 665q-78 0 -120 44.5t-42 106.5h33q0 -50 33.5 -85.5t95.5 -36.5q58 1 93 37t35 85h33q0 -60 -44.5 -105.5t-116.5 -45.5z" />
    <glyph glyph-name="idotaccent.smcp" unicode="&#xe262;" horiz-adv-x="196" 
d="M80 0v596h37v-596h-37zM80 667v140h36v-140h-36z" />
    <glyph glyph-name="idotaccent.smcp" unicode="&#xf666;" horiz-adv-x="196" 
d="M80 0v596h37v-596h-37zM80 667v140h36v-140h-36z" />
    <glyph glyph-name="iogonek.smcp" unicode="&#xe264;" horiz-adv-x="196" 
d="M100 -220q-48 0 -75.5 27t-27.5 66q0 61 83 137v586h37v-596h-2l2 -1q-86 -68 -86 -124q0 -28 19 -45.5t50 -17.5q42 0 83 39l23 -25q-54 -46 -106 -46z" />
    <glyph glyph-name="iogonek.smcp" unicode="&#xf64e;" horiz-adv-x="196" 
d="M100 -220q-48 0 -75.5 27t-27.5 66q0 61 83 137v586h37v-596h-2l2 -1q-86 -68 -86 -124q0 -28 19 -45.5t50 -17.5q42 0 83 39l23 -25q-54 -46 -106 -46z" />
    <glyph glyph-name="jcircumflex.smcp" unicode="&#xe265;" horiz-adv-x="414" 
d="M188 -9q-114 0 -152 91l34 16q35 -73 118 -73q53 0 85 35.5t32 89.5v446h36v-445q0 -71 -41.5 -115.5t-111.5 -44.5zM182 661l119 147h32l119 -147h-40l-95 117l-94 -117h-41z" />
    <glyph glyph-name="jcircumflex.smcp" unicode="&#xf633;" horiz-adv-x="414" 
d="M188 -9q-114 0 -152 91l34 16q35 -73 118 -73q53 0 85 35.5t32 89.5v446h36v-445q0 -71 -41.5 -115.5t-111.5 -44.5zM182 661l119 147h32l119 -147h-40l-95 117l-94 -117h-41z" />
    <glyph glyph-name="kcommaaccent.smcp" unicode="&#xe268;" horiz-adv-x="558" 
d="M477 0l-225 331l-140 -156v-175h-37v596h37v-373l336 373h45l-215 -240l242 -356h-43zM250 -268h-28l47 204h37z" />
    <glyph glyph-name="kcommaaccent.smcp" unicode="&#xf64f;" horiz-adv-x="558" 
d="M477 0l-225 331l-140 -156v-175h-37v596h37v-373l336 373h45l-215 -240l242 -356h-43zM250 -268h-28l47 204h37z" />
    <glyph glyph-name="lacute.smcp" unicode="&#xe26b;" horiz-adv-x="455" 
d="M75 0v596h36v-561h295v-35h-331zM75 669l123 147h50l-135 -147h-38z" />
    <glyph glyph-name="lacute.smcp" unicode="&#xf650;" horiz-adv-x="455" 
d="M75 0v596h36v-561h295v-35h-331zM75 669l123 147h50l-135 -147h-38z" />
    <glyph glyph-name="lcaron.smcp" unicode="&#xe26c;" horiz-adv-x="455" 
d="M75 0v596h36v-561h295v-35h-331zM246 435l58 162h37l-66 -162h-29z" />
    <glyph glyph-name="lcaron.smcp" unicode="&#xf651;" horiz-adv-x="455" 
d="M75 0v596h36v-561h295v-35h-331zM246 435l58 162h37l-66 -162h-29z" />
    <glyph glyph-name="lcommaaccent.smcp" unicode="&#xe26d;" horiz-adv-x="455" 
d="M75 0v596h36v-561h295v-35h-331zM206 -274h-28l47 204h37z" />
    <glyph glyph-name="lcommaaccent.smcp" unicode="&#xf652;" horiz-adv-x="455" 
d="M75 0v596h36v-561h295v-35h-331zM206 -274h-28l47 204h37z" />
    <glyph glyph-name="ldot.smcp" unicode="&#xe271;" horiz-adv-x="471" 
d="M75 0v596h36v-561h295v-35h-331zM368 230v140h37v-140h-37z" />
    <glyph glyph-name="ldot.smcp" unicode="&#xf634;" horiz-adv-x="471" 
d="M75 0v596h36v-561h295v-35h-331zM368 230v140h37v-140h-37z" />
    <glyph glyph-name="lslash.smcp" unicode="&#xe272;" horiz-adv-x="468" 
d="M22 269v31l65 25v271h36v-258l182 70v-32l-182 -69v-272h295v-35h-331v293z" />
    <glyph glyph-name="lslash.smcp" unicode="&#xf6f9;" horiz-adv-x="468" 
d="M22 269v31l65 25v271h36v-258l182 70v-32l-182 -69v-272h295v-35h-331v293z" />
    <glyph glyph-name="nacute.smcp" unicode="&#xe276;" horiz-adv-x="631" 
d="M75 0v596h39l406 -540v540h36v-596h-38l-407 541v-541h-36zM299 652l123 147h50l-135 -147h-38z" />
    <glyph glyph-name="nacute.smcp" unicode="&#xf653;" horiz-adv-x="631" 
d="M75 0v596h39l406 -540v540h36v-596h-38l-407 541v-541h-36zM299 652l123 147h50l-135 -147h-38z" />
    <glyph glyph-name="ntilde.smcp" unicode="&#xe279;" horiz-adv-x="631" 
d="M75 0v596h39l406 -540v540h36v-596h-38l-407 541v-541h-36zM143 668q0 43 24.5 69.5t63.5 26.5q33 0 89 -34t83 -34q59 0 59 65h32q0 -46 -24.5 -71.5t-67.5 -25.5q-37 0 -95 35q-51 32 -76 32t-41 -16.5t-16 -46.5h-31z" />
    <glyph glyph-name="ncaron.smcp" unicode="&#xe27a;" horiz-adv-x="631" 
d="M75 0v596h39l406 -540v540h36v-596h-38l-407 541v-541h-36zM302 658l-119 147h40l94 -118l95 118h41l-119 -147h-32z" />
    <glyph glyph-name="ncaron.smcp" unicode="&#xf654;" horiz-adv-x="631" 
d="M75 0v596h39l406 -540v540h36v-596h-38l-407 541v-541h-36zM302 658l-119 147h40l94 -118l95 118h41l-119 -147h-32z" />
    <glyph glyph-name="ncommaaccent.smcp" unicode="&#xe27d;" horiz-adv-x="631" 
d="M75 0v596h39l406 -540v540h36v-596h-38l-407 541v-541h-36zM288 -265h-28l47 204h37z" />
    <glyph glyph-name="ncommaaccent.smcp" unicode="&#xf655;" horiz-adv-x="631" 
d="M75 0v596h39l406 -540v540h36v-596h-38l-407 541v-541h-36zM288 -265h-28l47 204h37z" />
    <glyph glyph-name="oacute.smcp" unicode="&#xe281;" horiz-adv-x="715" 
d="M357 -9q-128 0 -216.5 90t-88.5 217t88.5 217t216.5 90t217 -90t89 -217t-89 -217t-217 -90zM357 25q113 0 190.5 80.5t77.5 192.5t-77.5 192t-190.5 80q-112 0 -189.5 -80t-77.5 -192t77.5 -192.5t189.5 -80.5zM329 669l123 147h50l-135 -147h-38z" />
    <glyph glyph-name="oacute.smcp" unicode="&#xf7f3;" horiz-adv-x="715" 
d="M357 -9q-128 0 -216.5 90t-88.5 217t88.5 217t216.5 90t217 -90t89 -217t-89 -217t-217 -90zM357 25q113 0 190.5 80.5t77.5 192.5t-77.5 192t-190.5 80q-112 0 -189.5 -80t-77.5 -192t77.5 -192.5t189.5 -80.5zM329 669l123 147h50l-135 -147h-38z" />
    <glyph glyph-name="ograve.smcp" unicode="&#xe282;" horiz-adv-x="715" 
d="M357 -9q-128 0 -216.5 90t-88.5 217t88.5 217t216.5 90t217 -90t89 -217t-89 -217t-217 -90zM357 25q113 0 190.5 80.5t77.5 192.5t-77.5 192t-190.5 80q-112 0 -189.5 -80t-77.5 -192t77.5 -192.5t189.5 -80.5zM344 669l-135 147h50l123 -147h-38z" />
    <glyph glyph-name="ograve.smcp" unicode="&#xf7f2;" horiz-adv-x="715" 
d="M357 -9q-128 0 -216.5 90t-88.5 217t88.5 217t216.5 90t217 -90t89 -217t-89 -217t-217 -90zM357 25q113 0 190.5 80.5t77.5 192.5t-77.5 192t-190.5 80q-112 0 -189.5 -80t-77.5 -192t77.5 -192.5t189.5 -80.5zM344 669l-135 147h50l123 -147h-38z" />
    <glyph glyph-name="ocircumflex.smcp" unicode="&#xe283;" horiz-adv-x="715" 
d="M357 -9q-128 0 -216.5 90t-88.5 217t88.5 217t216.5 90t217 -90t89 -217t-89 -217t-217 -90zM357 25q113 0 190.5 80.5t77.5 192.5t-77.5 192t-190.5 80q-112 0 -189.5 -80t-77.5 -192t77.5 -192.5t189.5 -80.5zM222 666l119 147h32l119 -147h-40l-95 117l-94 -117h-41z
" />
    <glyph glyph-name="ocircumflex.smcp" unicode="&#xf7f4;" horiz-adv-x="715" 
d="M357 -9q-128 0 -216.5 90t-88.5 217t88.5 217t216.5 90t217 -90t89 -217t-89 -217t-217 -90zM357 25q113 0 190.5 80.5t77.5 192.5t-77.5 192t-190.5 80q-112 0 -189.5 -80t-77.5 -192t77.5 -192.5t189.5 -80.5zM222 666l119 147h32l119 -147h-40l-95 117l-94 -117h-41z
" />
    <glyph glyph-name="odieresis.smcp" unicode="&#xe284;" horiz-adv-x="715" 
d="M357 -9q-128 0 -216.5 90t-88.5 217t88.5 217t216.5 90t217 -90t89 -217t-89 -217t-217 -90zM357 25q113 0 190.5 80.5t77.5 192.5t-77.5 192t-190.5 80q-112 0 -189.5 -80t-77.5 -192t77.5 -192.5t189.5 -80.5zM390 670v140h36v-140h-36zM290 670v140h36v-140h-36z" />
    <glyph glyph-name="odieresis.smcp" unicode="&#xf7f6;" horiz-adv-x="715" 
d="M357 -9q-128 0 -216.5 90t-88.5 217t88.5 217t216.5 90t217 -90t89 -217t-89 -217t-217 -90zM357 25q113 0 190.5 80.5t77.5 192.5t-77.5 192t-190.5 80q-112 0 -189.5 -80t-77.5 -192t77.5 -192.5t189.5 -80.5zM390 670v140h36v-140h-36zM290 670v140h36v-140h-36z" />
    <glyph glyph-name="otilde.smcp" unicode="&#xe285;" horiz-adv-x="715" 
d="M357 -9q-128 0 -216.5 90t-88.5 217t88.5 217t216.5 90t217 -90t89 -217t-89 -217t-217 -90zM357 25q113 0 190.5 80.5t77.5 192.5t-77.5 192t-190.5 80q-112 0 -189.5 -80t-77.5 -192t77.5 -192.5t189.5 -80.5zM183 669q0 43 24.5 69.5t63.5 26.5q33 0 89 -34t83 -34
q59 0 59 65h32q0 -46 -24.5 -71.5t-67.5 -25.5q-37 0 -95 35q-51 32 -76 32t-41 -16.5t-16 -46.5h-31z" />
    <glyph glyph-name="otilde.smcp" unicode="&#xf7f5;" horiz-adv-x="715" 
d="M357 -9q-128 0 -216.5 90t-88.5 217t88.5 217t216.5 90t217 -90t89 -217t-89 -217t-217 -90zM357 25q113 0 190.5 80.5t77.5 192.5t-77.5 192t-190.5 80q-112 0 -189.5 -80t-77.5 -192t77.5 -192.5t189.5 -80.5zM183 669q0 43 24.5 69.5t63.5 26.5q33 0 89 -34t83 -34
q59 0 59 65h32q0 -46 -24.5 -71.5t-67.5 -25.5q-37 0 -95 35q-51 32 -76 32t-41 -16.5t-16 -46.5h-31z" />
    <glyph glyph-name="omacron.smcp" unicode="&#xe287;" horiz-adv-x="715" 
d="M357 -9q-128 0 -216.5 90t-88.5 217t88.5 217t216.5 90t217 -90t89 -217t-89 -217t-217 -90zM357 25q113 0 190.5 80.5t77.5 192.5t-77.5 192t-190.5 80q-112 0 -189.5 -80t-77.5 -192t77.5 -192.5t189.5 -80.5zM225 669v32h264v-32h-264z" />
    <glyph glyph-name="omacron.smcp" unicode="&#xf657;" horiz-adv-x="715" 
d="M357 -9q-128 0 -216.5 90t-88.5 217t88.5 217t216.5 90t217 -90t89 -217t-89 -217t-217 -90zM357 25q113 0 190.5 80.5t77.5 192.5t-77.5 192t-190.5 80q-112 0 -189.5 -80t-77.5 -192t77.5 -192.5t189.5 -80.5zM225 669v32h264v-32h-264z" />
    <glyph glyph-name="obreve.smcp" unicode="&#xe288;" horiz-adv-x="715" 
d="M357 -9q-128 0 -216.5 90t-88.5 217t88.5 217t216.5 90t217 -90t89 -217t-89 -217t-217 -90zM357 25q113 0 190.5 80.5t77.5 192.5t-77.5 192t-190.5 80q-112 0 -189.5 -80t-77.5 -192t77.5 -192.5t189.5 -80.5zM357 667q-78 0 -120 44.5t-42 106.5h33q0 -50 33.5 -85.5
t95.5 -36.5q58 1 93 37t35 85h33q0 -60 -44.5 -105.5t-116.5 -45.5z" />
    <glyph glyph-name="obreve.smcp" unicode="&#xf635;" horiz-adv-x="715" 
d="M357 -9q-128 0 -216.5 90t-88.5 217t88.5 217t216.5 90t217 -90t89 -217t-89 -217t-217 -90zM357 25q113 0 190.5 80.5t77.5 192.5t-77.5 192t-190.5 80q-112 0 -189.5 -80t-77.5 -192t77.5 -192.5t189.5 -80.5zM357 667q-78 0 -120 44.5t-42 106.5h33q0 -50 33.5 -85.5
t95.5 -36.5q58 1 93 37t35 85h33q0 -60 -44.5 -105.5t-116.5 -45.5z" />
    <glyph glyph-name="ohungarumlaut.smcp" unicode="&#xe28a;" horiz-adv-x="715" 
d="M357 -9q-128 0 -216.5 90t-88.5 217t88.5 217t216.5 90t217 -90t89 -217t-89 -217t-217 -90zM357 25q113 0 190.5 80.5t77.5 192.5t-77.5 192t-190.5 80q-112 0 -189.5 -80t-77.5 -192t77.5 -192.5t189.5 -80.5zM285 669l123 147h48l-135 -147h-36zM386 669l123 147h48
l-135 -147h-36z" />
    <glyph glyph-name="ohungarumlaut.smcp" unicode="&#xf656;" horiz-adv-x="715" 
d="M357 -9q-128 0 -216.5 90t-88.5 217t88.5 217t216.5 90t217 -90t89 -217t-89 -217t-217 -90zM357 25q113 0 190.5 80.5t77.5 192.5t-77.5 192t-190.5 80q-112 0 -189.5 -80t-77.5 -192t77.5 -192.5t189.5 -80.5zM285 669l123 147h48l-135 -147h-36zM386 669l123 147h48
l-135 -147h-36z" />
    <glyph glyph-name="oslash.smcp" unicode="&#xe295;" horiz-adv-x="715" 
d="M357 -9q-91 0 -165 47l-28 -38h-44l44 59q-112 93 -112 239q0 127 88.5 217t216.5 90q94 0 173 -53l33 44h43l-49 -66q50 -43 78 -103.5t28 -128.5q0 -127 -89 -217t-217 -90zM89 298q0 -127 96 -210l323 434q-67 47 -151 47q-112 0 -190 -80t-78 -191zM357 26
q113 0 190.5 80t77.5 192q0 123 -90 203l-321 -434q65 -41 143 -41z" />
    <glyph glyph-name="oslash.smcp" unicode="&#xf7f8;" horiz-adv-x="715" 
d="M357 -9q-91 0 -165 47l-28 -38h-44l44 59q-112 93 -112 239q0 127 88.5 217t216.5 90q94 0 173 -53l33 44h43l-49 -66q50 -43 78 -103.5t28 -128.5q0 -127 -89 -217t-217 -90zM89 298q0 -127 96 -210l323 434q-67 47 -151 47q-112 0 -190 -80t-78 -191zM357 26
q113 0 190.5 80t77.5 192q0 123 -90 203l-321 -434q65 -41 143 -41z" />
    <glyph glyph-name="oslashacute.smcp" unicode="&#xe296;" horiz-adv-x="716" 
d="M357 -9q-91 0 -165 47l-28 -38h-44l44 59q-112 93 -112 239q0 127 88.5 217t216.5 90q94 0 173 -53l33 44h43l-49 -66q50 -43 78 -103.5t28 -128.5q0 -127 -89 -217t-217 -90zM89 298q0 -127 96 -210l323 434q-67 47 -151 47q-112 0 -190 -80t-78 -191zM357 26
q113 0 190.5 80t77.5 192q0 123 -90 203l-321 -434q65 -41 143 -41zM335 669l123 147h50l-135 -147h-38z" />
    <glyph glyph-name="oslashacute.smcp" unicode="&#xf627;" horiz-adv-x="716" 
d="M357 -9q-91 0 -165 47l-28 -38h-44l44 59q-112 93 -112 239q0 127 88.5 217t216.5 90q94 0 173 -53l33 44h43l-49 -66q50 -43 78 -103.5t28 -128.5q0 -127 -89 -217t-217 -90zM89 298q0 -127 96 -210l323 434q-67 47 -151 47q-112 0 -190 -80t-78 -191zM357 26
q113 0 190.5 80t77.5 192q0 123 -90 203l-321 -434q65 -41 143 -41zM335 669l123 147h50l-135 -147h-38z" />
    <glyph glyph-name="oe.smcp" unicode="&#xe298;" horiz-adv-x="1049" 
d="M625 0v160q-37 -77 -108 -123t-160 -46q-128 0 -216.5 90t-88.5 217t88.5 217t216.5 90q89 0 160 -46t108 -123v160h366v-34h-330v-246h330v-34h-330v-248h330v-34h-366zM357 25q113 0 190.5 80.5t77.5 192.5v11q-5 109 -81.5 185t-186.5 76q-112 0 -189.5 -80
t-77.5 -192t77.5 -192.5t189.5 -80.5z" />
    <glyph glyph-name="oe.smcp" unicode="&#xf6fa;" horiz-adv-x="1049" 
d="M625 0v160q-37 -77 -108 -123t-160 -46q-128 0 -216.5 90t-88.5 217t88.5 217t216.5 90q89 0 160 -46t108 -123v160h366v-34h-330v-246h330v-34h-330v-248h330v-34h-366zM357 25q113 0 190.5 80.5t77.5 192.5v11q-5 109 -81.5 185t-186.5 76q-112 0 -189.5 -80
t-77.5 -192t77.5 -192.5t189.5 -80.5z" />
    <glyph glyph-name="racute.smcp" unicode="&#xe29a;" horiz-adv-x="498" 
d="M75 0v596h182q81 0 135.5 -53.5t54.5 -130.5q0 -68 -44 -119.5t-113 -61.5l161 -231h-44l-180 260h25q67 0 112.5 45.5t45.5 106.5q0 64 -43.5 107t-111.5 43h-143v-562h-37zM222 669l123 147h50l-135 -147h-38z" />
    <glyph glyph-name="racute.smcp" unicode="&#xf658;" horiz-adv-x="498" 
d="M75 0v596h182q81 0 135.5 -53.5t54.5 -130.5q0 -68 -44 -119.5t-113 -61.5l161 -231h-44l-180 260h25q67 0 112.5 45.5t45.5 106.5q0 64 -43.5 107t-111.5 43h-143v-562h-37zM222 669l123 147h50l-135 -147h-38z" />
    <glyph glyph-name="rcaron.smcp" unicode="&#xe29b;" horiz-adv-x="498" 
d="M75 0v596h182q81 0 135.5 -53.5t54.5 -130.5q0 -68 -44 -119.5t-113 -61.5l161 -231h-44l-180 260h25q67 0 112.5 45.5t45.5 106.5q0 64 -43.5 107t-111.5 43h-143v-562h-37zM240 669l-119 147h40l94 -118l95 118h41l-119 -147h-32z" />
    <glyph glyph-name="rcaron.smcp" unicode="&#xf659;" horiz-adv-x="498" 
d="M75 0v596h182q81 0 135.5 -53.5t54.5 -130.5q0 -68 -44 -119.5t-113 -61.5l161 -231h-44l-180 260h25q67 0 112.5 45.5t45.5 106.5q0 64 -43.5 107t-111.5 43h-143v-562h-37zM240 669l-119 147h40l94 -118l95 118h41l-119 -147h-32z" />
    <glyph glyph-name="rcommaaccent.smcp" unicode="&#xe29e;" horiz-adv-x="498" 
d="M75 0v596h182q81 0 135.5 -53.5t54.5 -130.5q0 -68 -44 -119.5t-113 -61.5l161 -231h-44l-180 260h25q67 0 112.5 45.5t45.5 106.5q0 64 -43.5 107t-111.5 43h-143v-562h-37zM224 -266h-28l47 204h37z" />
    <glyph glyph-name="rcommaaccent.smcp" unicode="&#xf65a;" horiz-adv-x="498" 
d="M75 0v596h182q81 0 135.5 -53.5t54.5 -130.5q0 -68 -44 -119.5t-113 -61.5l161 -231h-44l-180 260h25q67 0 112.5 45.5t45.5 106.5q0 64 -43.5 107t-111.5 43h-143v-562h-37zM224 -266h-28l47 204h37z" />
    <glyph glyph-name="ucircumflex.smcp" unicode="&#xe300;" horiz-adv-x="552" 
d="M276 -9q-87 0 -145 56.5t-58 143.5v405h36v-405q0 -72 48 -119t119 -47t119 47t48 119v405h36v-405q0 -87 -58 -143.5t-145 -56.5zM138 669l119 147h32l119 -147h-40l-95 117l-94 -117h-41z" />
    <glyph glyph-name="ucircumflex.smcp" unicode="&#xf7fb;" horiz-adv-x="552" 
d="M276 -9q-87 0 -145 56.5t-58 143.5v405h36v-405q0 -72 48 -119t119 -47t119 47t48 119v405h36v-405q0 -87 -58 -143.5t-145 -56.5zM138 669l119 147h32l119 -147h-40l-95 117l-94 -117h-41z" />
    <glyph glyph-name="sacute.smcp" unicode="&#xe302;" horiz-adv-x="464" 
d="M205 669l123 147h50l-135 -147h-38zM224 -9q-114 0 -186 86l31 25q60 -77 155 -77q65 0 108.5 38t43.5 96q0 25 -10 46t-21.5 33.5t-38 25.5t-40.5 18.5t-48 17.5q-40 13 -62 22.5t-50 27.5t-41 44t-13 61q0 66 50 108t123 42q107 0 170 -75l-29 -23q-48 65 -140 65
q-58 0 -97.5 -32.5t-39.5 -84.5q0 -22 9.5 -40t20 -29t36 -23.5t38.5 -17t47 -16.5q41 -14 64.5 -24.5t52.5 -30t42.5 -48.5t13.5 -68q0 -70 -53 -118.5t-136 -48.5z" />
    <glyph glyph-name="sacute.smcp" unicode="&#xf65b;" horiz-adv-x="464" 
d="M205 669l123 147h50l-135 -147h-38zM224 -9q-114 0 -186 86l31 25q60 -77 155 -77q65 0 108.5 38t43.5 96q0 25 -10 46t-21.5 33.5t-38 25.5t-40.5 18.5t-48 17.5q-40 13 -62 22.5t-50 27.5t-41 44t-13 61q0 66 50 108t123 42q107 0 170 -75l-29 -23q-48 65 -140 65
q-58 0 -97.5 -32.5t-39.5 -84.5q0 -22 9.5 -40t20 -29t36 -23.5t38.5 -17t47 -16.5q41 -14 64.5 -24.5t52.5 -30t42.5 -48.5t13.5 -68q0 -70 -53 -118.5t-136 -48.5z" />
    <glyph glyph-name="scircumflex.smcp" unicode="&#xe303;" horiz-adv-x="464" 
d="M224 -9q-114 0 -186 86l31 25q60 -77 155 -77q65 0 108.5 38t43.5 96q0 25 -10 46t-21.5 33.5t-38 25.5t-40.5 18.5t-48 17.5q-40 13 -62 22.5t-50 27.5t-41 44t-13 61q0 66 50 108t123 42q107 0 170 -75l-29 -23q-48 65 -140 65q-58 0 -97.5 -32.5t-39.5 -84.5
q0 -22 9.5 -40t20 -29t36 -23.5t38.5 -17t47 -16.5q41 -14 64.5 -24.5t52.5 -30t42.5 -48.5t13.5 -68q0 -70 -53 -118.5t-136 -48.5zM93 666l119 147h32l119 -147h-40l-95 117l-94 -117h-41z" />
    <glyph glyph-name="scircumflex.smcp" unicode="&#xf636;" horiz-adv-x="464" 
d="M224 -9q-114 0 -186 86l31 25q60 -77 155 -77q65 0 108.5 38t43.5 96q0 25 -10 46t-21.5 33.5t-38 25.5t-40.5 18.5t-48 17.5q-40 13 -62 22.5t-50 27.5t-41 44t-13 61q0 66 50 108t123 42q107 0 170 -75l-29 -23q-48 65 -140 65q-58 0 -97.5 -32.5t-39.5 -84.5
q0 -22 9.5 -40t20 -29t36 -23.5t38.5 -17t47 -16.5q41 -14 64.5 -24.5t52.5 -30t42.5 -48.5t13.5 -68q0 -70 -53 -118.5t-136 -48.5zM93 666l119 147h32l119 -147h-40l-95 117l-94 -117h-41z" />
    <glyph glyph-name="scaron.smcp" unicode="&#xe304;" horiz-adv-x="464" 
d="M224 -9q-114 0 -186 86l31 25q60 -77 155 -77q65 0 108.5 38t43.5 96q0 25 -10 46t-21.5 33.5t-38 25.5t-40.5 18.5t-48 17.5q-40 13 -62 22.5t-50 27.5t-41 44t-13 61q0 66 50 108t123 42q107 0 170 -75l-29 -23q-48 65 -140 65q-58 0 -97.5 -32.5t-39.5 -84.5
q0 -22 9.5 -40t20 -29t36 -23.5t38.5 -17t47 -16.5q41 -14 64.5 -24.5t52.5 -30t42.5 -48.5t13.5 -68q0 -70 -53 -118.5t-136 -48.5zM213 669l-119 147h40l94 -118l95 118h41l-119 -147h-32z" />
    <glyph glyph-name="scaron.smcp" unicode="&#xf6fd;" horiz-adv-x="464" 
d="M224 -9q-114 0 -186 86l31 25q60 -77 155 -77q65 0 108.5 38t43.5 96q0 25 -10 46t-21.5 33.5t-38 25.5t-40.5 18.5t-48 17.5q-40 13 -62 22.5t-50 27.5t-41 44t-13 61q0 66 50 108t123 42q107 0 170 -75l-29 -23q-48 65 -140 65q-58 0 -97.5 -32.5t-39.5 -84.5
q0 -22 9.5 -40t20 -29t36 -23.5t38.5 -17t47 -16.5q41 -14 64.5 -24.5t52.5 -30t42.5 -48.5t13.5 -68q0 -70 -53 -118.5t-136 -48.5zM213 669l-119 147h40l94 -118l95 118h41l-119 -147h-32z" />
    <glyph glyph-name="scommaaccent.smcp" unicode="&#xe305;" horiz-adv-x="464" 
d="M191 -274h-28l47 204h37zM224 -9q-114 0 -186 86l31 25q60 -77 155 -77q65 0 108.5 38t43.5 96q0 25 -10 46t-21.5 33.5t-38 25.5t-40.5 18.5t-48 17.5q-40 13 -62 22.5t-50 27.5t-41 44t-13 61q0 66 50 108t123 42q107 0 170 -75l-29 -23q-48 65 -140 65
q-58 0 -97.5 -32.5t-39.5 -84.5q0 -22 9.5 -40t20 -29t36 -23.5t38.5 -17t47 -16.5q41 -14 64.5 -24.5t52.5 -30t42.5 -48.5t13.5 -68q0 -70 -53 -118.5t-136 -48.5z" />
    <glyph glyph-name="scommaaccent.smcp" unicode="&#xf65d;" horiz-adv-x="464" 
d="M191 -274h-28l47 204h37zM224 -9q-114 0 -186 86l31 25q60 -77 155 -77q65 0 108.5 38t43.5 96q0 25 -10 46t-21.5 33.5t-38 25.5t-40.5 18.5t-48 17.5q-40 13 -62 22.5t-50 27.5t-41 44t-13 61q0 66 50 108t123 42q107 0 170 -75l-29 -23q-48 65 -140 65
q-58 0 -97.5 -32.5t-39.5 -84.5q0 -22 9.5 -40t20 -29t36 -23.5t38.5 -17t47 -16.5q41 -14 64.5 -24.5t52.5 -30t42.5 -48.5t13.5 -68q0 -70 -53 -118.5t-136 -48.5z" />
    <glyph glyph-name="scedilla.smcp" unicode="&#xe306;" horiz-adv-x="464" 
d="M227 -224q-79 0 -131 52l30 19q47 -42 101 -42q41 0 67.5 17t26.5 43q0 24 -26.5 38.5t-70.5 14.5h-23v74q-100 8 -163 85l31 25q60 -77 155 -77q65 0 108.5 38t43.5 96q0 25 -10 46t-21.5 33.5t-38 25.5t-40.5 18.5t-48 17.5q-40 13 -62 22.5t-50 27.5t-41 44t-13 61
q0 66 50 108t123 42q107 0 170 -75l-29 -23q-48 65 -140 65q-58 0 -97.5 -32.5t-39.5 -84.5q0 -22 9.5 -40t20 -29t36 -23.5t38.5 -17t47 -16.5q41 -14 64.5 -24.5t52.5 -30t42.5 -48.5t13.5 -68q0 -68 -51 -116t-130 -51v-49q56 0 90.5 -21t34.5 -55q0 -39 -36.5 -64.5
t-93.5 -25.5z" />
    <glyph glyph-name="scedilla.smcp" unicode="&#xf65c;" horiz-adv-x="464" 
d="M227 -224q-79 0 -131 52l30 19q47 -42 101 -42q41 0 67.5 17t26.5 43q0 24 -26.5 38.5t-70.5 14.5h-23v74q-100 8 -163 85l31 25q60 -77 155 -77q65 0 108.5 38t43.5 96q0 25 -10 46t-21.5 33.5t-38 25.5t-40.5 18.5t-48 17.5q-40 13 -62 22.5t-50 27.5t-41 44t-13 61
q0 66 50 108t123 42q107 0 170 -75l-29 -23q-48 65 -140 65q-58 0 -97.5 -32.5t-39.5 -84.5q0 -22 9.5 -40t20 -29t36 -23.5t38.5 -17t47 -16.5q41 -14 64.5 -24.5t52.5 -30t42.5 -48.5t13.5 -68q0 -68 -51 -116t-130 -51v-49q56 0 90.5 -21t34.5 -55q0 -39 -36.5 -64.5
t-93.5 -25.5z" />
    <glyph glyph-name="tcaron.smcp" unicode="&#xe309;" horiz-adv-x="513" 
d="M239 0v561h-191v35h417v-35h-189v-561h-37zM249 668l-119 147h40l94 -118l95 118h41l-119 -147h-32z" />
    <glyph glyph-name="tcaron.smcp" unicode="&#xf65e;" horiz-adv-x="513" 
d="M239 0v561h-191v35h417v-35h-189v-561h-37zM249 668l-119 147h40l94 -118l95 118h41l-119 -147h-32z" />
    <glyph glyph-name="tcommaaccent.smcp" unicode="&#xe30a;" horiz-adv-x="512" 
d="M228 -274h-28l47 204h37zM239 0v561h-191v35h417v-35h-189v-561h-37z" />
    <glyph glyph-name="tcommaaccent.smcp" unicode="&#xf65f;" horiz-adv-x="512" 
d="M228 -274h-28l47 204h37zM239 0v561h-191v35h417v-35h-189v-561h-37z" />
    <glyph glyph-name="tbar.smcp" unicode="&#xe30d;" horiz-adv-x="513" 
d="M382 286h-106v-286h-37v286h-108v34h108v241h-191v35h417v-35h-189v-241h106v-34z" />
    <glyph glyph-name="tbar.smcp" unicode="&#xf637;" horiz-adv-x="513" 
d="M382 286h-106v-286h-37v286h-108v34h108v241h-191v35h417v-35h-189v-241h106v-34z" />
    <glyph glyph-name="uacute.smcp" unicode="&#xe30e;" horiz-adv-x="552" 
d="M245 660l123 147h50l-135 -147h-38zM276 -9q-87 0 -145 56.5t-58 143.5v405h36v-405q0 -72 48 -119t119 -47t119 47t48 119v405h36v-405q0 -87 -58 -143.5t-145 -56.5z" />
    <glyph glyph-name="uacute.smcp" unicode="&#xf7fa;" horiz-adv-x="552" 
d="M245 660l123 147h50l-135 -147h-38zM276 -9q-87 0 -145 56.5t-58 143.5v405h36v-405q0 -72 48 -119t119 -47t119 47t48 119v405h36v-405q0 -87 -58 -143.5t-145 -56.5z" />
    <glyph glyph-name="ugrave.smcp" unicode="&#xe30f;" horiz-adv-x="552" 
d="M276 -9q-87 0 -145 56.5t-58 143.5v405h36v-405q0 -72 48 -119t119 -47t119 47t48 119v405h36v-405q0 -87 -58 -143.5t-145 -56.5zM265 660l-135 147h50l123 -147h-38z" />
    <glyph glyph-name="ugrave.smcp" unicode="&#xf7f9;" horiz-adv-x="552" 
d="M276 -9q-87 0 -145 56.5t-58 143.5v405h36v-405q0 -72 48 -119t119 -47t119 47t48 119v405h36v-405q0 -87 -58 -143.5t-145 -56.5zM265 660l-135 147h50l123 -147h-38z" />
    <glyph glyph-name="wdieresis.smcp" unicode="&#xe310;" horiz-adv-x="877" 
d="M214 0l-175 596h39l157 -541l185 541h34l185 -541l162 541h38l-181 -596h-37l-184 539l-185 -539h-38zM470 671v140h36v-140h-36zM370 671v140h36v-140h-36z" />
    <glyph glyph-name="wdieresis.smcp" unicode="&#xf63c;" horiz-adv-x="877" 
d="M214 0l-175 596h39l157 -541l185 541h34l185 -541l162 541h38l-181 -596h-37l-184 539l-185 -539h-38zM470 671v140h36v-140h-36zM370 671v140h36v-140h-36z" />
    <glyph glyph-name="udieresis.smcp" unicode="&#xe311;" horiz-adv-x="552" 
d="M308 671v140h36v-140h-36zM208 671v140h36v-140h-36zM276 -9q-87 0 -145 56.5t-58 143.5v405h36v-405q0 -72 48 -119t119 -47t119 47t48 119v405h36v-405q0 -87 -58 -143.5t-145 -56.5z" />
    <glyph glyph-name="udieresis.smcp" unicode="&#xf7fc;" horiz-adv-x="552" 
d="M308 671v140h36v-140h-36zM208 671v140h36v-140h-36zM276 -9q-87 0 -145 56.5t-58 143.5v405h36v-405q0 -72 48 -119t119 -47t119 47t48 119v405h36v-405q0 -87 -58 -143.5t-145 -56.5z" />
    <glyph glyph-name="utilde.smcp" unicode="&#xe312;" horiz-adv-x="552" 
d="M276 -9q-87 0 -145 56.5t-58 143.5v405h36v-405q0 -72 48 -119t119 -47t119 47t48 119v405h36v-405q0 -87 -58 -143.5t-145 -56.5zM105 669q0 43 24.5 69.5t63.5 26.5q33 0 89 -34t83 -34q59 0 59 65h32q0 -46 -24.5 -71.5t-67.5 -25.5q-37 0 -95 35q-51 32 -76 32
t-41 -16.5t-16 -46.5h-31z" />
    <glyph glyph-name="utilde.smcp" unicode="&#xf639;" horiz-adv-x="552" 
d="M276 -9q-87 0 -145 56.5t-58 143.5v405h36v-405q0 -72 48 -119t119 -47t119 47t48 119v405h36v-405q0 -87 -58 -143.5t-145 -56.5zM105 669q0 43 24.5 69.5t63.5 26.5q33 0 89 -34t83 -34q59 0 59 65h32q0 -46 -24.5 -71.5t-67.5 -25.5q-37 0 -95 35q-51 32 -76 32
t-41 -16.5t-16 -46.5h-31z" />
    <glyph glyph-name="uring.smcp" unicode="&#xe313;" horiz-adv-x="552" 
d="M276 -9q-87 0 -145 56.5t-58 143.5v405h36v-405q0 -72 48 -119t119 -47t119 47t48 119v405h36v-405q0 -87 -58 -143.5t-145 -56.5zM277 658q-37 0 -64 27t-27 64q0 39 27 66t64 27q39 0 66 -26.5t27 -66.5q0 -37 -27 -64t-66 -27zM277 689q25 0 43.5 18t18.5 42
q0 26 -18.5 44.5t-43.5 18.5q-24 0 -42 -19t-18 -44q0 -24 18 -42t42 -18z" />
    <glyph glyph-name="uring.smcp" unicode="&#xf663;" horiz-adv-x="552" 
d="M276 -9q-87 0 -145 56.5t-58 143.5v405h36v-405q0 -72 48 -119t119 -47t119 47t48 119v405h36v-405q0 -87 -58 -143.5t-145 -56.5zM277 658q-37 0 -64 27t-27 64q0 39 27 66t64 27q39 0 66 -26.5t27 -66.5q0 -37 -27 -64t-66 -27zM277 689q25 0 43.5 18t18.5 42
q0 26 -18.5 44.5t-43.5 18.5q-24 0 -42 -19t-18 -44q0 -24 18 -42t42 -18z" />
    <glyph glyph-name="umacron.smcp" unicode="&#xe315;" horiz-adv-x="552" 
d="M276 -9q-87 0 -145 56.5t-58 143.5v405h36v-405q0 -72 48 -119t119 -47t119 47t48 119v405h36v-405q0 -87 -58 -143.5t-145 -56.5zM144 669v32h264v-32h-264z" />
    <glyph glyph-name="umacron.smcp" unicode="&#xf661;" horiz-adv-x="552" 
d="M276 -9q-87 0 -145 56.5t-58 143.5v405h36v-405q0 -72 48 -119t119 -47t119 47t48 119v405h36v-405q0 -87 -58 -143.5t-145 -56.5zM144 669v32h264v-32h-264z" />
    <glyph glyph-name="ubreve.smcp" unicode="&#xe316;" horiz-adv-x="552" 
d="M276 -9q-87 0 -145 56.5t-58 143.5v405h36v-405q0 -72 48 -119t119 -47t119 47t48 119v405h36v-405q0 -87 -58 -143.5t-145 -56.5zM278 664q-78 0 -120 44.5t-42 106.5h33q0 -50 33.5 -85.5t95.5 -36.5q58 1 93 37t35 85h33q0 -60 -44.5 -105.5t-116.5 -45.5z" />
    <glyph glyph-name="ubreve.smcp" unicode="&#xf638;" horiz-adv-x="552" 
d="M276 -9q-87 0 -145 56.5t-58 143.5v405h36v-405q0 -72 48 -119t119 -47t119 47t48 119v405h36v-405q0 -87 -58 -143.5t-145 -56.5zM278 664q-78 0 -120 44.5t-42 106.5h33q0 -50 33.5 -85.5t95.5 -36.5q58 1 93 37t35 85h33q0 -60 -44.5 -105.5t-116.5 -45.5z" />
    <glyph glyph-name="uhungarumlaut.smcp" unicode="&#xe318;" horiz-adv-x="552" 
d="M276 -9q-87 0 -145 56.5t-58 143.5v405h36v-405q0 -72 48 -119t119 -47t119 47t48 119v405h36v-405q0 -87 -58 -143.5t-145 -56.5zM193 666l123 147h48l-135 -147h-36zM294 666l123 147h48l-135 -147h-36z" />
    <glyph glyph-name="uhungarumlaut.smcp" unicode="&#xf660;" horiz-adv-x="552" 
d="M276 -9q-87 0 -145 56.5t-58 143.5v405h36v-405q0 -72 48 -119t119 -47t119 47t48 119v405h36v-405q0 -87 -58 -143.5t-145 -56.5zM193 666l123 147h48l-135 -147h-36zM294 666l123 147h48l-135 -147h-36z" />
    <glyph glyph-name="uogonek.smcp" unicode="&#xe31b;" horiz-adv-x="554" 
d="M330 -193q-54 0 -88 26t-34 65q0 52 62 93q-85 2 -141 58.5t-56 141.5v405h36v-405q0 -72 48 -119t119 -47t119 47t48 119v405h36v-405q0 -63 -32 -111.5t-86 -71.5l2 -1q-65 -32 -91.5 -57t-26.5 -52t23.5 -43t61.5 -16q52 0 98 44l30 -21q-59 -55 -128 -55z" />
    <glyph glyph-name="uogonek.smcp" unicode="&#xf662;" horiz-adv-x="554" 
d="M330 -193q-54 0 -88 26t-34 65q0 52 62 93q-85 2 -141 58.5t-56 141.5v405h36v-405q0 -72 48 -119t119 -47t119 47t48 119v405h36v-405q0 -63 -32 -111.5t-86 -71.5l2 -1q-65 -32 -91.5 -57t-26.5 -52t23.5 -43t61.5 -16q52 0 98 44l30 -21q-59 -55 -128 -55z" />
    <glyph glyph-name="wacute.smcp" unicode="&#xe31d;" horiz-adv-x="877" 
d="M214 0l-175 596h39l157 -541l185 541h34l185 -541l162 541h38l-181 -596h-37l-184 539l-185 -539h-38zM419 669l123 147h50l-135 -147h-38z" />
    <glyph glyph-name="wacute.smcp" unicode="&#xf63a;" horiz-adv-x="877" 
d="M214 0l-175 596h39l157 -541l185 541h34l185 -541l162 541h38l-181 -596h-37l-184 539l-185 -539h-38zM419 669l123 147h50l-135 -147h-38z" />
    <glyph glyph-name="wgrave.smcp" unicode="&#xe31e;" horiz-adv-x="877" 
d="M214 0l-175 596h39l157 -541l185 541h34l185 -541l162 541h38l-181 -596h-37l-184 539l-185 -539h-38zM419 669l-135 147h50l123 -147h-38z" />
    <glyph glyph-name="wgrave.smcp" unicode="&#xf63d;" horiz-adv-x="877" 
d="M214 0l-175 596h39l157 -541l185 541h34l185 -541l162 541h38l-181 -596h-37l-184 539l-185 -539h-38zM419 669l-135 147h50l123 -147h-38z" />
    <glyph glyph-name="wcircumflex.smcp" unicode="&#xe31f;" horiz-adv-x="877" 
d="M214 0l-175 596h39l157 -541l185 541h34l185 -541l162 541h38l-181 -596h-37l-184 539l-185 -539h-38zM301 661l119 147h32l119 -147h-40l-95 117l-94 -117h-41z" />
    <glyph glyph-name="wcircumflex.smcp" unicode="&#xf63b;" horiz-adv-x="877" 
d="M214 0l-175 596h39l157 -541l185 541h34l185 -541l162 541h38l-181 -596h-37l-184 539l-185 -539h-38zM301 661l119 147h32l119 -147h-40l-95 117l-94 -117h-41z" />
    <glyph glyph-name="yacute.smcp" unicode="&#xe321;" horiz-adv-x="521" 
d="M243 0v282l-202 314h41l178 -279l179 279h41l-201 -312v-284h-36zM238 665l123 147h50l-135 -147h-38z" />
    <glyph glyph-name="yacute.smcp" unicode="&#xf7fd;" horiz-adv-x="521" 
d="M243 0v282l-202 314h41l178 -279l179 279h41l-201 -312v-284h-36zM238 665l123 147h50l-135 -147h-38z" />
    <glyph glyph-name="ygrave.smcp" unicode="&#xe322;" horiz-adv-x="525" 
d="M245 0v282l-202 314h41l178 -279l179 279h41l-201 -312v-284h-36zM255 666l-135 147h50l123 -147h-38z" />
    <glyph glyph-name="ygrave.smcp" unicode="&#xf63f;" horiz-adv-x="525" 
d="M245 0v282l-202 314h41l178 -279l179 279h41l-201 -312v-284h-36zM255 666l-135 147h50l123 -147h-38z" />
    <glyph glyph-name="ycircumflex.smcp" unicode="&#xe323;" horiz-adv-x="521" 
d="M243 0v282l-202 314h41l178 -279l179 279h41l-201 -312v-284h-36zM127 668l119 147h32l119 -147h-40l-95 117l-94 -117h-41z" />
    <glyph glyph-name="ycircumflex.smcp" unicode="&#xf63e;" horiz-adv-x="521" 
d="M243 0v282l-202 314h41l178 -279l179 279h41l-201 -312v-284h-36zM127 668l119 147h32l119 -147h-40l-95 117l-94 -117h-41z" />
    <glyph glyph-name="ydieresis.smcp" unicode="&#xe324;" horiz-adv-x="521" 
d="M243 0v282l-202 314h41l178 -279l179 279h41l-201 -312v-284h-36zM297 668v140h36v-140h-36zM197 668v140h36v-140h-36z" />
    <glyph glyph-name="ydieresis.smcp" unicode="&#xf7ff;" horiz-adv-x="521" 
d="M243 0v282l-202 314h41l178 -279l179 279h41l-201 -312v-284h-36zM297 668v140h36v-140h-36zM197 668v140h36v-140h-36z" />
    <glyph glyph-name="ij.smcp" unicode="&#xe327;" horiz-adv-x="458" 
d="M201 0v35h34q56 0 86 34.5t30 88.5v438h37v-440q0 -73 -38.5 -114.5t-114.5 -41.5h-34zM71 0v596h37v-596h-37z" />
    <glyph glyph-name="ij.smcp" unicode="&#xf631;" horiz-adv-x="458" 
d="M201 0v35h34q56 0 86 34.5t30 88.5v438h37v-440q0 -73 -38.5 -114.5t-114.5 -41.5h-34zM71 0v596h37v-596h-37z" />
    <glyph glyph-name="zacute.smcp" unicode="&#xe328;" horiz-adv-x="501" 
d="M53 0v34l351 527h-341v35h385v-34l-353 -527h352v-35h-394zM222 669l123 147h50l-135 -147h-38z" />
    <glyph glyph-name="zacute.smcp" unicode="&#xf664;" horiz-adv-x="501" 
d="M53 0v34l351 527h-341v35h385v-34l-353 -527h352v-35h-394zM222 669l123 147h50l-135 -147h-38z" />
    <glyph glyph-name="zcaron.smcp" unicode="&#xe329;" horiz-adv-x="501" 
d="M53 0v34l351 527h-341v35h385v-34l-353 -527h352v-35h-394zM239 669l-119 147h40l94 -118l95 118h41l-119 -147h-32z" />
    <glyph glyph-name="zcaron.smcp" unicode="&#xf6ff;" horiz-adv-x="501" 
d="M53 0v34l351 527h-341v35h385v-34l-353 -527h352v-35h-394zM239 669l-119 147h40l94 -118l95 118h41l-119 -147h-32z" />
    <glyph glyph-name="zdotaccent.smcp" unicode="&#xe32a;" horiz-adv-x="501" 
d="M53 0v34l351 527h-341v35h385v-34l-353 -527h352v-35h-394zM239 671v140h37v-140h-37z" />
    <glyph glyph-name="zdotaccent.smcp" unicode="&#xf665;" horiz-adv-x="501" 
d="M53 0v34l351 527h-341v35h385v-34l-353 -527h352v-35h-394zM239 671v140h37v-140h-37z" />
    <glyph glyph-name="eng.smcp" unicode="&#xe32b;" horiz-adv-x="631" 
d="M381 -228v36q86 0 112.5 24.5t26.5 113.5v52l-409 543v-541h-36v596h39l406 -538v538h36v-651q0 -103 -35 -138t-134 -35h-6z" />
    <glyph glyph-name="eng.smcp" unicode="&#xf62b;" horiz-adv-x="631" 
d="M381 -228v36q86 0 112.5 24.5t26.5 113.5v52l-409 543v-541h-36v596h39l406 -538v538h36v-651q0 -103 -35 -138t-134 -35h-6z" />
    <glyph glyph-name="eth.smcp" unicode="&#xe32c;" horiz-adv-x="616" 
d="M26 281v33h63v282h168q131 0 219 -85.5t88 -212.5q0 -126 -88.5 -212t-217.5 -86h-169v281h-63zM288 281h-162v-247h129q115 0 193 76t78 188q0 113 -77.5 188.5t-194.5 75.5h-128v-248h162v-33z" />
    <glyph glyph-name="eth.smcp" unicode="&#xf7f0;" horiz-adv-x="616" 
d="M26 281v33h63v282h168q131 0 219 -85.5t88 -212.5q0 -126 -88.5 -212t-217.5 -86h-169v281h-63zM288 281h-162v-247h129q115 0 193 76t78 188q0 113 -77.5 188.5t-194.5 75.5h-128v-248h162v-33z" />
    <glyph glyph-name="thorn.smcp" unicode="&#xe32d;" horiz-adv-x="507" 
d="M75 0v596h36v-119h150q85 0 137 -49t52 -124q0 -76 -52 -125t-137 -49h-150v-130h-36zM260 443h-149v-279h149q70 0 111.5 39.5t41.5 100.5t-41.5 100t-111.5 39z" />
    <glyph glyph-name="thorn.smcp" unicode="&#xf7fe;" horiz-adv-x="507" 
d="M75 0v596h36v-119h150q85 0 137 -49t52 -124q0 -76 -52 -125t-137 -49h-150v-130h-36zM260 443h-149v-279h149q70 0 111.5 39.5t41.5 100.5t-41.5 100t-111.5 39z" />
    <glyph glyph-name="ordfeminine.smcp" unicode="&#xe351;" horiz-adv-x="363" 
d="M52 441l114 289h32l114 -289h-32l-29 73h-139l-29 -73h-31zM181 691l-58 -148h117z" />
    <glyph glyph-name="ordmasculine.smcp" unicode="&#xe352;" horiz-adv-x="436" 
d="M218 435q-62 0 -106 44t-44 106q0 63 44 107t106 44q63 0 106.5 -44t43.5 -107q0 -62 -43.5 -106t-106.5 -44zM218 465q50 0 84.5 35t34.5 85q0 51 -34.5 86.5t-84.5 35.5t-85 -36t-35 -86t35 -85t85 -35z" />
    <glyph glyph-name="cordinal.smcp" unicode="&#xe353;" horiz-adv-x="419" 
d="M218 435q-62 0 -106 44t-44 107q0 62 44 106t106 44q44 0 81 -23.5t55 -62.5l-28 -14q-14 32 -43 51.5t-65 19.5q-50 0 -85 -35.5t-35 -85.5t35 -86t85 -36q37 0 66 20t43 53l28 -14q-18 -40 -54.5 -64t-82.5 -24z" />
    <glyph glyph-name="fi" unicode="&#xe38c;" horiz-adv-x="495" 
d="M35 467v33h86v57q0 103 34.5 138t135.5 35h3v-35q-85 0 -111 -25t-26 -114v-56h137v-33h-137v-467h-36v467h-86zM385 0v500h37v-500h-37zM385 582v148h37v-148h-37z" />
    <glyph glyph-name="fi" unicode="&#xfb01;" horiz-adv-x="495" 
d="M35 467v33h86v57q0 103 34.5 138t135.5 35h3v-35q-85 0 -111 -25t-26 -114v-56h137v-33h-137v-467h-36v467h-86zM385 0v500h37v-500h-37zM385 582v148h37v-148h-37z" />
    <glyph glyph-name="fl" unicode="&#xe38d;" horiz-adv-x="497" 
d="M35 467v33h86v57q0 103 34.5 138t135.5 35h3v-35q-85 0 -111 -25t-26 -114v-56h137v-33h-137v-467h-36v467h-86zM385 0v730h37v-730h-37z" />
    <glyph glyph-name="fl" unicode="&#xfb02;" horiz-adv-x="497" 
d="M35 467v33h86v57q0 103 34.5 138t135.5 35h3v-35q-85 0 -111 -25t-26 -114v-56h137v-33h-137v-467h-36v467h-86zM385 0v730h37v-730h-37z" />
    <glyph glyph-name="ampersand.smcp" unicode="&#xe401;" horiz-adv-x="661" 
d="M545 0l-69 69q-85 -78 -188 -78q-112 0 -171 58.5t-59 134.5q0 61 32.5 109.5t88.5 75.5q-41 49 -41 105q0 54 39 92.5t106 38.5q45 0 80.5 -19.5t54.5 -50.5l-31 -17q-15 23 -42.5 38.5t-60.5 15.5q-51 0 -80 -29t-29 -69q0 -37 21.5 -68t77.5 -87l203 -203
q79 90 89 207h-151v34h186v-12q0 -63 -27 -131t-74 -121l94 -93h-49zM288 25q91 0 164 66l-206 207q-28 26 -45 46q-106 -53 -106 -158q0 -63 49.5 -112t143.5 -49z" />
    <glyph glyph-name="ampersand.smcp" unicode="&#xf726;" horiz-adv-x="661" 
d="M545 0l-69 69q-85 -78 -188 -78q-112 0 -171 58.5t-59 134.5q0 61 32.5 109.5t88.5 75.5q-41 49 -41 105q0 54 39 92.5t106 38.5q45 0 80.5 -19.5t54.5 -50.5l-31 -17q-15 23 -42.5 38.5t-60.5 15.5q-51 0 -80 -29t-29 -69q0 -37 21.5 -68t77.5 -87l203 -203
q79 90 89 207h-151v34h186v-12q0 -63 -27 -131t-74 -121l94 -93h-49zM288 25q91 0 164 66l-206 207q-28 26 -45 46q-106 -53 -106 -158q0 -63 49.5 -112t143.5 -49z" />
    <glyph glyph-name="invertedbreve" unicode="&#xe411;" horiz-adv-x="507" 
d="M91 572q0 62 42 106.5t120 44.5q72 0 116.5 -45.5t44.5 -105.5h-33q0 48 -35.5 84.5t-92.5 36.5q-62 0 -95.5 -35.5t-33.5 -85.5h-33z" />
    <glyph glyph-name="doublegrave" unicode="&#xe412;" horiz-adv-x="507" 
d="M241 573l-138 147h47l126 -147h-35zM353 573l-125 147h48l112 -147h-35z" />
    <glyph glyph-name="caronSlovak" unicode="&#xe413;" horiz-adv-x="507" 
d="M213 565l58 162h37l-66 -162h-29z" />
    <glyph glyph-name="commaaccent" unicode="&#xe414;" horiz-adv-x="509" 
d="M228 -249h-28l47 204h37z" />
    <glyph glyph-name="commaaccent" unicode="&#xf6c3;" horiz-adv-x="509" 
d="M228 -249h-28l47 204h37z" />
    <glyph glyph-name="dotbelow" unicode="&#xe415;" horiz-adv-x="509" 
d="M226 -185v140h37v-140h-37z" />
    <glyph glyph-name="altcedilla" unicode="&#xe416;" horiz-adv-x="507" 
d="M254 -221q-79 0 -130 51l30 20q44 -41 100 -41q41 0 67.5 16.5t26.5 42.5q0 24 -23.5 38.5t-67.5 14.5h-16v24h18q57 1 91 -20.5t34 -55.5q0 -39 -36 -64.5t-94 -25.5z" />
    <glyph glyph-name="exclamdown.cap" unicode="&#xe441;" horiz-adv-x="245" 
d="M105 0v117q0 228 7 408h23q8 -205 8 -408v-117h-38zM105 593v137h38v-137h-38z" />
    <glyph glyph-name="questiondown.cap" unicode="&#xe444;" horiz-adv-x="532" 
d="M262 -10q-88 0 -146.5 46.5t-58.5 121.5q0 38 11 67t28.5 48t39 35.5t43 35t39 41.5t28.5 60t11 86v8h36v-8q0 -60 -14.5 -105t-36.5 -69t-48 -47t-48 -39.5t-36.5 -45.5t-14.5 -67q0 -59 48.5 -97t119.5 -38q121 0 174 102l33 -15q-27 -54 -80.5 -87t-127.5 -33z
M256 593v137h38v-137h-38z" />
    <glyph glyph-name="guilsinglleft.cap" unicode="&#xe451;" horiz-adv-x="287" 
d="M216 229l-145 119v27l145 119v-35l-119 -98l119 -98v-34z" />
    <glyph glyph-name="guilsinglright.cap" unicode="&#xe452;" horiz-adv-x="287" 
d="M71 229v34l120 98l-120 98v35l145 -119v-27z" />
    <glyph glyph-name="guillemotleft.cap" unicode="&#xe453;" horiz-adv-x="437" 
d="M368 231l-148 118v25l148 118v-33l-123 -98l123 -98v-32zM217 231l-147 118v25l147 118v-33l-122 -98l122 -98v-32z" />
    <glyph glyph-name="guillemotright.cap" unicode="&#xe454;" horiz-adv-x="437" 
d="M220 231v32l122 98l-122 98v33l148 -118v-25zM70 231v32l121 98l-121 98v33l147 -118v-25z" />
    <glyph glyph-name="slash.cap" unicode="&#xe461;" horiz-adv-x="444" 
d="M29 0l346 730h40l-346 -730h-40z" />
    <glyph glyph-name="backslash.cap" unicode="&#xe462;" horiz-adv-x="444" 
d="M375 0l-346 730h40l346 -730h-40z" />
    <glyph glyph-name="bar.cap" unicode="&#xe463;" horiz-adv-x="178" 
d="M71 -120v960h37v-960h-37z" />
    <glyph glyph-name="doublebar.cap" unicode="&#xe464;" horiz-adv-x="327" 
d="M71 -120v960h37v-960h-37zM219 -120v960h37v-960h-37z" />
    <glyph glyph-name="brokenbar.cap" unicode="&#xe465;" horiz-adv-x="191" 
d="M71 420v420h37v-420h-37zM71 -120v420h37v-420h-37z" />
    <glyph glyph-name="bullet.cap" unicode="&#xe466;" horiz-adv-x="276" 
d="M138 317q-19 0 -32.5 13.5t-13.5 32.5t13.5 32.5t32.5 13.5t32.5 -13.5t13.5 -32.5t-13.5 -32.5t-32.5 -13.5z" />
    <glyph glyph-name="slash.smcp" unicode="&#xe467;" horiz-adv-x="397" 
d="M38 0l283 596h39l-282 -596h-40z" />
    <glyph glyph-name="backslash.smcp" unicode="&#xe468;" horiz-adv-x="397" 
d="M321 0l-283 596h40l282 -596h-39z" />
    <glyph glyph-name="bar.smcp" unicode="&#xe469;" horiz-adv-x="179" 
d="M71 -98v784h37v-784h-37z" />
    <glyph glyph-name="doublebar.smcp" unicode="&#xe46a;" horiz-adv-x="327" 
d="M71 -98v784h37v-784h-37zM220 -98v784h37v-784h-37z" />
    <glyph glyph-name="onethirdemdash" unicode="&#xe471;" horiz-adv-x="428" 
d="M54 237v33h320v-33h-320z" />
    <glyph glyph-name="threequarteremdash" unicode="&#xe472;" horiz-adv-x="628" 
d="M54 237v33h520v-33h-520z" />
    <glyph glyph-name="periodcentered.cap" unicode="&#xe481;" horiz-adv-x="179" 
d="M71 257v137h38v-137h-38z" />
    <glyph glyph-name="hyphen.cap" unicode="&#xe482;" horiz-adv-x="478" 
d="M54 313v33h370v-33h-370z" />
    <glyph glyph-name="onethirdemdash.cap" unicode="&#xe483;" horiz-adv-x="428" 
d="M54 313v33h320v-33h-320z" />
    <glyph glyph-name="endash.cap" unicode="&#xe484;" horiz-adv-x="528" 
d="M54 313v33h420v-33h-420z" />
    <glyph glyph-name="threequarteremdash.cap" unicode="&#xe485;" horiz-adv-x="628" 
d="M54 313v33h520v-33h-520z" />
    <glyph glyph-name="emdash.cap" unicode="&#xe486;" horiz-adv-x="728" 
d="M54 313v33h620v-33h-620z" />
    <glyph glyph-name="figuredash.cap" unicode="&#xe487;" horiz-adv-x="678" 
d="M54 313v33h570v-33h-570z" />
    <glyph glyph-name="uni2015.cap" unicode="&#xe488;" horiz-adv-x="1028" 
d="M54 313v33h920v-33h-920z" />
    <glyph glyph-name="anglebracketright.smcp" unicode="&#xe490;" horiz-adv-x="341" 
d="M111 -98h-40l186 391l-186 393h41l186 -393z" />
    <glyph glyph-name="parenleft.cap" unicode="&#xe491;" horiz-adv-x="407" 
d="M330 -137q-270 185 -270 498q0 315 263 497l28 -28q-252 -170 -252 -469q0 -297 256 -469z" />
    <glyph glyph-name="parenright.cap" unicode="&#xe492;" horiz-adv-x="407" 
d="M77 -137l-25 29q256 172 256 469q0 153 -67 271.5t-185 197.5l28 28q263 -182 263 -497q0 -313 -270 -498z" />
    <glyph glyph-name="bracketleft.cap" unicode="&#xe493;" horiz-adv-x="381" 
d="M54 -120v960h273v-35h-236v-890h236v-35h-273z" />
    <glyph glyph-name="bracketright.cap" unicode="&#xe494;" horiz-adv-x="381" 
d="M54 -120v34h236v891h-236v35h273v-960h-273z" />
    <glyph glyph-name="braceleft.cap" unicode="&#xe495;" horiz-adv-x="408" 
d="M364 -120h-11q-125 0 -172.5 47t-47.5 170v135q0 63 -17 86t-77 23v37q60 0 77 22.5t17 85.5v137q0 123 47.5 170t172.5 47h11v-34q-116 0 -155 -38t-39 -146v-137q0 -55 -14 -84.5t-49 -41.5q36 -11 49.5 -41t13.5 -85v-135q0 -108 39 -146t155 -38v-34z" />
    <glyph glyph-name="braceright.cap" unicode="&#xe496;" horiz-adv-x="408" 
d="M44 -120v35q116 0 155 37.5t39 145.5v135q0 55 13 85t50 41q-35 12 -49 41.5t-14 84.5v137q0 108 -39 145.5t-155 37.5v35h11q125 0 172.5 -47t47.5 -170v-137q0 -63 17 -85.5t77 -22.5v-37q-60 0 -77 -23t-17 -86v-135q0 -123 -47.5 -170t-172.5 -47h-11z" />
    <glyph glyph-name="anglebracketleft.cap" unicode="&#xe497;" horiz-adv-x="351" 
d="M272 -120l-228 480l228 480h40l-228 -480l228 -480h-40z" />
    <glyph glyph-name="anglebracketright.cap" unicode="&#xe498;" horiz-adv-x="351" 
d="M77 -120h-40l228 480l-228 480h40l228 -480z" />
    <glyph glyph-name="parenleft.smcp" unicode="&#xe499;" horiz-adv-x="319" 
d="M276 -102q-216 149 -216 397q0 250 208 395l23 -29q-195 -132 -195 -366q0 -229 199 -365z" />
    <glyph glyph-name="parenleft.smcp" unicode="&#xf618;" horiz-adv-x="319" 
d="M276 -102q-216 149 -216 397q0 250 208 395l23 -29q-195 -132 -195 -366q0 -229 199 -365z" />
    <glyph glyph-name="parenright.smcp" unicode="&#xe49a;" horiz-adv-x="318" 
d="M43 -102l-19 32q198 135 198 365q0 234 -194 366l23 29q208 -145 208 -395q0 -248 -216 -397z" />
    <glyph glyph-name="parenright.smcp" unicode="&#xf619;" horiz-adv-x="318" 
d="M43 -102l-19 32q198 135 198 365q0 234 -194 366l23 29q208 -145 208 -395q0 -248 -216 -397z" />
    <glyph glyph-name="bracketleft.smcp" unicode="&#xe49b;" horiz-adv-x="350" 
d="M71 -98v784h222v-35h-186v-714h186v-35h-222z" />
    <glyph glyph-name="bracketleft.smcp" unicode="&#xf60e;" horiz-adv-x="350" 
d="M71 -98v784h222v-35h-186v-714h186v-35h-222z" />
    <glyph glyph-name="bracketright.smcp" unicode="&#xe49c;" horiz-adv-x="351" 
d="M57 -98v34h186v715h-186v35h223v-784h-223z" />
    <glyph glyph-name="bracketright.smcp" unicode="&#xf60f;" horiz-adv-x="351" 
d="M57 -98v34h186v715h-186v35h223v-784h-223z" />
    </font>
</defs>
</svg>
